<svg xmlns="http://www.w3.org/2000/svg" width="293.116" height="20.356" viewBox="0 0 293.116 20.356">
  <path id="Path_2537" data-name="Path 2537" d="M15.32,2.08a1.354,1.354,0,0,0,.54-1.06c0-3.64-.04-7.28-.12-10.94.06-1.46.18-2.88.36-4.2a1.614,1.614,0,0,0-.3-1.42,3.281,3.281,0,0,0-1.82-.9,12.84,12.84,0,0,0-4.92,1.32,25.138,25.138,0,0,1-4.74,1.8l.28.44a18.9,18.9,0,0,0,4.28-1.56,10.866,10.866,0,0,1,4.46-1.1,2.389,2.389,0,0,1,1.76.74l-.28,2.66.1.26c.04,3.12,0,6.24-.12,9.34L15-1.18l-.1.46.1.36-.1,1.38A9.155,9.155,0,0,1,13.74.58L13.08.04l.38.72a5.937,5.937,0,0,0,1.58,1.58ZM5.42.7,5.8.24a26.171,26.171,0,0,1-.96-3,5.01,5.01,0,0,1,.82-3.1l-.2-.1-.26.1A4.341,4.341,0,0,0,4.24-3.8l.1.44-.1.38A8.114,8.114,0,0,0,5.34.78ZM6-.6a21.859,21.859,0,0,0,2.12-.62,5.626,5.626,0,0,1,1.94.36l.3-.9-1.98-.2.1-.26.28-.08,1.68-1.46.66-.92a.893.893,0,0,0-.3-.88L9.4-6.12a4.775,4.775,0,0,0-3.7,1.5l.2.44.46-.28A4.825,4.825,0,0,1,8.5-5.34a2.268,2.268,0,0,1,1.66.48,1,1,0,0,1-.4,1C9.14-3.3,8.52-2.78,7.9-2.28a7.072,7.072,0,0,1-2.06,1.1L5.56-.8ZM4.06-7.92c.86-.24,1.76-.46,2.7-.64a17.53,17.53,0,0,0,2.86-.8l-.16.56,1.1-.28.28-.62-.08-.38c-1.18.2-2.34.46-3.44.76-1.08.32-2.2.58-3.34.82l-.2.28ZM23.74,2.54q.27,0,.36-.36l.38-.16c.42-1.02.88-2.04,1.36-3.04s1.02-1.96,1.56-2.92a48.773,48.773,0,0,0,4.42-2.28,10.17,10.17,0,0,1,4.8-1.34h.84l-1.04,1.2-.36.18a12,12,0,0,0-2.84,2.76l-.28.1A20.041,20.041,0,0,0,29.74.72l.3.54.84.66.64-.18.38.08,2.06-.18L35.54.44a11.932,11.932,0,0,0,1.3-1.86l.26.1A16.407,16.407,0,0,1,37.94.6l.74.56V.7l.28-.2a12.708,12.708,0,0,0-1.98-3.16h-.3a1.814,1.814,0,0,0-.3,1.3l-.84.82A4.526,4.526,0,0,1,31.98,1.1,2.994,2.994,0,0,1,30.44.94l.4-1.1c.74-.86,1.5-1.7,2.28-2.54a21.746,21.746,0,0,1,2.54-2.34l2.62-1.92.3-.72-.1-.26-.74-.38a6.412,6.412,0,0,1-1.7.4l-.1.28-.3-.2L35-7.56l-1.12-.08a8.814,8.814,0,0,1,.9-3.98,4.79,4.79,0,0,1,1.02-.62l.46.1.1-.56-.1-.36-1.1.54h-.3l.1-.72a5.986,5.986,0,0,0-.3-2.44.6.6,0,0,0-.68.28l.28,1.1a6.185,6.185,0,0,1-.2,2.22l-1.88.82a2.646,2.646,0,0,1-1.34-.16h-.48v.44l.78.56a3.221,3.221,0,0,0,2.2-.54l.38.1a4.58,4.58,0,0,1-.4,1.38l.1.46a4.381,4.381,0,0,1-.48,2.04A11.561,11.561,0,0,0,30.22-5.8c-.88.52-1.82,1.04-2.84,1.54v-.28H27.1l-.18.36-.48.2a4.591,4.591,0,0,1-.94,2.2c.06.32-.04.52-.28.58a12.115,12.115,0,0,1-1.8,2.76,15.185,15.185,0,0,1,.34-3.18q.36-1.56.66-3.06a2.051,2.051,0,0,0-.5-1.56l-.94-.26h-.46l-.1.26v.28a2.208,2.208,0,0,0,1.28.4l.1.54c-.18,1.28-.42,2.58-.72,3.86a18.585,18.585,0,0,0-.44,3.94Zm1.9-12.92.38-.08a4.562,4.562,0,0,0-.86-3.28h-.48l-.18.28a10.258,10.258,0,0,1,1.1,3.1ZM51.12,3.26l.56-.44.54.16a3.523,3.523,0,0,0,2.1-.4l1.84.18h.28l.1-.38.28-.08V1.84l.92-.92A24.37,24.37,0,0,0,59.2-1.26a1.081,1.081,0,0,0-.32-.98,5.157,5.157,0,0,0-1.86-1.1,10.67,10.67,0,0,0-3,.44,10.539,10.539,0,0,0-2.66,1.28l.2.54.44-.1.48-.44A11.848,11.848,0,0,0,54.4-2.5l1.46.28.46-.1,1.84.92v.74a19.584,19.584,0,0,1-2.04,2.4l-.84-.1-1.2.56h-.64V1.92h.26A7.4,7.4,0,0,0,55.44.22l-.46-1a3.893,3.893,0,0,0-2.7.58V.08l.54.36.94-.46a.847.847,0,0,1,1,.3l-.1.26a8.39,8.39,0,0,1-2.32,1.58l-.74.66h-.28l-.46-.82L49.56.66a2.007,2.007,0,0,1,.26-1.54l-.28-.44L49-1.06A3.349,3.349,0,0,0,48.62.52l.08.56,1.1,1.18ZM49.26-2.42a22.462,22.462,0,0,0,3.6-1.22,14.063,14.063,0,0,1,3.72-1.02,3.445,3.445,0,0,1,1.52.18l.38-.54-.28-.44a11.007,11.007,0,0,0-3.9.64l-.38-.08.38-1.46.84-.38.26-.74-.16-.38-.76.3h-.26v-.46l.82-.82.36-.2.56-.92v-.36l-1.3.46-.36-.1v-.28a4.444,4.444,0,0,0,2.1-.84c.6-.44,1.26-.88,1.92-1.28a2.484,2.484,0,0,1,1.46.46l.48-.18.54.08h.3l.34-.44-.28-.48-2.02.1a8.951,8.951,0,0,1-2.46-.84,6.719,6.719,0,0,0-2.54-.66l.18-1.18-.38-1.2-.44.2-.3.34.1.66-.1,1.28-.82.18a2.079,2.079,0,0,1-1.58-.7l-.56.36.18.56,1.02.44,1.3-.08h.44l.2.92-.1,1L50.6-11l-.28-.08a12.383,12.383,0,0,0-2.36.6c-.78.26-1.54.54-2.28.8a1.427,1.427,0,0,1-1.4-.36l-.66.28.1.46,1.02.38c1.4-.44,2.8-.8,4.16-1.14,1.38-.34,2.86-.64,4.46-.94l-.2,1.84a8.946,8.946,0,0,1-2.22.84.638.638,0,0,1-.76-.36l-.46.28v.38l.56.54a17.107,17.107,0,0,0,2.46-.88l.36.1a1.447,1.447,0,0,1-.38,1.12l.36.18-.1.28-1.56.64-.28-.1-.9.18-.48.48.2.44a6.985,6.985,0,0,0,2.82-.9l.28.1L52.7-3.9a11.612,11.612,0,0,0-2.6.98h-.92l-.38-.44-.74.38v.26Zm5.18-8.1h-.56l.08-.56,2.3-.72h.28l-.08.28q-1.02.54-2.04,1.02Zm1.72-1.8-1.92.62-.38-.18a2,2,0,0,1,.16-1.26,2.984,2.984,0,0,1,2.1.86ZM71.74.8,76-.1a6.031,6.031,0,0,1,2.2.2l.64.18h.56l.38-.72V-.72a1.519,1.519,0,0,1-1.22-.24,12.39,12.39,0,0,0-3.24.24A20.044,20.044,0,0,0,72.3.16a3.15,3.15,0,0,1-1.5-.54L70.32,0l.1.28Zm.62-1,1.12-.34.92-.82a7.98,7.98,0,0,0,1-2.18l-.1-.9c.18-1.4.3-2.84.36-4.34.98-.24,1.96-.54,2.92-.88l.28.08.48-.28.36.1,1.38-.18.18-.54v-.38c-.94.2-1.88.42-2.8.66-.94.26-1.88.52-2.82.76l-.38-.1.28-5.34-.18-1.1H75a3.511,3.511,0,0,0-.4,1.66,11.121,11.121,0,0,1,.06,3.64l-.08.26.08.46-.08.82a14.033,14.033,0,0,0-2.7.98,16.447,16.447,0,0,1-2.68,1,3.039,3.039,0,0,1-2.18-.48h-.28l-.08.2.08.54c.54.18,1.08.4,1.64.64.98-.34,1.94-.68,2.92-.96A29.049,29.049,0,0,0,74.24-8.3l.26.1c-.06,1.26-.12,2.54-.14,3.78a5.693,5.693,0,0,1-1.18,3.34l-.92.56ZM89.02,1.08,89.38,1a8.09,8.09,0,0,0,1.1-2.92l.28.1L92.06.54l.66.28a2.437,2.437,0,0,0,2.04-.7,9.65,9.65,0,0,0,1.52-2.86c.34-1,.62-2.02.88-3.12a4.52,4.52,0,0,0-.58-3.16l-1.68-1.2a10.307,10.307,0,0,0-2,.48c.32-1.28.62-2.5.94-3.72a1.993,1.993,0,0,0-.2-1.26h-.28l-.18.44.08.56c-.38,1.42-.72,2.84-1.04,4.3a24.5,24.5,0,0,1-3.84,2.04l.16.46a4.2,4.2,0,0,0,2.98-1.36l.3.1a37.744,37.744,0,0,0-1.48,4.14c-.4,1.4-.84,2.8-1.26,4.22l-.66.54v.36Zm4.26-.9L93,.36l-.74-.1L90.48-2.3a15.577,15.577,0,0,1,.86-3.12c.4-1,.78-2.02,1.16-3.06a3.663,3.663,0,0,1,1.76-.8l1.1.38a2.87,2.87,0,0,1,.74,1.76,7.4,7.4,0,0,1-.3,2.52,22.443,22.443,0,0,0-.66,2.34,7.5,7.5,0,0,1-2,2.58ZM103.6-3.08l.68-.1.74-.82a11.133,11.133,0,0,0-1.2-4.18,29.4,29.4,0,0,0-2.3-3.74l-.38-.1-.94-.82h-.26a34.943,34.943,0,0,1,2.48,4.06,13.01,13.01,0,0,1,1.4,4.48l-.1.38-.84.44.08.28Zm11.3,4.42a1.4,1.4,0,0,0,1-.46,10,10,0,0,0,2.16-3.24,13.9,13.9,0,0,0,.88-3.78,5.162,5.162,0,0,0-.58-3.1l-1.32-1.02a5.357,5.357,0,0,0-2.62.3l.74-2.2a1.809,1.809,0,0,0-.3-1.18l-.64.2.08,1.28-.56,2.02a15.557,15.557,0,0,1-2.82,1.76l-.64-.18-.1.28v.36l.38.28a3.7,3.7,0,0,0,2.28-1l.3.1-.38,1a2.982,2.982,0,0,1-.48,1.3L112-5.2,111.72-4l-.28.18-.2.54c-.36,1.22-.78,2.44-1.2,3.62l.36.54h.28l.1-.38.26-.08c.44-1.6.88-3.18,1.36-4.76a31.871,31.871,0,0,1,1.7-4.56l1.58-.56a2.37,2.37,0,0,1,1.46.48l.74,1.46a19.242,19.242,0,0,1-.7,4.52,8.1,8.1,0,0,1-2.5,3.74L114.4.66a9.014,9.014,0,0,1-1.02-2.12,15.567,15.567,0,0,1-.6-2.3l-.36.16a7.766,7.766,0,0,0,.64,3.16l.36.26.1,1.1Zm10.44-6,.48-.48a9.128,9.128,0,0,0-.96-2.52c-.46-.78-.9-1.58-1.34-2.38a7.588,7.588,0,0,0-2.26-2.46l-.36.18a17.817,17.817,0,0,1,2.28,3.46,32.18,32.18,0,0,1,1.52,3.72Zm-.36-7.62.46-.46v-.46l-1.68-1.3-.46.2v.28a8.729,8.729,0,0,1,1.66,1.76Zm1.74-2.36.66-.48-.58-.92-.64-.26-.28.26ZM139.94,1.08,140.3.9a14.3,14.3,0,0,0-1.94-3.76c-.84-1.16-1.68-2.36-2.5-3.56l.1-.28a14.95,14.95,0,0,1,3.64-2.16,11.79,11.79,0,0,1,4.22-.9,5.18,5.18,0,0,1,2.52.84,3.818,3.818,0,0,1,1.28,1.66l-.28,1.1A8.983,8.983,0,0,1,145-5.04a4.567,4.567,0,0,1-3.68-1l.18.38a4.147,4.147,0,0,0,2.32,1.2,6.149,6.149,0,0,0,4.22-1.34l.28-.64a3.181,3.181,0,0,0-.78-2.1,4.929,4.929,0,0,0-3.12-1.52,1.64,1.64,0,0,0-1.14.2l-.38-.08a10.931,10.931,0,0,0-3.4.88c-1.08.46-2.1.98-3.12,1.52l-.74.74c-.46.12-.7,0-.76-.34h-.4l-.56-1.64a1.915,1.915,0,0,1,.76-1.92c1.24.38,2.52.74,3.82,1.06a3.651,3.651,0,0,0,3.1-.64,3.05,3.05,0,0,0-1.24-2.46l-.36.1a2.3,2.3,0,0,0,.82,1.3l-.1.92a3.141,3.141,0,0,1-1.6.46,11.19,11.19,0,0,1-4.34-1.18,2.08,2.08,0,0,0-1.46.94l-.38,1.02a4.331,4.331,0,0,0,1.12,2.66l.46.36v.28a16.124,16.124,0,0,0-3.22,1.84h-.28l-.46-.46-.28.1v.28l.64.54a14.424,14.424,0,0,0,3.66-1.98l.38.1c.74,1.14,1.5,2.32,2.28,3.5.78,1.2,1.5,2.4,2.18,3.62Zm17.74,1.74h.46l.28-.08.28.08c.78-.12,1.6-.2,2.46-.26s1.68-.14,2.48-.26l.38-.44a.489.489,0,0,0-.48-.54,13.441,13.441,0,0,1-2.64.48l-.26-.1-.92.28a2.909,2.909,0,0,1-2.88-.8l.46-1.46-.18-.46-.54.1L155.82.72v.54a4.019,4.019,0,0,0,1.76,1.66Zm6.2-4.9h.64l.74-1a10.862,10.862,0,0,0-.86-2.42c-.36-.76-.78-1.52-1.2-2.24l.08-.44,1.3-.56.92-1.08a1.339,1.339,0,0,0-.66-1h-.38l.1.38-.18.64-.66.34a1.572,1.572,0,0,0-.94.76,7.379,7.379,0,0,0-1.06-2.62l.1-.66,1.4-.54h.26l-.2.74-.54.54-.36.08v.28l.64-.36.36-.08a5.223,5.223,0,0,0,1.64-1.9l-.26-.38c-1.06.32-2.12.68-3.16,1.04h-.48l-.18-.82.18-1.2-.18-.36h-.46l-.28.36.28,1.82-.1.66a22.909,22.909,0,0,1-3.28,1.2l-.28-.1-.26.1L156-11l.08.38.56.36a9.435,9.435,0,0,0,3.88-1.16l.36.08.92,2.64-.08.28a14.111,14.111,0,0,1-3.62,1.86,1.55,1.55,0,0,1-1.36-.26l-.74.28.1.28,1.48.62a12.249,12.249,0,0,0,2.18-.76q1.05-.51,2.04-1.02l.28.08c.66,1.34,1.26,2.7,1.82,4.04l-.1.74-.82.36v.26ZM159.26-8.6l.92-1.08-.36.1-.08.44h-.48l-.16.44ZM174.94,2.54q.27,0,.36-.36l.38-.16c.42-1.02.88-2.04,1.36-3.04s1.02-1.96,1.56-2.92a48.775,48.775,0,0,0,4.42-2.28,10.17,10.17,0,0,1,4.8-1.34h.84l-1.04,1.2-.36.18a12,12,0,0,0-2.84,2.76l-.28.1a20.041,20.041,0,0,0-3.2,4.04l.3.54.84.66.64-.18.38.08,2.06-.18,1.58-1.2a11.932,11.932,0,0,0,1.3-1.86l.26.1A16.406,16.406,0,0,1,189.14.6l.74.56V.7l.28-.2a12.708,12.708,0,0,0-1.98-3.16h-.3a1.814,1.814,0,0,0-.3,1.3l-.84.82a4.526,4.526,0,0,1-3.56,1.64,2.994,2.994,0,0,1-1.54-.16l.4-1.1c.74-.86,1.5-1.7,2.28-2.54a21.746,21.746,0,0,1,2.54-2.34l2.62-1.92.3-.72-.1-.26-.74-.38a6.412,6.412,0,0,1-1.7.4l-.1.28-.3-.2-.64.28-1.12-.08a8.814,8.814,0,0,1,.9-3.98,4.79,4.79,0,0,1,1.02-.62l.46.1.1-.56-.1-.36-1.1.54h-.3l.1-.72a5.986,5.986,0,0,0-.3-2.44.6.6,0,0,0-.68.28l.28,1.1a6.185,6.185,0,0,1-.2,2.22l-1.88.82a2.646,2.646,0,0,1-1.34-.16h-.48v.44l.78.56a3.221,3.221,0,0,0,2.2-.54l.38.1a4.58,4.58,0,0,1-.4,1.38l.1.46a4.381,4.381,0,0,1-.48,2.04,11.561,11.561,0,0,0-2.72,1.18c-.88.52-1.82,1.04-2.84,1.54v-.28h-.28l-.18.36-.48.2a4.591,4.591,0,0,1-.94,2.2c.06.32-.04.52-.28.58a12.115,12.115,0,0,1-1.8,2.76,15.185,15.185,0,0,1,.34-3.18q.36-1.56.66-3.06a2.051,2.051,0,0,0-.5-1.56l-.94-.26h-.46l-.1.26v.28a2.208,2.208,0,0,0,1.28.4l.1.54c-.18,1.28-.42,2.58-.72,3.86a18.585,18.585,0,0,0-.44,3.94Zm1.9-12.92.38-.08a4.562,4.562,0,0,0-.86-3.28h-.48l-.18.28a10.258,10.258,0,0,1,1.1,3.1ZM203.06,2.54l.92-.2.76-.82L205.1.6l.48-.26a5.052,5.052,0,0,1,.72,1.68l.84.54h.26a6.238,6.238,0,0,0,1.66-1.18A11.79,11.79,0,0,0,211-2.74a5.137,5.137,0,0,0-1.42-3l.1-.28a9.859,9.859,0,0,0,4.16-1.82l-.08-.26a6.935,6.935,0,0,0-3.56-1.54l-.3.08-.74-.08a7.635,7.635,0,0,0,.82-2.12l-.1-.64-.54-.36h-.3l-.26.36.36.56a3.9,3.9,0,0,1-.86,1.94,12.692,12.692,0,0,1-3.26,1.06,2.517,2.517,0,0,1-1.86-.46,7.535,7.535,0,0,0-3.24.7c-.96.48-1.94.96-2.94,1.46l-.1.18a7.451,7.451,0,0,1-2.64,1.32l-.2.18v.36l.3.18A26.256,26.256,0,0,0,197.7-6.8a12.906,12.906,0,0,1,3.46-1.58,4.135,4.135,0,0,0,1.94.46v.28l-.92,1.02-1.68.92.16-.48-.06-.54-.68-.36-.84.36a32,32,0,0,1-1.7,3.42A18.1,18.1,0,0,1,194.46.22a.908.908,0,0,1-.76.46l.1.38a3.746,3.746,0,0,0,1.92-1.18l.08-.28.58-.46a5.741,5.741,0,0,0,1.36-2l.4-.08a6.736,6.736,0,0,1,.8-1.92l.56-.28-.1.48.28,2.1A7.683,7.683,0,0,1,199.2.66l-.28-.08a7.4,7.4,0,0,0-.82-2.56l-.1.74a6.569,6.569,0,0,0,1.28,3.98l.76-.28a11.369,11.369,0,0,1,.42-3.92l-.18-1.3.1-2.58.28.1,1-.26a5.068,5.068,0,0,0,2.06-2.2l.46-.26.38.08.94-.26h1l-1.68,1.46-.08.28-.46.26-.74.56,1.02-.18a.5.5,0,0,0,.46-.52l.56-.1,1.76-1.56,1.02-.46a6.063,6.063,0,0,1,3.8.84l-.08.28a30.263,30.263,0,0,1-3.48,1.3l-.28.38a1.575,1.575,0,0,0-1.4.56l-.66-.2h-.38a3.054,3.054,0,0,0-.66,1.04l-1.58,1.1-.18.36-.38.2-.28.36.2.46a2.265,2.265,0,0,0,1.34-.62l1.04-.74a17.5,17.5,0,0,1-.68,2.86,9.526,9.526,0,0,1-2.36,3.06Zm3.86-.36-.3.18-.46-.08a4.11,4.11,0,0,1-.94-2c.44-1.28.82-2.54,1.2-3.84a2.705,2.705,0,0,1,1.16-.7l1.12.08a5.36,5.36,0,0,1,.64,1.58L208.8-.12a6.1,6.1,0,0,1-1.98,2.4ZM200.58-9.64l.36-.36a.469.469,0,0,0-.46-.62,13.811,13.811,0,0,0,2.86-2.94l-.08-.34-1.12-.74a9.907,9.907,0,0,0-2.72.7q-1.32.51-2.64.9l-.36-.18-.48.28a.572.572,0,0,0,.36.74c.86-.3,1.72-.62,2.58-.94a10.311,10.311,0,0,1,2.68-.66l.66.16a16.62,16.62,0,0,1-1.12,1.88l-.46.1-.28.44a3.565,3.565,0,0,1-2.72.5l-.1.28.1.36.46.18.74-.1a4.234,4.234,0,0,1,1.56.58Zm3.08-.96a14.053,14.053,0,0,0,3.18-1.26,14.364,14.364,0,0,1,3.18-1.24l.56.18.28-.08.28-.48-.28-.44a9.989,9.989,0,0,0-3.34.92,32.125,32.125,0,0,0-3.14,1.68v-.38l.38-.28a14.2,14.2,0,0,0,1.64-2.74,1.957,1.957,0,0,0-.22-1.24h-.28a5.183,5.183,0,0,1-.96,2.68c-.56.8-1.08,1.6-1.6,2.4ZM224.96.44a4.81,4.81,0,0,0,1.76-1.16,16.987,16.987,0,0,0,2.6-4.44,20.236,20.236,0,0,0,1.28-4.98,7.01,7.01,0,0,1,2.12-.52l.84.1.28-.48-.18-.44-.58.18-.36-.08-1.5.26-.48-.26.1-.72-.18-1.3-.66-.36-.26.36c.16.62.34,1.28.52,1.94l-.08.26-.84.56-.56-.18a13.627,13.627,0,0,1-2.54.7,24.8,24.8,0,0,0-2.54.62l-.58-.08-.28.08-.28-.08-.18-.84.08-.26-.26-1.36h-.38l-.2.26.3,1.02-.1.28.1.26-.2,1.36a24.508,24.508,0,0,1-4.14.94l.4.64a8.24,8.24,0,0,0,3.34-.9l.56.1a28.263,28.263,0,0,0,.26,3.92h.36l.38-.54-.38-2.46.1-1.46a26.446,26.446,0,0,1,2.98-.84c1.02-.2,2.06-.4,3.12-.58l1.02.2a14.5,14.5,0,0,1-.86,3.68c-.46,1.2-.9,2.38-1.36,3.52A12.654,12.654,0,0,1,224.52.4Zm18.06-6.4,1.3-.18.46.1c1.04-.22,2.1-.44,3.18-.62,1.06-.18,2.12-.4,3.16-.62l.36.2.66-.1,2.76.16.18.28.92.38.28-.46-.18-.56a3.805,3.805,0,0,0-1.7-.8,19.908,19.908,0,0,0-4.28.46l-.38-.1h-.36l-.18.28-.2-.18-1.08.36-.38-.08-.36.18-.56-.1a6.18,6.18,0,0,1-2.96.58l-1.86-.2-1.66-1.36-.38.28.1.36a4.964,4.964,0,0,0,3.06,1.84ZM267.34-.38l.2-.08,1.38.08c1.04-.1,2.1-.2,3.18-.28a21.82,21.82,0,0,0,3.18-.48l.26-.36v-.38L275-2.06q-1.41.48-2.88.84l-.28-.08-.46.18-.46-.1-1.58.1a8.459,8.459,0,0,1-3.44-.34l-.92-1.38.08-.26-.08-.28.46-2.72c1.28-.84,2.58-1.72,3.92-2.62,1.32-.88,2.64-1.82,3.92-2.8a4.855,4.855,0,0,0,1.58-2.06l-.1-.8-1-.26-1.5.34.2.54.92-.08h.64l-.26,1.08-.48.28-.46.72c-1.18.86-2.36,1.7-3.52,2.5-1.18.8-2.38,1.56-3.64,2.3l-.36.26a30.56,30.56,0,0,1,.52-3.34c-.04-.82-.04-1.62-.02-2.42l.1-.38v-.36l-.38-.28h-.28l-.18.38.18,1.08a10.214,10.214,0,0,1-.34,3.26c-.28,1-.56,2.02-.88,3.06l.28.72-.18,1.54.18,1.46L265.32-.6a3.193,3.193,0,0,0,1.8.56ZM277.5-12.6l.38-.28a9.107,9.107,0,0,0-1.3-2.06l-.66.28Zm1.76-1.42.2-.1a1.926,1.926,0,0,0-.32-1.34l-.64-.82h-.38l-.16.26a6.378,6.378,0,0,0,.42,1.12Zm5.44,15.2a16.115,16.115,0,0,0,2.78-2.82c.8-1.04,1.64-2.06,2.5-3.06a13.241,13.241,0,0,1,3.36,2.44A17.789,17.789,0,0,1,295.98,1h.28l.28-.46a1.178,1.178,0,0,0-.48-1.16h-.38a18.908,18.908,0,0,0-2.44-2.46,26.286,26.286,0,0,0-2.74-2.04,36.509,36.509,0,0,1,2.46-3.82,36.779,36.779,0,0,0,2.46-3.84v-.36l-.36-.28a11.917,11.917,0,0,0-4.1,1.06c-1.26.58-2.5,1.2-3.76,1.88-.68-.18-1.42-.42-2.24-.72l-.38.36.1.28A8.765,8.765,0,0,0,287-9.8a24.127,24.127,0,0,0,3.34-1.54,9.3,9.3,0,0,1,3.5-1.18l.38.1-.28.54-.36.62a14.648,14.648,0,0,1-1.64,2.8,21.246,21.246,0,0,0-1.76,2.68l-.4.2-.08.26-1.3,1.36-.64,1.08a19.474,19.474,0,0,0-1.86,2.1,9.523,9.523,0,0,1-1.92,1.88Z" transform="translate(-3.587 16.906)" fill="#333" stroke="#333" stroke-width="0.3"/>
</svg>
