<svg xmlns="http://www.w3.org/2000/svg" xmlns:xlink="http://www.w3.org/1999/xlink" width="245" height="245" viewBox="0 0 245 245">
  <defs>
    <clipPath id="clip-path">
      <rect id="Rectangle_3632" data-name="Rectangle 3632" width="127.207" height="160.159" fill="none"/>
    </clipPath>
  </defs>
  <g id="Group_2897" data-name="Group 2897" transform="translate(-322 -1071.908)">
    <circle id="Ellipse_11" data-name="Ellipse 11" cx="122.5" cy="122.5" r="122.5" transform="translate(322 1071.908)" fill="#ccdcdb"/>
    <text id="誠実な執務姿勢" transform="translate(445 1113.908)" fill="#333" font-size="24" font-family="NotoSerifJP-Regular, Noto Serif JP"><tspan x="-84" y="0">誠実な執務姿勢</tspan></text>
    <g id="Group_2890" data-name="Group 2890" transform="translate(381.557 1128.908)">
      <g id="Group_2889" data-name="Group 2889" clip-path="url(#clip-path)">
        <path id="Path_2452" data-name="Path 2452" d="M139.316,7.187l-2.037-6.5c-.377-1.2-2.276-.69-1.9.523l2.037,6.5c.377,1.2,2.276.69,1.9-.523" transform="translate(-108.722 0)" fill="#4c8581"/>
        <path id="Path_2453" data-name="Path 2453" d="M83.353,47.552,76.64,42.637c-1.022-.748-2,.957-.993,1.7L82.36,49.25c1.022.748,2-.957.992-1.7" transform="translate(-60.431 -34.104)" fill="#4c8581"/>
        <path id="Path_2454" data-name="Path 2454" d="M53.06,110.621l-6.479-1.912a.984.984,0,0,0-.523,1.9l6.479,1.912a.984.984,0,0,0,.523-1.9" transform="translate(-36.447 -87.297)" fill="#4c8581"/>
        <path id="Path_2455" data-name="Path 2455" d="M312.611,131.465c-.951-1.414-2.189-1.243-3.428-.214a1.15,1.15,0,0,1-1.627-.166,4.457,4.457,0,0,1-3.04-1.539,1.152,1.152,0,0,1-.411-.113c-2.779-1.338-3.7-4.219-4.128-7.064-.291-1.955-.193-5.692-2.474-6.527a1.166,1.166,0,0,1-.383-1.925,8.318,8.318,0,0,0-1.035-1.809,10.978,10.978,0,0,1-1.509-1.228,1.032,1.032,0,0,1-1.517.547,8.757,8.757,0,0,0-7.757-.529,9.247,9.247,0,0,0-4.541,4.521c-2.464,4.537-5.8,10.538-11.284,11.67a3.357,3.357,0,0,0-.421,1.341,1.135,1.135,0,0,1,.942,1.006c.605,5.591.219,11.331,1.507,16.835a27.884,27.884,0,0,0,5.452,11.172,11.277,11.277,0,0,0,9.477,4.01,16.817,16.817,0,0,0,10.29-4.025,29.919,29.919,0,0,0,7.711-11.259c.508-1.281,2.6-.719,2.086.575-1.969,4.968-5.167,9.99-9.509,13.209a19.049,19.049,0,0,1-11.63,3.668,14.243,14.243,0,0,1-4.266-.758q.114,1.777.229,3.554a.906.906,0,0,1-.592.964l1.188,2.306,3.245-2.037L307.4,153.707a1.167,1.167,0,0,1-.078-.358q-.239-3.814-.477-7.629a1,1,0,0,1,1.411-.976c.005-.126.009-.252.01-.38-.2.071-.4.137-.606.193a1.082,1.082,0,0,1-.575-2.086c3.117-.846,5.66-4.08,6.26-7.186a5.073,5.073,0,0,0-.73-3.82m-32.444,8.058a21.971,21.971,0,0,0,2.022-3.223,9.141,9.141,0,0,0,.555-3.947c-.094-1.392,2.069-1.382,2.163,0a10.966,10.966,0,0,1-1.347,6.083c-.437.782-1.449,1.6-1.666,2.462-.231.913,1.043,1.595,1.675,1.973a1.082,1.082,0,0,1-1.092,1.867c-1.851-1.107-3.631-2.979-2.31-5.215m-2.466-7.8a1.082,1.082,0,0,1,0-2.163,1.082,1.082,0,0,1,0,2.163m12.548,17.8c-2.652,2.858-8.082,3.576-10.718.28-.861-1.077.66-2.616,1.529-1.529,1.92,2.4,5.738,1.79,7.659-.28.949-1.023,2.475.51,1.529,1.529m2.327-17.8a1.082,1.082,0,0,1,0-2.163,1.082,1.082,0,0,1,0,2.163" transform="translate(-216.151 -88.558)" fill="#fff"/>
        <path id="Path_2456" data-name="Path 2456" d="M285.005,67.274a20.914,20.914,0,0,0,1.142-11.491c-.55-3.043-2.57-7.544-5.991-8.169.1.207.194.417.291.635-.1-.217-.193-.428-.291-.635a4.484,4.484,0,0,0-.831-.076,1.093,1.093,0,0,1-.409-2.087,8.986,8.986,0,0,0-.885-1.05,1.075,1.075,0,0,1-1.85.01,14.311,14.311,0,0,0-7.828-6.633c-5.737-1.92-12.2-.371-17.217,2.744a23.685,23.685,0,0,0-4.351,3.444c-1.477,1.493-2.36,3.382-3.653,5.016a8.667,8.667,0,0,1-7.811,3.451,4.563,4.563,0,0,0,2.125,1.384c.076-.186.158-.371.248-.553.541-1.1,2.047-.383,1.987.651a3.267,3.267,0,0,0,.752-.26,3.267,3.267,0,0,1-.752.26,1.141,1.141,0,0,1-.12.441c-1.394,2.831-.485,6.358,1.086,8.925a1.037,1.037,0,0,1-.686,1.562,3.7,3.7,0,0,0,.644,2.044,1.117,1.117,0,0,1,.936-.71c3.2-.354,5.5-3.259,7.211-5.711a47.628,47.628,0,0,0,2.6-4.214,23.769,23.769,0,0,1,1.727-2.937,10.9,10.9,0,0,1,13.974-2.641,1.015,1.015,0,0,1,.425,1.32,10.936,10.936,0,0,0,1.509,1.229,8.322,8.322,0,0,1,1.035,1.809.888.888,0,0,1,.958-.161c6.005,2.2,1.688,11.2,7.118,13.809,1.115.536.373,2.065-.681,1.98a4.458,4.458,0,0,0,3.04,1.539.9.9,0,0,1,.1-1.363,5.132,5.132,0,0,1,4.085-1.4c.148-.363.283-.741.429-1.117a1.117,1.117,0,0,1-.061-1.042" transform="translate(-189.049 -29.674)" fill="#989898"/>
        <path id="Path_2457" data-name="Path 2457" d="M190.015,359.955a121.548,121.548,0,0,0-15.665,16.786c-4.439,5.559-8.633,11.309-12.923,16.982-2.712,3.586-5.333,7.192-7.813,10.944q-4.288,6.487-8.312,13.145a118.768,118.768,0,0,0-5.967,10.633c-.594,1.259-2.458.16-1.868-1.092.093-.2.193-.393.288-.59a1.256,1.256,0,0,1-.016-.125,102.826,102.826,0,0,1-.179-10.317c.085-3.631.284-7.267.706-10.876a34,34,0,0,1,1.857-8.8c2.263-5.586,5.6-10.47,8.48-15.725a1,1,0,0,1,.508-.467,64.217,64.217,0,0,1,.023-9.037.855.855,0,0,1-.429-1.164l.742-1.822a11,11,0,0,1-2.321.889,1.143,1.143,0,0,1-.453,1.843c-3.89,1.326-8.056,2.081-11.738,3.958a9.37,9.37,0,0,0-3.638,2.89,15.031,15.031,0,0,0-.928,1.786c-.916,1.85-1.855,3.689-2.789,5.53-1.75,3.45-6.956,10.185-6.956,10.185l-6.705,49.531H216.5a.98.98,0,0,1-.291-.751q.1-5.329.167-10.658c.189-13.328.381-26.663.243-39.993-.024-2.354-.056-4.709-.153-7.061-.031-.752-.065-1.5-.132-2.254-.014-.156-.03-.311-.046-.466l0-.038h0a7.329,7.329,0,0,0-.663-2.041c-2.107-4.128-6.933-6.1-10.593-8.548-4.933-3.306-8.77-7.912-13.4-11.593a.86.86,0,0,1-.2-1.22c-.359-.355-.711-.72-1.068-1.072a.947.947,0,0,1-.35.611m-57.877,27.894c3.714-5.182,9.56-8.254,13.9-12.824.961-1.011,2.488.521,1.529,1.529-4.2,4.416-9.982,7.387-13.565,12.386-.8,1.123-2.68.042-1.868-1.092m1.814,40.194c0-.023-.01-.053-.017-.1-.028-.163-.057-.327-.087-.49-.091-.489-.193-.976-.295-1.462-.292-1.389-.6-2.775-.908-4.161-1.425-6.428-2.951-12.864-3.927-19.38-.265-1.771-.857-4.128-.295-5.906.5-1.566,2.336-2.968,3.758-3.659,1.937-.942,3.9-1.468,5.668-2.766,1.125-.824,2.2,1.053,1.092,1.868a15.577,15.577,0,0,1-3.473,1.9,21.935,21.935,0,0,0-2.615,1.084,6.593,6.593,0,0,0-2.37,2.221.665.665,0,0,0-.025.11c0,.026-.009.114-.011.119-.006.072-.013.144-.014.216a35.652,35.652,0,0,0,.76,6.619c.566,3.242,1.239,6.465,1.93,9.682.648,3.016,1.325,6.025,1.988,9.038a43.554,43.554,0,0,1,1.01,5.131c.133,1.387-2.031,1.373-2.163,0,0-.031,0-.051-.006-.067M177.43,397.1c-2.649,2.234-5.248,4.527-7.836,6.832q-9.519,8.476-18.765,17.255a198.611,198.611,0,0,0-14.815,15.037c-.9,1.063-2.425-.474-1.529-1.53,2.237-2.637,4.675-5.107,7.118-7.551,6-6.006,12.217-11.805,18.483-17.537,4.781-4.373,9.588-8.728,14.518-12.933-3.239-1.118-6.752-1.447-9.9-2.867-1.268-.572-.167-2.436,1.092-1.868,3.633,1.64,7.769,1.819,11.412,3.463a1.086,1.086,0,0,1,.219,1.7m8.761,46.821q-.094-4.567-.187-9.133l-.269-13.132q-.039-1.9-.078-3.8a3.389,3.389,0,0,1,0-.447c-.036-.3-.086-.6-.122-.9-.519-4.182-.887-8.393-1.021-12.605a57.292,57.292,0,0,1,.169-7.582,14.018,14.018,0,0,1,1.415-5.575,1.082,1.082,0,0,1,1.868,1.092c-1.034,1.807-1.141,4.2-1.253,6.224a77.219,77.219,0,0,0,.09,8.634c.2,3.52.537,7.034.987,10.531.021.165-.015-.486.021.163,0,.053,0,.107,0,.161.021.368.015.741.023,1.11q.048,2.32.1,4.64.211,10.31.423,20.62a1.082,1.082,0,0,1-2.163,0m18.481-67.087a23.108,23.108,0,0,0-15.167,12.02c-.629,1.244-2.494.148-1.868-1.092a25.208,25.208,0,0,1,16.46-13.013c1.355-.326,1.928,1.76.575,2.086M192.705,366.46c-4.738,7.88-10.607,15.032-15.345,22.912a1.082,1.082,0,0,1-1.868-1.092c4.738-7.88,10.607-15.032,15.345-22.912a1.082,1.082,0,0,1,1.868,1.092" transform="translate(-91.519 -288.686)" fill="#7fa8a5"/>
        <path id="Path_2458" data-name="Path 2458" d="M295.986,392.328l-2.035,4.995a1.2,1.2,0,0,1-1.656.589,64.218,64.218,0,0,0-.023,9.037.93.93,0,0,1,.276-.064l2.679-8.036a1.065,1.065,0,0,1,1.147-.742l.029-.014a7.186,7.186,0,0,1,2.305-.48l-2.723-5.285" transform="translate(-234.68 -315.184)" fill="#fff"/>
        <path id="Path_2459" data-name="Path 2459" d="M250.672,485.372a43.548,43.548,0,0,0-3.769,7.961,41.307,41.307,0,0,0-1.614,8.957,118.937,118.937,0,0,0-.555,15.929c1.525-2.748,3.185-5.43,4.819-8.1q4.053-6.616,8.365-13.072.916-1.365,1.866-2.7c-.383-4.661-.717-9.363-.667-14.043-1.056-.29-2.083-.682-3.149-.94a1.008,1.008,0,0,1-.668-1.456l-.146-.09c-1.436,2.555-3.009,5.017-4.482,7.55" transform="translate(-196.555 -383.867)" fill="#ccdcdb"/>
        <path id="Path_2460" data-name="Path 2460" d="M306.309,430.366a1.174,1.174,0,0,1-.338-.022,7.581,7.581,0,0,0-4.163.175l-2.492,7.475a1.045,1.045,0,0,1-.88.737,1.248,1.248,0,0,1-.069.152c-.116.212-.235.421-.354.632l.146.09a1.042,1.042,0,0,1,1.243-.63c.945.229,1.86.563,2.792.838a41.686,41.686,0,0,0,2.854-3.521,7.225,7.225,0,0,0,1.219-2.235,1.064,1.064,0,0,1,1.765-.483c.063-.134.128-.268.2-.4l-1.917-2.808" transform="translate(-239.414 -345.559)" fill="#ccdcdb"/>
        <path id="Path_2461" data-name="Path 2461" d="M336.727,450.864l-3.612-5.289c-.068.133-.133.266-.2.4a1,1,0,0,1,.321,1.057c-.6,2.344-2.618,4.471-4.246,6.282a1.141,1.141,0,0,1,.04.327c-.08,4.029.144,8.078.448,12.1,1.54-2.095,3.112-4.165,4.677-6.25,1.8-2.394,3.586-4.811,5.394-7.222a9.138,9.138,0,0,1-.91-1.466,1.154,1.154,0,0,1-1.915.056" transform="translate(-264.303 -357.961)" fill="#fff"/>
        <path id="Path_2462" data-name="Path 2462" d="M370.231,341.013c-.005-.018-.012-.035-.016-.053l-1.3-5.189-2.162,1.357-24.451,15.348a1.07,1.07,0,0,1,1.1.468l5.883,8.615a.9.9,0,0,1,.047,1.036,9.13,9.13,0,0,0,.911,1.466c6.112-8.153,12.437-16.231,19.985-23.047" transform="translate(-274.997 -269.748)" fill="#fff"/>
        <path id="Path_2463" data-name="Path 2463" d="M198.159,551.518c.063-.107.032-.095,0,0" transform="translate(-159.195 -443.012)" fill="#ffe146"/>
        <path id="Path_2464" data-name="Path 2464" d="M198.009,552.4c0-.01,0-.02,0-.029s0-.01,0,.029" transform="translate(-159.074 -443.752)" fill="#ffe146"/>
        <path id="Path_2465" data-name="Path 2465" d="M197.979,552.546c0,.011,0,.02,0,.031,0,.047,0,.061,0,.059s0-.031,0-.046l0-.044" transform="translate(-159.044 -443.898)" fill="#ffe146"/>
        <path id="Path_2466" data-name="Path 2466" d="M461.733,205.223c1.263-1.054,2.575-1.248,3.562.2a5.166,5.166,0,0,1,.768,3.89c-.6,3.148-3.175,6.44-6.337,7.291a.984.984,0,0,0,.523,1.9,11.5,11.5,0,0,0,7.882-10.144,6.761,6.761,0,0,0-2-4.97c-1.834-1.69-4.048-1-5.784.444-.972.811.425,2.2,1.391,1.39" transform="translate(-368.77 -162.599)" fill="#2e2e2e"/>
        <path id="Path_2467" data-name="Path 2467" d="M384.4,210.685a1.082,1.082,0,0,0,0-2.163,1.082,1.082,0,0,0,0,2.163" transform="translate(-307.976 -167.52)" fill="#2e2e2e"/>
        <path id="Path_2468" data-name="Path 2468" d="M308.755,210.685a1.082,1.082,0,0,0,0-2.163,1.082,1.082,0,0,0,0,2.163" transform="translate(-247.205 -167.52)" fill="#2e2e2e"/>
        <path id="Path_2469" data-name="Path 2469" d="M326.8,218.864a9.23,9.23,0,0,1-.536,3.912,16.816,16.816,0,0,1-1.971,3.181c-1.423,2.212.323,4.093,2.191,5.208a.984.984,0,0,0,.992-1.7c-.683-.407-1.975-1.112-1.72-2.084a3.834,3.834,0,0,1,.807-1.189,10.434,10.434,0,0,0,.885-1.326,10.848,10.848,0,0,0,1.318-6c-.087-1.255-2.054-1.265-1.966,0" transform="translate(-260.107 -175.069)" fill="#2e2e2e"/>
        <path id="Path_2470" data-name="Path 2470" d="M321.739,303.014c2.591,3.259,7.971,2.543,10.579-.28.858-.928-.53-2.322-1.391-1.39-1.944,2.1-5.854,2.725-7.8.28-.787-.99-2.17.409-1.39,1.39" transform="translate(-258.29 -241.843)" fill="#2e2e2e"/>
        <path id="Path_2471" data-name="Path 2471" d="M263.318,204.054c.586,5.4.313,10.886,1.337,16.237a30.384,30.384,0,0,0,5.771,12.66,13.129,13.129,0,0,0,10.335,5.19,18.987,18.987,0,0,0,11.615-3.677c4.3-3.195,7.485-8.2,9.433-13.129.465-1.177-1.435-1.688-1.9-.523a30.085,30.085,0,0,1-7.7,11.269,16.913,16.913,0,0,1-10.36,4.086,11.365,11.365,0,0,1-9.493-3.926,27.829,27.829,0,0,1-5.593-11.43c-1.257-5.485-.882-11.191-1.487-16.757-.135-1.245-2.1-1.258-1.966,0" transform="translate(-211.536 -163.176)" fill="#2e2e2e"/>
        <path id="Path_2472" data-name="Path 2472" d="M332.255,341.318l9.736-6.112,15.449-9.7,3.6-2.261c1.069-.671.084-2.373-.992-1.7l-9.736,6.112-15.449,9.7-3.6,2.26c-1.069.671-.084,2.373.992,1.7" transform="translate(-265.756 -258.199)" fill="#2e2e2e"/>
        <path id="Path_2473" data-name="Path 2473" d="M338.128,422.547l5.883,8.615c.709,1.039,2.414.056,1.7-.993l-5.883-8.615c-.709-1.039-2.414-.056-1.7.992" transform="translate(-271.503 -338.309)" fill="#2e2e2e"/>
        <path id="Path_2474" data-name="Path 2474" d="M477.108,327.11l1.471,5.883a.984.984,0,0,0,1.9-.523L479,326.588a.984.984,0,0,0-1.9.523" transform="translate(-383.266 -261.808)" fill="#2e2e2e"/>
        <path id="Path_2475" data-name="Path 2475" d="M297.02,422.847l-2.732,8.195c-.4,1.2,1.5,1.719,1.9.523l2.732-8.195c.4-1.2-1.5-1.719-1.9-.523" transform="translate(-236.377 -339.156)" fill="#2e2e2e"/>
        <path id="Path_2476" data-name="Path 2476" d="M322.419,447.342a7.273,7.273,0,0,1-1.23,2.259,42.371,42.371,0,0,1-2.93,3.611c-.833.947.553,2.343,1.39,1.391a47.1,47.1,0,0,0,3.237-4.009,8.648,8.648,0,0,0,1.428-2.729.984.984,0,0,0-1.9-.522" transform="translate(-255.473 -358.818)" fill="#2e2e2e"/>
        <path id="Path_2477" data-name="Path 2477" d="M311.882,422.02a7.6,7.6,0,0,1,4.31-.21c1.235.257,1.763-1.638.523-1.9a9.5,9.5,0,0,0-5.355.21c-1.159.468-.652,2.371.523,1.9" transform="translate(-249.61 -337.12)" fill="#2e2e2e"/>
        <path id="Path_2478" data-name="Path 2478" d="M299.413,477.327c1.207.293,2.365.758,3.572,1.051,1.229.3,1.754-1.6.523-1.9-1.207-.293-2.365-.758-3.572-1.051-1.229-.3-1.754,1.6-.523,1.9" transform="translate(-239.975 -381.92)" fill="#2e2e2e"/>
        <path id="Path_2479" data-name="Path 2479" d="M308.425,379.586,312,386.52c.58,1.125,2.277.132,1.7-.992l-3.572-6.934c-.58-1.125-2.277-.132-1.7.992" transform="translate(-247.684 -303.753)" fill="#2e2e2e"/>
        <path id="Path_2480" data-name="Path 2480" d="M288.579,101.307a10.79,10.79,0,0,0-13.965,2.771,31.612,31.612,0,0,0-1.818,3.16,45.437,45.437,0,0,1-2.581,4.111c-1.7,2.388-3.971,5.139-7.1,5.475-1.245.134-1.258,2.1,0,1.966,5.932-.639,9.464-7.028,12.02-11.733a9.365,9.365,0,0,1,4.666-4.612,8.84,8.84,0,0,1,7.78.56.984.984,0,0,0,.992-1.7" transform="translate(-210.629 -80.222)" fill="#323232"/>
        <path id="Path_2481" data-name="Path 2481" d="M268.665,34.98a16.911,16.911,0,0,0-15.68-8.472,25.442,25.442,0,0,0-17.63,8.328c-1.521,1.746-2.392,4.026-4.158,5.556-1.572,1.363-3.937,2.242-5.946,1.347-1.146-.51-2.147,1.183-.992,1.7,3.48,1.55,7.331-.131,9.567-2.993,1.277-1.634,2.157-3.5,3.634-4.982a23.872,23.872,0,0,1,4.3-3.393c5.072-3.158,11.619-4.721,17.413-2.744a14.4,14.4,0,0,1,7.8,6.648.984.984,0,0,0,1.7-.992" transform="translate(-179.75 -21.284)" fill="#323232"/>
        <path id="Path_2482" data-name="Path 2482" d="M411.13,130.265c2.318.843,2.239,4.53,2.531,6.521.417,2.84,1.309,5.746,4.093,7.08,1.136.544,2.135-1.151.992-1.7-5.446-2.608-1.137-11.634-7.095-13.8-1.191-.433-1.7,1.466-.523,1.9" transform="translate(-329.751 -103.076)" fill="#323232"/>
        <path id="Path_2483" data-name="Path 2483" d="M455.233,82.316c3.959-.03,6.291,4.956,6.906,8.259A20.96,20.96,0,0,1,461,102.2c-.5,1.148,1.191,2.15,1.7.992a22.994,22.994,0,0,0,1.237-13.64c-.908-4.079-3.982-9.239-8.7-9.2a.984.984,0,0,0,0,1.966" transform="translate(-364.957 -64.55)" fill="#323232"/>
        <path id="Path_2484" data-name="Path 2484" d="M243.967,118.182c-1.737,3.508-.9,7.776,1.086,11.01.661,1.077,2.362.09,1.7-.992-1.591-2.593-2.5-6.168-1.086-9.025.56-1.13-1.136-2.128-1.7-.992" transform="translate(-195.238 -94.541)" fill="#323232"/>
        <path id="Path_2485" data-name="Path 2485" d="M318.627,482.723a146.711,146.711,0,0,0,.673,14.956c.1,1.252,2.071,1.263,1.966,0a146.7,146.7,0,0,1-.673-14.956.984.984,0,0,0-1.966,0" transform="translate(-255.961 -387.042)" fill="#2e2e2e"/>
        <path id="Path_2486" data-name="Path 2486" d="M284.687,354.006c-10.636,9.092-18.814,20.743-27.161,31.862-2.875,3.83-5.775,7.608-8.444,11.586q-4.309,6.424-8.338,13.031a131.4,131.4,0,0,0-7.06,12.429c-.537,1.138,1.158,2.138,1.7.992a119.113,119.113,0,0,1,6.011-10.706q4.013-6.637,8.293-13.109c2.471-3.738,5.084-7.332,7.786-10.9,4.282-5.662,8.467-11.4,12.9-16.949a121.587,121.587,0,0,1,15.709-16.84c.963-.823-.433-2.209-1.39-1.39" transform="translate(-187.652 -284.196)" fill="#2e2e2e"/>
        <path id="Path_2487" data-name="Path 2487" d="M248.052,526.866c3.641,1.648,7.781,1.819,11.412,3.462l-.2-1.544c-5.388,4.544-10.618,9.282-15.818,14.039-6.266,5.732-12.481,11.532-18.486,17.539-2.442,2.443-4.878,4.91-7.113,7.546-.814.96.57,2.357,1.39,1.39a198.437,198.437,0,0,1,14.818-15.041q9.236-8.786,18.767-17.257c2.586-2.3,5.183-4.594,7.831-6.827a.987.987,0,0,0-.2-1.544c-3.641-1.648-7.781-1.819-11.412-3.463-1.144-.518-2.145,1.176-.992,1.7" transform="translate(-174.814 -421.825)" fill="#2e2e2e"/>
        <path id="Path_2488" data-name="Path 2488" d="M245.484,467.326c-1.431,2.607-2.987,5.12-4.526,7.661A57.334,57.334,0,0,0,237.025,483a33.765,33.765,0,0,0-1.867,8.823c-.425,3.631-.623,7.29-.706,10.944-.077,3.407-.083,6.833.181,10.233.1,1.254,2.064,1.264,1.966,0a112.559,112.559,0,0,1,.362-19.664,40.805,40.805,0,0,1,1.617-8.888,42.136,42.136,0,0,1,2.13-4.8c.524-1.091,1.068-2.174,1.68-3.22,1.587-2.713,3.278-5.348,4.792-8.107.609-1.11-1.088-2.1-1.7-.992" transform="translate(-188.314 -375.045)" fill="#2e2e2e"/>
        <path id="Path_2489" data-name="Path 2489" d="M220.153,438.213c-4.334,4.564-10.184,7.628-13.888,12.8-.738,1.031.967,2.014,1.7.992,3.585-5.01,9.379-7.981,13.58-12.406.871-.917-.517-2.31-1.39-1.39" transform="translate(-165.562 -351.804)" fill="#2e2e2e"/>
        <path id="Path_2490" data-name="Path 2490" d="M196.608,515.541c-1.741,1.279-3.67,1.819-5.587,2.727a8.339,8.339,0,0,0-2.374,1.7,5.449,5.449,0,0,0-1.412,1.917c-.563,1.755.018,4.076.28,5.829.976,6.543,2.511,13.007,3.941,19.462.306,1.382.614,2.763.9,4.148.1.476.2.953.289,1.432.032.172.062.345.092.518.062.358,0-.082.024.171.119,1.249,2.086,1.261,1.966,0a44.077,44.077,0,0,0-1.032-5.221c-.66-3-1.334-6-1.979-9-.7-3.253-1.378-6.512-1.946-9.79a33.7,33.7,0,0,1-.729-6.505c0-.078.009-.157.017-.235.019-.2-.022.211.012-.072.039-.317-.022-.049.031-.138a6.549,6.549,0,0,1,2.337-2.218,21.848,21.848,0,0,1,2.766-1.156,15.324,15.324,0,0,0,3.392-1.867c1.009-.742.029-2.449-.992-1.7" transform="translate(-150.228 -414.02)" fill="#2e2e2e"/>
        <path id="Path_2491" data-name="Path 2491" d="M476.879,570.5q-.211-10.31-.423-20.619-.048-2.337-.1-4.674c-.007-.361,0-.726-.022-1.087,0-.051,0-.1,0-.152-.023-.656.018.146-.025-.188q-.684-5.3-.991-10.645a76.154,76.154,0,0,1-.077-8.585c.115-2.017.231-4.384,1.262-6.181a.984.984,0,0,0-1.7-.992,13.973,13.973,0,0,0-1.409,5.594,57.76,57.76,0,0,0-.161,7.518c.134,4.206.5,8.411,1.02,12.587.046.375.117.755.147,1.132-.039-.5-.027,0-.023.2l.077,3.742q.135,6.571.269,13.142l.189,9.208a.984.984,0,0,0,1.966,0" transform="translate(-380.142 -415.259)" fill="#2e2e2e"/>
        <path id="Path_2492" data-name="Path 2492" d="M172.666,409.071c-3.6,1.23-7.353,2.029-10.862,3.531-2.719,1.164-5.123,2.784-6.415,5.519-1.917,4.056-4.044,8.024-6.08,12.022q-1.117,2.193-2.235,4.384c-.574,1.125,1.122,2.121,1.7.992q2.626-5.145,5.241-10.3c.947-1.866,1.9-3.73,2.827-5.607a13.693,13.693,0,0,1,.973-1.844,9.557,9.557,0,0,1,3.585-2.823c3.7-1.891,7.882-2.648,11.79-3.982,1.191-.406.68-2.306-.523-1.9" transform="translate(-118.061 -328.589)" fill="#2e2e2e"/>
        <path id="Path_2493" data-name="Path 2493" d="M442.238,388.314c-4.736,7.881-10.608,15.031-15.345,22.912a.984.984,0,0,0,1.7.992c4.736-7.881,10.608-15.031,15.345-22.912a.984.984,0,0,0-1.7-.992" transform="translate(-342.834 -311.582)" fill="#2e2e2e"/>
        <path id="Path_2494" data-name="Path 2494" d="M508.135,364.023c4.631,3.681,8.466,8.3,13.406,11.6,3.637,2.431,8.356,4.378,10.522,8.419a7.477,7.477,0,0,1,.747,2.187c.037.2-.022-.229.01.08.015.139.03.279.042.419.067.743.1,1.489.133,2.234.1,2.322.129,4.647.154,6.971.071,6.68.035,13.36-.016,20.04q-.077,10.085-.227,20.169c-.049,3.472-.266,6.982-.164,10.454,0,.05,0,.1,0,.152a.984.984,0,0,0,1.966,0q.079-4.413.141-8.827.145-9.845.234-19.69c.059-6.887.1-13.775.049-20.662-.019-2.544-.048-5.089-.132-7.633a29.847,29.847,0,0,0-.313-4.352c-.826-4.515-5.192-7.362-8.809-9.581a52.24,52.24,0,0,1-6.389-4.38c-2.268-1.9-4.351-4.007-6.522-6.016-1.113-1.03-2.252-2.029-3.44-2.973-.981-.779-2.381.6-1.39,1.39" transform="translate(-407.948 -291.143)" fill="#2e2e2e"/>
        <path id="Path_2495" data-name="Path 2495" d="M490.481,452.027a23.188,23.188,0,0,1,15.226-12.065c1.23-.3.709-2.192-.523-1.9a25.1,25.1,0,0,0-16.4,12.968c-.568,1.127,1.127,2.124,1.7.992" transform="translate(-392.581 -351.904)" fill="#2e2e2e"/>
        <path id="Path_2496" data-name="Path 2496" d="M293.308,383.413,291,389.086c-.477,1.171,1.424,1.681,1.9.523l2.311-5.673c.477-1.171-1.424-1.681-1.9-.522" transform="translate(-233.717 -307.497)" fill="#2e2e2e"/>
        <path id="Path_2497" data-name="Path 2497" d="M319.415,366.87l.32,4.961c.081,1.256,2.048,1.266,1.966,0l-.32-4.961c-.081-1.256-2.048-1.266-1.966,0" transform="translate(-256.606 -293.972)" fill="#2e2e2e"/>
        <path id="Path_2498" data-name="Path 2498" d="M461.708,286.844q.239,3.814.477,7.629c.079,1.257,2.046,1.266,1.966,0q-.239-3.815-.477-7.629c-.079-1.257-2.046-1.266-1.966,0" transform="translate(-370.92 -229.682)" fill="#2e2e2e"/>
        <path id="Path_2499" data-name="Path 2499" d="M36.092,354.948a13.856,13.856,0,0,1,2.361-7.7c2.418-4.1,6.82-9.152,4.783-14.27-.56-1.406-1.479-2.642-2.094-4.024a8.686,8.686,0,0,1-.641-4.658c.123-1.181.459-3.614-1.192-3.981-1.115-.247-1.591,1.011-1.624,1.919a25.353,25.353,0,0,1,.793,4.912,15.242,15.242,0,0,1-.309,5.72,4.4,4.4,0,0,1-4.128,3.105,9.1,9.1,0,0,1-1.05-.251l-.01.011a3.962,3.962,0,0,1-1.76,1.029,4.246,4.246,0,0,1-4.8-1.409,1.179,1.179,0,0,0-.891-.466c1.894,1.966,4.273,3.734,4.569,6.547a21.681,21.681,0,0,1-.8,7.119c-.326,1.355-2.411.778-2.086-.575a19.561,19.561,0,0,0,.741-6.328c-.144-1.434-1.29-2.512-2.239-3.5a31.93,31.93,0,0,1-3.345-3.7,1.057,1.057,0,0,1-.176-.4,1.108,1.108,0,0,1-.32-.343,20.814,20.814,0,0,1-1.72-4.107,13.345,13.345,0,0,1-.574-2.01,5.866,5.866,0,0,0-.677-2.551c-.768-1.167,1.105-2.249,1.868-1.092.966,1.467.8,3.032,1.311,4.6a22.3,22.3,0,0,0,1.383,3.577,1.067,1.067,0,0,1,.356.269c.338.38,1.184.378,1.912.4a46.617,46.617,0,0,0-.539-7.8c-.157-1.383,2.008-1.367,2.163,0a41.841,41.841,0,0,1,.5,8.42,1.205,1.205,0,0,1-.052.259c.115.129.227.266.343.408a2.29,2.29,0,0,0,3.333.071,1.182,1.182,0,0,1-.053-.2c-.5-3.071,0-6.166-.99-9.163-.438-1.327,1.652-1.891,2.086-.575,1,3.033.485,6.076.99,9.163a1.223,1.223,0,0,1,.016.228,1.59,1.59,0,0,0,1,.191,2.055,2.055,0,0,0,1.011-.662c1.152-1.257.906-3.549.83-5.12a24.09,24.09,0,0,0-.761-5.152,1.11,1.11,0,0,1-.076-.279,4.112,4.112,0,0,0-.459-1.139,7.28,7.28,0,0,0-.548-.52,3.769,3.769,0,0,0-1.3-.685,7.181,7.181,0,0,0-2.83.03,20.735,20.735,0,0,1-2.347.03c-1.18-.038-2.466-.367-3.58-.292a24.281,24.281,0,0,0-3.63.746c-.951.213-1.96-.233-2.953-.1-1.5.2-2.2,1.283-2.524,2.82a18.725,18.725,0,0,0,.23,6.691c.468,2.863,1.161,5.687,1.875,8.5.707,2.782,1.463,5.553,2.086,8.355a25.54,25.54,0,0,1,.868,6.459,1.119,1.119,0,0,1-1.609.941c-.031.455-.05.916-.084,1.37a35.884,35.884,0,0,0,18.432,1.043v-.83a1.083,1.083,0,0,1-1.071-1.039" transform="translate(-12.167 -257.065)" fill="#fff"/>
        <path id="Path_2500" data-name="Path 2500" d="M13.349,510.877q-.031.483-.061.967c-.588,9.115-1.23,18.226-1.839,27.34-.265,3.971-.53,7.942-.765,11.915-.2,3.345-.575,6.832.129,10.135a8.623,8.623,0,0,0,2.814,5.071c1.966,1.592,4.666,2.032,7.117,2.124,4.123.155,8.429-.821,10.66-4.6,1.843-3.123,2.144-7.079,2.355-10.618.308-5.157.129-10.34.321-15.5.187-5.02.439-10.037.661-15.055.156-3.541.16-7.1.329-10.643a37.937,37.937,0,0,1-21.722-1.131" transform="translate(-8.359 -410.423)" fill="#cacaca"/>
        <path id="Path_2501" data-name="Path 2501" d="M121.783,347.81c-.158-2.863,1.258-5.373,2.729-7.725,1.578-2.524,3.325-4.993,4.255-7.851a12.031,12.031,0,0,0,.6-4.382,11.036,11.036,0,0,0-1.64-4.849c-.9-1.6-1.743-3.075-1.619-4.974.124-1.915.536-3.808-.709-5.467a3.263,3.263,0,0,0-3.985-1.186,4,4,0,0,0-2.17,3.947c.069,1.258,2.036,1.267,1.966,0-.051-.938.418-2.448,1.65-2.266,1.695.25,1.513,2.643,1.39,3.836a8.967,8.967,0,0,0,.512,4.668c.586,1.38,1.464,2.607,2.072,3.975,2.294,5.158-2.117,10.335-4.593,14.486-1.413,2.37-2.583,4.969-2.428,7.789.069,1.258,2.036,1.266,1.966,0" transform="translate(-95.793 -249.927)" fill="#2e2e2e"/>
        <path id="Path_2502" data-name="Path 2502" d="M14.067,325.425a3.781,3.781,0,0,0,2.6.89c.789.08,1.088-.013,1.558.578a4.169,4.169,0,0,0,4.842,1.293,3.554,3.554,0,0,0,1.628-1.037c.437-.527-.2.192-.275-.085.077.278,1.3.389,1.5.391a4.363,4.363,0,0,0,3.907-3.207,16.436,16.436,0,0,0,.256-5.559,23.086,23.086,0,0,0-.969-5.459,5.113,5.113,0,0,0-3.068-3.215c-1.855-.759-3.762-.179-5.691-.2-.815-.01-1.639-.038-2.45-.129a9.871,9.871,0,0,0-1.656-.182,15.034,15.034,0,0,0-2.31.356,10.727,10.727,0,0,0-1.964.475.982.982,0,0,1-.164.045c.585-.13.273-.025.006-.1a6.049,6.049,0,0,0-1.047-.136,6.778,6.778,0,0,0-1.757.083,4.6,4.6,0,0,0-2.506,1.319c-1.52,1.589-1.731,4.056-1.682,6.141a44.838,44.838,0,0,0,1.307,8.742c.8,3.538,1.774,7.032,2.635,10.554a29.647,29.647,0,0,1,1.3,8.053c-.052,1.265,1.915,1.263,1.966,0a25.261,25.261,0,0,0-.856-6.393c-.616-2.779-1.365-5.527-2.066-8.284-.719-2.827-1.42-5.667-1.894-8.547a19.1,19.1,0,0,1-.247-6.767c.316-1.547,1.033-2.7,2.556-2.922,1-.145,2.025.316,2.973.1a23.009,23.009,0,0,1,3.751-.761c1.138-.061,2.426.266,3.617.3a19.891,19.891,0,0,0,2.33-.041,6.94,6.94,0,0,1,2.775-.019,3.859,3.859,0,0,1,1.359.734,5.1,5.1,0,0,1,.615.57c-.221-.272.029.1-.051-.024a6.088,6.088,0,0,1,.535,1.478,24.459,24.459,0,0,1,.74,5.008c.082,1.561.331,3.869-.738,5.164a1.844,1.844,0,0,1-2.38.574,1.529,1.529,0,0,0-1.606.4c-1.036.963-2.656,1.345-3.654.119a2.891,2.891,0,0,0-1.481-1.187c-.708-.195-2.343.077-2.851-.506-.834-.955-2.22.441-1.39,1.39" transform="translate(-3.872 -248.639)" fill="#2e2e2e"/>
        <path id="Path_2503" data-name="Path 2503" d="M51.613,387.425a30.9,30.9,0,0,0,3.3,3.646c.965,1,2.15,2.115,2.3,3.573a19.71,19.71,0,0,1-.741,6.387c-.3,1.23,1.6,1.754,1.9.523a21.547,21.547,0,0,0,.791-7.106c-.37-3.476-4-5.36-5.843-8.015-.716-1.033-2.421-.051-1.7.992" transform="translate(-41.323 -310.096)" fill="#2e2e2e"/>
        <path id="Path_2504" data-name="Path 2504" d="M66.728,341.577a41.711,41.711,0,0,1,.5,8.42c-.114,1.26,1.853,1.252,1.966,0a41.711,41.711,0,0,0-.5-8.42c-.141-1.243-2.109-1.257-1.966,0" transform="translate(-53.601 -273.659)" fill="#2e2e2e"/>
        <path id="Path_2505" data-name="Path 2505" d="M93.161,339.3c.993,3,.483,6.091.991,9.163.206,1.245,2.1.717,1.9-.523-.51-3.086.014-6.131-.99-9.163-.4-1.2-2.3-.683-1.9.523" transform="translate(-74.799 -271.62)" fill="#2e2e2e"/>
        <path id="Path_2506" data-name="Path 2506" d="M34.016,339.525a5.759,5.759,0,0,1,.683,2.55,12.97,12.97,0,0,0,.566,2,20.577,20.577,0,0,0,1.722,4.119c.662,1.076,2.363.09,1.7-.992a19.008,19.008,0,0,1-1.668-4.081c-.51-1.574-.337-3.128-1.3-4.586-.7-1.05-2.4-.066-1.7.992" transform="translate(-27.194 -271.606)" fill="#2e2e2e"/>
        <path id="Path_2507" data-name="Path 2507" d="M8.046,503.149c-.742,11.952-2.757,39.912-2.989,46.1-.265,7.1,1.317,11.974,7.466,13.535a18.654,18.654,0,0,0,3.9.52c11.878.444,13.265-7.739,13.9-13.854.4-3.821.339-7.551.355-11.49.024-7.476,1.171-25.6,1.2-33.071l.031-.507a36.06,36.06,0,0,1-14.767,1.175,36.717,36.717,0,0,1-6.833-1.576q-1.135-.377-2.266-.831" transform="translate(-4.04 -404.214)" fill="#7fa8a5"/>
        <path id="Path_2508" data-name="Path 2508" d="M26.888,500.274c-.252,4.07-.234,8.174-.414,12.25-.219,4.951-.467,9.9-.652,14.853-.191,5.126-.019,10.268-.314,15.387-.207,3.588-.5,7.612-2.367,10.783-2.216,3.769-6.475,4.8-10.6,4.671-2.5-.077-5.24-.5-7.263-2.091a8.588,8.588,0,0,1-2.892-5.045c-.742-3.328-.367-6.843-.167-10.218.234-3.967.5-7.933.763-11.9.61-9.128,1.253-18.254,1.841-27.383q.082-1.27.161-2.54l-1.244.948a37.878,37.878,0,0,0,24.388,1.232.984.984,0,0,0-.523-1.9,36.106,36.106,0,0,1-23.343-1.232c-.634-.252-1.209.377-1.244.948-.571,9.179-1.225,18.353-1.842,27.529C.887,530.925.6,535.279.33,539.636a54.1,54.1,0,0,0-.107,10.4,12.373,12.373,0,0,0,2.366,6.161,10.268,10.268,0,0,0,5.505,3.4c4.649,1.234,10.587.943,14.419-2.26,2.783-2.327,3.921-5.956,4.438-9.423.807-5.411.583-10.865.705-16.315.217-9.653.945-19.289,1.141-28.944.016-.791.007-1.584.056-2.374.078-1.264-1.888-1.259-1.966,0" transform="translate(0 -400.107)" fill="#323232"/>
        <path id="Path_2509" data-name="Path 2509" d="M152.369,681.283l.124,18.37q.009,1.305.018,2.611a.984.984,0,0,0,1.966,0l-.124-18.37-.018-2.611a.984.984,0,0,0-1.966,0" transform="translate(-122.408 -546.559)" fill="#2e2e2e"/>
      </g>
    </g>
  </g>
</svg>
