<svg xmlns="http://www.w3.org/2000/svg" xmlns:xlink="http://www.w3.org/1999/xlink" width="245" height="245" viewBox="0 0 245 245">
  <defs>
    <clipPath id="clip-path">
      <rect id="Rectangle_3623" data-name="Rectangle 3623" width="136.261" height="126.872" fill="none"/>
    </clipPath>
  </defs>
  <g id="Group_2899" data-name="Group 2899" transform="translate(-892 -1071.908)">
    <circle id="Ellipse_13" data-name="Ellipse 13" cx="122.5" cy="122.5" r="122.5" transform="translate(892 1071.908)" fill="#ccdcdb"/>
    <text id="共感する力" transform="translate(1015 1113.908)" fill="#333" font-size="24" font-family="NotoSerifJP-Regular, Noto Serif JP"><tspan x="-60" y="0">共感する力</tspan></text>
    <g id="Group_2876" data-name="Group 2876" transform="translate(947 1145.551)">
      <g id="Group_2875" data-name="Group 2875" clip-path="url(#clip-path)">
        <path id="Path_2217" data-name="Path 2217" d="M179.9,190.882c-.1.231-.054.148,0,0" transform="translate(-81.124 -86.103)" fill="#646464"/>
        <path id="Path_2218" data-name="Path 2218" d="M89.55,216.546q.638-3.181,1.323-6.352c-.289.213-.567.408-.76.574a12.442,12.442,0,0,0-1.867,2.035,1.289,1.289,0,0,1,.576.775q.341,1.489.727,2.968" transform="translate(-39.806 -94.814)" fill="#fff"/>
        <path id="Path_2219" data-name="Path 2219" d="M133.384,167.523a1.161,1.161,0,0,1-.252,1.545l-7.093,6.283a1.391,1.391,0,0,1-2.294-.605c-.049-.153-.1-.3-.158-.455-.029-.076-.059-.152-.089-.228q-.213-.487-.457-.96c-.353-.689-.742-1.359-1.147-2.018-.728-1.184-1.489-2.325-2.274-3.441q-.372,1.206-.761,2.407c-.34,1.044-.69,2.085-1.073,3.115-.211.568-.423,1.147-.676,1.7a1.489,1.489,0,0,1,.231.732c0,.018,0,.034,0,.051.384,1.1.693,2.227.973,3.358.992,4.01,1.7,8.095,2.342,12.174.3,1.929.6,3.865.852,5.8q1.691-2.836,3.24-5.754a286.063,286.063,0,0,0,12.1-26.8Z" transform="translate(-52.826 -74.173)" fill="#fff"/>
        <path id="Path_2220" data-name="Path 2220" d="M140.509,138.609a1.544,1.544,0,0,1-.187-.366q-.218-.643-.437-1.286l-2.4-7.04c-5.972,6.066-13.794,10.113-21.43,13.754l.147.176c1.866,2.267,3.678,4.585,5.379,6.978a38.806,38.806,0,0,1,3.552,5.675l5.581-4.944a1.428,1.428,0,0,1,2.193.4l3.46-3.087c1.385-3.418,2.754-6.842,4.139-10.257" transform="translate(-52.351 -58.603)" fill="#fff"/>
        <path id="Path_2221" data-name="Path 2221" d="M96.674,115.845c.007,0,.03-.01.056-.054l.011-.019c-.015.019-.032.037-.047.054l-.02.019" transform="translate(-43.607 -52.222)" fill="#646464"/>
        <path id="Path_2222" data-name="Path 2222" d="M97.323,114.342c-.007.014-.007.022-.013.035v.013c.005-.015.007-.035.013-.048" transform="translate(-43.894 -51.577)" fill="#646464"/>
        <path id="Path_2223" data-name="Path 2223" d="M95.736,111.056c-.033-.008-.066-.021-.1-.032l.017.01.082.022" transform="translate(-43.14 -50.08)" fill="#646464"/>
        <path id="Path_2224" data-name="Path 2224" d="M95.541,110.988c-.064-.039-.13-.049-.111-.035.037.013.075.024.113.036h0" transform="translate(-43.045 -50.046)" fill="#646464"/>
        <path id="Path_2225" data-name="Path 2225" d="M97.277,114.506c0-.026,0-.052,0-.078a.85.85,0,0,0-.034.121c0,.046.025.043.029-.043" transform="translate(-43.866 -51.616)" fill="#646464"/>
        <path id="Path_2226" data-name="Path 2226" d="M96.868,115.621c-.026.022-.037.035-.055.052l-.018.031a.568.568,0,0,1,.073-.083" transform="translate(-43.662 -52.154)" fill="#646464"/>
        <path id="Path_2227" data-name="Path 2227" d="M95.23,116.363c.029,0,.059,0,.089,0l-.014,0c-.023,0-.047,0-.076,0" transform="translate(-42.956 -52.487)" fill="#646464"/>
        <path id="Path_2228" data-name="Path 2228" d="M93.663,111.592c.023-.019.03-.028.047-.043l.005-.009c-.017.017-.034.037-.052.052" transform="translate(-42.249 -50.313)" fill="#646464"/>
        <path id="Path_2229" data-name="Path 2229" d="M95.459,116.382c.082.022.122,0,.042-.015-.037,0-.072,0-.109,0l.067.016" transform="translate(-43.029 -52.49)" fill="#646464"/>
        <path id="Path_2230" data-name="Path 2230" d="M137.506,12.539h0c.168.233.056.065,0,0" transform="translate(-62.025 -5.656)" fill="#646464"/>
        <path id="Path_2231" data-name="Path 2231" d="M155.708,74.731c.1-.008.058-.006,0,0" transform="translate(-70.236 -33.707)" fill="#646464"/>
        <path id="Path_2232" data-name="Path 2232" d="M93.284,112.678c0,.011,0,.022,0,.033.011-.043.02-.086.027-.131-.01.01-.021.036-.026.1" transform="translate(-42.078 -50.782)" fill="#646464"/>
        <path id="Path_2233" data-name="Path 2233" d="M78.511,58.764a.559.559,0,0,1-.073.034.529.529,0,0,0,.073-.034" transform="translate(-35.382 -26.507)" fill="#646464"/>
        <path id="Path_2234" data-name="Path 2234" d="M78.363,58.829l-.015,0c-.121.044-.054.023.015,0" transform="translate(-35.311 -26.536)" fill="#646464"/>
        <path id="Path_2235" data-name="Path 2235" d="M104.656,152.045l.016.006L104.56,152c.031.014.068.031.1.041" transform="translate(-47.165 -68.566)" fill="#646464"/>
        <path id="Path_2236" data-name="Path 2236" d="M104.85,152.129l-.053-.024-.035-.014.088.038" transform="translate(-47.256 -68.605)" fill="#646464"/>
        <path id="Path_2237" data-name="Path 2237" d="M79.355,159.145l-.08.013c.15-.013.133-.02.08-.013" transform="translate(-35.759 -71.785)" fill="#646464"/>
        <path id="Path_2238" data-name="Path 2238" d="M104.532,151.991l0,0-.029-.013.025.012" transform="translate(-47.141 -68.554)" fill="#646464"/>
        <path id="Path_2239" data-name="Path 2239" d="M104.487,151.969l.011.005-.011-.005" transform="translate(-47.132 -68.55)" fill="#646464"/>
        <path id="Path_2240" data-name="Path 2240" d="M93.271,112.836c0-.006,0-.013,0-.019a.289.289,0,0,1-.014.053.32.32,0,0,0,.014-.035" transform="translate(-42.066 -50.889)" fill="#646464"/>
        <path id="Path_2241" data-name="Path 2241" d="M93.275,111.955c-.007.106-.011.212-.008.318,0,.053.007.105.01.159.028.12.052.24.087.358.019.062.041.122.063.183.057.1.108.207.171.307.019.03.054.072.081.113.071.078.141.157.219.229.238.117.1.09,0,0l0,0-.044-.023a1.175,1.175,0,0,1,.12.084c.076.049.193.1.273.152l.047.015c.041.013.083.022.125.032a.733.733,0,0,1,.122,0l.127,0c.03-.007.059-.013.089-.021s.055-.017.083-.026c.064-.041.132-.078.2-.116l.1-.1c-.007,0,.017-.04.085-.1.046-.078.092-.156.136-.236.014-.034.03-.069.04-.1a2.277,2.277,0,0,0,.055-.25.368.368,0,0,1,.035-.134c0-.037.005-.074.007-.111,0-.12,0-.238-.009-.357-.011-.054-.021-.108-.033-.161-.031-.123-.126-.307-.145-.443l0-.009c-.025-.048-.05-.094-.077-.141-.038-.065-.082-.128-.122-.192-.079-.086-.156-.173-.242-.253-.205-.106-.108-.1,0,0h0l.047.024a1.609,1.609,0,0,1-.152-.1c-.055-.035-.114-.065-.17-.1a.575.575,0,0,1-.13-.046,1.3,1.3,0,0,0-.126-.04l-.045-.012-.079,0a1,1,0,0,0-.11.009c-.074.024-.149.048-.223.066-.024.013-.048.026-.072.04s-.048.031-.072.048c-.037.038-.073.081-.11.122a.44.44,0,0,1-.087.091c-.026.044-.055.087-.08.131s-.035.068-.053.1c-.031.093-.064.186-.088.281a.4.4,0,0,0-.008.049c.017-.018.023.036-.027.149" transform="translate(-42.07 -50.009)" fill="#fff"/>
        <path id="Path_2242" data-name="Path 2242" d="M93.84,111.378c.016-.032-.027-.012-.07.064l-.011.018c.027-.027.055-.052.081-.082" transform="translate(-42.293 -50.234)" fill="#646464"/>
        <path id="Path_2243" data-name="Path 2243" d="M79.289,190.88c.035-.172.011-.065,0,0" transform="translate(-35.765 -86.06)" fill="#646464"/>
        <path id="Path_2244" data-name="Path 2244" d="M63.878,192.105a41.481,41.481,0,0,1,2.219-4.989,19.819,19.819,0,0,1,4.594-6.274,9.875,9.875,0,0,0,2.4-2.3,9,9,0,0,0,1.168-3.13c.659-3.2.227-6.583.126-9.94-.335.516-.734,1-1.095,1.474-.946,1.236-2.9,3.723-4.815,4.116-.014.294-.035.587-.07.883a3.855,3.855,0,0,1-2.772,3.443,4.336,4.336,0,0,1-2.667-.239,21.944,21.944,0,0,1,.979,5.295c.08,1.769-2.665,1.759-2.745,0a26.332,26.332,0,0,0-2.048-7.92c-.435-1.123-.857-2.136-1.371-3.224a1.449,1.449,0,0,1-.932.078,1.383,1.383,0,0,1-.82-.631,1.4,1.4,0,0,1-.138-1.057,1.443,1.443,0,0,1,.631-.82l2.836-1.828a1.366,1.366,0,0,1,2.028,1.476c.012.051.021.1.029.154a.175.175,0,0,1,0,.025c0,.012.005.024.007.037l0,.028c.032.206.06.414.094.62.11.683.242,1.364.406,2.037a9.457,9.457,0,0,0,.606,1.87,2.631,2.631,0,0,0,1.028,1.118,1.97,1.97,0,0,0,1.231.353.679.679,0,0,0,.348-.1,1.134,1.134,0,0,0,.255-.2c.048-.061.22-.445.222-.405.02-.076.037-.151.053-.228l0-.016c.016-.141.027-.282.037-.423.041-.592.048-1.187.036-1.78-.006-.307-.045-.619-.043-.926,0-.014,0-.018,0-.029-.018-.143-.038-.285-.058-.428l-.343-2.548c-.2-1.482-.371-2.971-.6-4.45-.048-.31-.14-1.247-.433-1.357-.269-.1-.764.129-1.019.195l-1.438.372-6.145,1.589a1.373,1.373,0,0,1-.73-2.646c2.653-.686,5.3-1.411,7.962-2.058a3.292,3.292,0,0,1,3.475.788,4.69,4.69,0,0,1,.977,2.408c.282,1.854.5,3.72.75,5.579.093.686.184,1.368.256,2.05a6.035,6.035,0,0,0,1.222-1.037,22.774,22.774,0,0,0,2.492-3.139c.358-.524.36-.54.1-1.067q-.413-.838-.845-1.667c-.71-1.36-1.455-2.7-2.282-4-.631-.988-1.478-2.633-2.753-2.869a2.547,2.547,0,0,0-.647-.018l-.055.009c-.211.037-.422.07-.633.1l-9.921,1.64a1.4,1.4,0,0,1-1.688-.958,1.383,1.383,0,0,1,.958-1.688l5.77-.953c1.652-.273,3.3-.569,4.957-.82a5.1,5.1,0,0,1,4.975,2.181,33.185,33.185,0,0,1,2.9,4.511c.284.513.552,1.035.823,1.555.008-.007.012-.015.02-.022a5.912,5.912,0,0,0,1.786-2.717,2.907,2.907,0,0,0,0-1.208c-.03-.22-.058-.441-.1-.659-.025-.122-.052-.244-.086-.365l-.026-.093c-.141-.291-.371-.426-.743-.651-.542-.327-1.087-.65-1.631-.975l-3.612-2.159c-1.912-1.143-4.072-2.8-6.429-2.591a13.41,13.41,0,0,0-5.047,2.1,42.154,42.154,0,0,1-5.112,2.8A1.256,1.256,0,0,1,51.405,153l-.436.221a1.255,1.255,0,0,1-.008,1.864c-1.846,1.755-1.572,4.524-1.028,6.78a66.487,66.487,0,0,1,1.529,6.964,39.924,39.924,0,0,1,.3,6.828,33.7,33.7,0,0,1-2.643,12.333l13.4,5.769h2.23a1.376,1.376,0,0,1-.872-1.654" transform="translate(-22.155 -66.971)" fill="#fff"/>
        <path id="Path_2245" data-name="Path 2245" d="M24.365,194.3l2.4,1.031.036.015a26.645,26.645,0,0,0,1.9-6.485,36.722,36.722,0,0,0-.119-13.434c-.5-2.5-1.451-4.911-1.607-7.479-.016-.26-.018-.522-.013-.784l-1.773.76a1.373,1.373,0,0,1-.517,1.822c-1.878.818-3.863,1.391-5.664,2.374a17.882,17.882,0,0,0-4.56,3.536,18.875,18.875,0,0,0-4.169,7.867c-.835,2.874-1.63,5.76-2.417,8.647q-1.364,5-2.68,10.022H19.56l2.789-7.072a1.406,1.406,0,0,1,2.016-.82" transform="translate(-2.338 -75.404)" fill="#7fa8a5"/>
        <path id="Path_2246" data-name="Path 2246" d="M100.527,153.52a1.381,1.381,0,0,1-1.688.958c-.357-.125-.706-.278-1.053-.426a20.311,20.311,0,0,1-4.826-2.864c-.282-.037-.563-.075-.84-.109l.335.2a26.422,26.422,0,0,1,3.883,2.419,4.062,4.062,0,0,1,1.236,2.643,6.32,6.32,0,0,1-.323,3.671,8.534,8.534,0,0,1-.406.811c.165.916.358,1.828.582,2.731.232.938.493,1.87.813,2.782.082.233.167.464.257.693.027.068.214.491.057.144.041.091.08.181.121.271.115.249.244.49.381.727l3.97.024a1.25,1.25,0,0,1,.283-.412c.069-.142.311-.64.111-.235a13.308,13.308,0,0,0,.511-1.316c.368-1,.708-2.017,1.038-3.034q.634-1.953,1.219-3.921a1.391,1.391,0,0,1,.171-.358c-1.3-1.7-2.661-3.347-4.074-4.995-.02-.023-.035-.049-.053-.072a1.326,1.326,0,0,1-.329-.36c-.453-.014-.907-.043-1.361-.094-.006.041-.008.081-.017.124" transform="translate(-41.553 -68.148)" fill="#7fa8a5"/>
        <path id="Path_2247" data-name="Path 2247" d="M118.049,61.7a10.436,10.436,0,0,0-.235-1.057c-.046-.162-.1-.324-.153-.484-.063-.18-.084-.234-.1-.272A6.952,6.952,0,0,0,117,58.872c-.026-.038-.054-.076-.081-.114l-.077-.091c-.1-.111-.209-.216-.316-.324-.032-.032-.08-.071-.108-.094-.05-.036-.1-.072-.154-.1s-.385-.2-.26-.147a1.206,1.206,0,0,0-.511-.1c-.072,0-.146,0-.218.008a.394.394,0,0,0-.043.007,4.107,4.107,0,0,0-.456.129,2.424,2.424,0,0,0-.279.133c-.107.058-.208.13-.312.2a1.657,1.657,0,0,1-.275.45l-4.155,4.843a1.387,1.387,0,0,1-2.343-.97V49.619a19.134,19.134,0,0,1-6.982-5.637,19.5,19.5,0,0,1-3.082-6.55,24.856,24.856,0,0,1-7.774,4.88,23.375,23.375,0,0,1-10.1,1.29,1.362,1.362,0,0,1-1.29-1.019,22.436,22.436,0,0,1-7.47,2.138,9.654,9.654,0,0,1-4.583,1c.279,1.056.58,2.116.834,3.2a1.421,1.421,0,0,1,2.444.891c.186,5.332-.028,10.672.128,16.005.255,8.7.75,20.245,9.35,25.1a14.189,14.189,0,0,0,1.466.713c.835.1,1.67.205,2.5.333a15.23,15.23,0,0,1,2.5.476,5.06,5.06,0,0,1,.519.21c7.488-.26,14.638-6.663,19.451-11.965,1.19-1.311,3.126.635,1.94,1.94-4.34,4.782-9.456,9.336-15.592,11.616a18.185,18.185,0,0,1-3.413.9,3.84,3.84,0,0,1-.075,3.2A3.333,3.333,0,0,1,86.331,99.9c.282.14.565.277.852.4-.049-.024-.033-.019.187.081.077.032.154.063.232.093s.16.062.242.091a1.4,1.4,0,0,1,.975,1.564c.453.052.907.081,1.361.095-.011-.017-.025-.031-.036-.048a1.385,1.385,0,0,1,.492-1.878c8.169-3.862,16.733-8.033,23.014-14.7l-.058-.842q-.266-3.9-.531-7.8a1.389,1.389,0,0,1,1.372-1.372,1.282,1.282,0,0,1,1.193.75l-.041-2.977a10.481,10.481,0,0,1-1.675.933,1.406,1.406,0,0,1-1.877-.492,1.381,1.381,0,0,1,.492-1.877,8.911,8.911,0,0,0,4.128-3.6,10.624,10.624,0,0,0,1.434-4.387,11.033,11.033,0,0,0-.038-2.235M72.882,49.176c-.027.012-.053.024-.077.036a1.409,1.409,0,0,1-1.878-.492,1.379,1.379,0,0,1,.492-1.877,7.969,7.969,0,0,1,3.718-.762,7.331,7.331,0,0,1,3.44.9,1.372,1.372,0,1,1-1.385,2.37c-.093-.054-.186-.105-.283-.153l-.061-.029c-.2-.07-.393-.136-.6-.187-.12-.031-.242-.058-.364-.081-.04-.008-.188-.031-.246-.041l-.154-.015c-.116-.009-.233-.016-.351-.02a7.358,7.358,0,0,0-.754.01c-.106.007-.213.018-.319.029-.051.009-.1.016-.153.026a6.049,6.049,0,0,0-.68.166c-.117.036-.233.078-.349.12M75.2,54.31a1.373,1.373,0,0,1,0,2.745,1.373,1.373,0,0,1,0-2.745m1,13.731c-.919-1.418-.4-3.026.474-4.311a11.045,11.045,0,0,0,2.1-7.777,1.409,1.409,0,0,1,.958-1.688,1.381,1.381,0,0,1,1.688.958,13.715,13.715,0,0,1-1.213,7.968,13.306,13.306,0,0,1-1.035,1.737c-.253.368-.75.915-.731,1.393.015.369.376.585.667.753a6.1,6.1,0,0,0,1.629.722c1.72.412.987,3.058-.73,2.646a6.472,6.472,0,0,1-3.807-2.4m7.715,15.087a3.728,3.728,0,0,1-4.458-.962,4.711,4.711,0,0,1-.888-4.7,3.939,3.939,0,0,1,1.605-1.976,3.574,3.574,0,0,1,2.506-.411,4.309,4.309,0,0,1,3.177,3.247,4.242,4.242,0,0,1-1.942,4.8m6.1-25.6a1.373,1.373,0,0,1,0-2.745,1.373,1.373,0,0,1,0,2.745m7.3-7.3a1.385,1.385,0,0,1-1.878.492,9.386,9.386,0,0,0-3.01-1.441q-.345-.095-.7-.166c-.136-.027-.272-.05-.408-.074l-.068-.012-.033,0a11.015,11.015,0,0,0-1.311-.073c-.358,0-.713.029-1.068.064-.027,0-.238.031-.323.047-.149.027-.3.059-.445.095-.181.044-.355.106-.532.162a1.374,1.374,0,0,1-1.826-2.047,2.961,2.961,0,0,1,1.519-.733,10.846,10.846,0,0,1,2.559-.33,12.072,12.072,0,0,1,7.031,2.143,1.4,1.4,0,0,1,.492,1.878" transform="translate(-29.828 -16.885)" fill="#fff"/>
        <path id="Path_2248" data-name="Path 2248" d="M69.992,30.093a11.212,11.212,0,0,1-1.862-.031,1.4,1.4,0,0,1-1.372-1.372,1.382,1.382,0,0,1,1.372-1.372c3.084.321,6.337-.956,9.167-2.288a37.839,37.839,0,0,0,6.988-4.153q.644-.562,1.319-1.09c.026-.023.054-.045.08-.069l0,0c.093-.071.182-.147.275-.218,1.26-.945,2.8,1.13,1.663,2.156-.683.618-1.4,1.2-2.146,1.753-1.044.922-2.046,1.894-3.068,2.843a19.67,19.67,0,0,0,5.529-1.148,22.125,22.125,0,0,0,7.622-5.061,1.274,1.274,0,0,1,1.054-.383,1.314,1.314,0,0,1,.539-.3,1.388,1.388,0,0,1,1.688.959,18.886,18.886,0,0,0,3.136,7.511,16.7,16.7,0,0,0,6.232,4.856,1.055,1.055,0,0,1,.246.169,1.253,1.253,0,0,1,.979,1.27V43.9c1.382-1.781,3.28-3.567,5.637-3.353,2.649.24,4.108,2.512,4.721,5,.126-.244.256-.487.373-.736.007-.014.026-.059.043-.1l.012-.03c.063-.166.126-.332.183-.5.122-.359.228-.723.326-1.09.3-1.13.55-2.276.79-3.421a35.218,35.218,0,0,0,.648-9.145,29.528,29.528,0,0,0-1.9-9.255,19.144,19.144,0,0,0-2.076-3.878,11.64,11.64,0,0,0-1.26-1.529q-.4-.417-.831-.8c-.118-.1-.239-.207-.36-.309-.058-.048-.116-.1-.175-.142l-.081-.062a12.609,12.609,0,0,0-8.744-2.333,1.384,1.384,0,0,1-1.372-1.372,1.332,1.332,0,0,1,.055-.364,1.483,1.483,0,0,1-.1-.149,8.339,8.339,0,0,0-.573-.966c-.053-.077-.108-.152-.163-.227-.116-.136-.229-.275-.351-.408a9.172,9.172,0,0,0-.786-.76c-.081-.07-.166-.138-.248-.207l0,0c-.143-.105-.287-.21-.434-.31a13.128,13.128,0,0,0-2.04-1.108l-.114-.046-.239-.092q-.291-.11-.587-.209-.607-.2-1.227-.36t-1.235-.273q-.276-.052-.553-.1l-.386-.058c-.81-.1-1.625-.167-2.441-.192-.877-.027-1.755-.013-2.632.04q-.689.04-1.377.112c-.211.022-.421.047-.631.071l-.244.032-.151.021a35.35,35.35,0,0,0-5.462,1.266,27.985,27.985,0,0,0-5.037,2.108,23.345,23.345,0,0,0-8.124,6.8,19.038,19.038,0,0,0-1.393,2.277q-.176.34-.338.688c-.054.116-.106.233-.159.35l-.025.057-.012.03q-.257.628-.466,1.274a18.575,18.575,0,0,0-.642,2.7q-.017.109-.033.217c0,.022-.006.051-.011.089-.01.091-.021.181-.03.272q-.036.343-.059.687c-.035.517-.046,1.034-.04,1.551a1.385,1.385,0,0,1-2.542.71,23.745,23.745,0,0,0,.873,4.724,9.654,9.654,0,0,0,4.583-1" transform="translate(-29.111 -2.256)" fill="#646464"/>
        <path id="Path_2249" data-name="Path 2249" d="M81.769,221.381q-.393.785-.753,1.585-.156.347-.306.695l-.044.1-.074.176c-.164.4-.328.8-.475,1.207a1.529,1.529,0,0,1-.869.924h4.828c-.619-1.97-1.158-3.962-1.642-5.968-.228.425-.45.852-.663,1.279" transform="translate(-35.747 -99.283)" fill="#7fa8a5"/>
        <path id="Path_2250" data-name="Path 2250" d="M108.548,209.415q-.073-.616-.153-1.232-.043-.335-.087-.67c-.013-.1-.026-.194-.038-.291-.007-.049-.022-.16-.026-.191-.543-3.964-1.171-7.919-1.932-11.847-.364-1.875-.757-3.747-1.229-5.6-.2-.774-.408-1.545-.649-2.307,0-.013-.009-.026-.013-.039l-4.922-.029q-.184.49-.347.989c-.311.952-.583,1.915-.843,2.882-1.786,6.634-3.14,13.4-4.417,20.153H108.55c.055-.087.11-.175.167-.261-.053-.52-.107-1.04-.169-1.558" transform="translate(-42.352 -84.447)" fill="#7fa8a5"/>
        <path id="Path_2251" data-name="Path 2251" d="M155.189,169.567a5.464,5.464,0,0,0-.823-.191l-3.771-.8-6.97-1.478c-1.73-.367-.994-3.012.73-2.646l6.947,1.473a138.887,138.887,0,0,0-.439-15.15,29.225,29.225,0,0,1-3.127-3.054c-1.211,2.988-2.411,5.981-3.621,8.969-5.081,12.546-10.292,25.276-17.592,36.731H144.15q1.266-2.243,2.52-4.493c1.81-3.259,3.6-6.528,5.348-9.822.806-1.522,1.6-3.048,2.371-4.589.317-.636.629-1.274.93-1.917q.194-.415.38-.834c.052-.117.1-.235.153-.352l.013-.034a1.3,1.3,0,0,0-.675-1.812" transform="translate(-57.072 -66.633)" fill="#7fa8a5"/>
        <path id="Path_2252" data-name="Path 2252" d="M36.72,226.95H50.037l-11.385-4.9-1.932,4.9" transform="translate(-16.564 -100.162)" fill="#7fa8a5"/>
        <path id="Path_2253" data-name="Path 2253" d="M207.434,187.729a60.49,60.49,0,0,0-.721-6.7,26.355,26.355,0,0,0-.643-2.851q-.184-.627-.422-1.237c-.028-.062-.113-.261-.14-.317-.079-.163-.164-.324-.256-.48-.05-.085-.274-.383-.262-.383-.063-.07-.125-.143-.192-.21-.407-.412-.841-.8-1.281-1.176a28.326,28.326,0,0,0-3-2.223,59.675,59.675,0,0,0-7.23-3.933c-5.338-2.516-10.871-4.6-16.143-7.26a54.411,54.411,0,0,1-6.312-3.674,118.406,118.406,0,0,1,.275,13.525c.537.109,1.073.221,1.6.349a4.052,4.052,0,0,1,2.793,5.478,94.467,94.467,0,0,1-4.324,8.714q-3.317,6.236-6.793,12.386h43.26c0-.032-.008-.061-.007-.1.082-3.3,0-6.615-.2-9.909" transform="translate(-74.149 -70.945)" fill="#7fa8a5"/>
        <path id="Path_2254" data-name="Path 2254" d="M104.508,151.978l.111.048.036.014c-.22-.1-.236-.1-.187-.081l.011,0,.029.014" transform="translate(-47.113 -68.54)" fill="#323232"/>
        <path id="Path_2255" data-name="Path 2255" d="M159.829,144.339c-.113-2.414-.3-4.823-.628-7.218a25.372,25.372,0,0,0-1.343-5.9,7.935,7.935,0,0,0-1.3-2.322,17.4,17.4,0,0,0-2.528-2.258,44.522,44.522,0,0,0-7.051-4.423c-5.272-2.721-10.84-4.811-16.214-7.316-5.545-2.585-11.4-5.691-15.145-10.6a1.51,1.51,0,0,0-1.43-.653c-.02-.007-.038-.018-.059-.024a1.386,1.386,0,0,0-.238-.041l-2.647-7.78q-.218-.643-.437-1.286a1.532,1.532,0,0,0-.471-.686c-.01-.012-.018-.024-.029-.036-.027-.026-.059-.047-.088-.071q-.223-3.275-.447-6.551-.038-.561-.076-1.122a1.61,1.61,0,0,0-.179-.622l.085,6.167-.085-6.167a1.283,1.283,0,0,0-1.193-.75,1.39,1.39,0,0,0-1.372,1.372q.266,3.9.531,7.8l.058.842c-6.281,6.668-14.845,10.838-23.014,14.7a1.384,1.384,0,0,0-.492,1.878c.01.018.024.031.035.048.509.016,1.018.018,1.527.018-.509,0-1.018,0-1.527-.018a1.333,1.333,0,0,0,.329.36c.019.024.033.049.053.072,1.413,1.648,2.773,3.3,4.074,5a1.38,1.38,0,0,0-.171.358q-.581,1.969-1.218,3.921c-.33,1.017-.67,2.03-1.038,3.034a13.39,13.39,0,0,1-.511,1.316c.2-.4-.043.094-.111.235a1.25,1.25,0,0,0-.283.412l-3.971-.024c-.137-.237-.266-.478-.381-.727-.042-.09-.081-.181-.121-.271.156.347-.03-.076-.057-.143-.091-.229-.176-.461-.257-.693-.319-.912-.581-1.844-.813-2.782-.223-.9-.416-1.815-.582-2.731a8.282,8.282,0,0,0,.406-.811,6.32,6.32,0,0,0,.322-3.671,4.059,4.059,0,0,0-1.236-2.643,26.429,26.429,0,0,0-3.883-2.419l-.335-.2c.278.034.558.072.84.109a20.311,20.311,0,0,0,4.826,2.864c.347.148.7.3,1.053.426a1.381,1.381,0,0,0,1.688-.958c.009-.042.011-.082.017-.124a10,10,0,0,1-2.052-.436,10,10,0,0,0,2.052.436,1.4,1.4,0,0,0-.975-1.564c-.081-.029-.161-.06-.242-.091l-.232-.093.052.024-.088-.038-.015-.007c-.028-.011-.064-.027-.1-.042l0,0-.025-.012-.011,0c-.288-.127-.571-.265-.852-.4a3.331,3.331,0,0,0,1.851-1.562,3.84,3.84,0,0,0,.075-3.2,18.2,18.2,0,0,0,3.414-.9c6.135-2.28,11.251-6.834,15.591-11.615,1.185-1.305-.75-3.252-1.94-1.941-4.813,5.3-11.963,11.705-19.451,11.965a5,5,0,0,0-.519-.21,15.3,15.3,0,0,0-2.5-.476c-.831-.128-1.665-.235-2.5-.333A14.084,14.084,0,0,1,72.769,100c-8.6-4.857-9.1-16.4-9.35-25.1-.156-5.334.058-10.674-.128-16.005A1.421,1.421,0,0,0,60.846,58a19.416,19.416,0,0,1,.594,4.475A19.416,19.416,0,0,0,60.846,58a1.233,1.233,0,0,0-.3.891c.172,4.906-.013,9.822.1,14.731.123,5.536.274,11.3,1.884,16.642a22,22,0,0,0,5.855,9.9l-.637-.053c-1.872-.162-3.774-.513-5.653-.515s-4.378.62-5,2.675c-.529,1.755.585,3.4.642,5.126q-.627.37-1.249.745c-.538.323-1.076.645-1.624.949-.226.126-.453.248-.684.365-.121.061-.243.122-.365.18-.032.015-.4.177-.232.107a1.417,1.417,0,0,0-.958,1.688,1.382,1.382,0,0,0,.341.568,7.435,7.435,0,0,0,1.889-1.218A7.435,7.435,0,0,1,52.964,112a1.255,1.255,0,0,0,1.348.39,42.151,42.151,0,0,0,5.112-2.8,13.406,13.406,0,0,1,5.047-2.1c2.357-.212,4.517,1.448,6.429,2.59l3.612,2.16c.544.326,1.089.648,1.631.975.373.225.6.359.743.651l.026.093c.033.121.061.243.085.365.044.218.071.439.1.659a2.919,2.919,0,0,1,0,1.208,5.908,5.908,0,0,1-1.786,2.716c-.008.008-.012.015-.02.023-.271-.52-.54-1.042-.823-1.555a33.128,33.128,0,0,0-2.9-4.511,5.1,5.1,0,0,0-4.976-2.181c-1.655.251-3.3.546-4.956.82l-5.77.953a1.383,1.383,0,0,0-.958,1.688,1.4,1.4,0,0,0,1.688.958l9.921-1.64c.211-.035.422-.068.632-.1l.056-.009a2.548,2.548,0,0,1,.647.018c1.275.237,2.122,1.882,2.753,2.869.827,1.293,1.572,2.637,2.281,4q.432.828.845,1.667c.26.528.258.543-.1,1.067a22.737,22.737,0,0,1-2.493,3.139,6.019,6.019,0,0,1-1.222,1.037c-.072-.682-.164-1.364-.256-2.05-.25-1.859-.468-3.724-.75-5.579a4.684,4.684,0,0,0-.977-2.408,3.291,3.291,0,0,0-3.475-.788c-2.663.647-5.309,1.372-7.962,2.058a1.373,1.373,0,0,0,.73,2.646l6.145-1.589q.72-.186,1.438-.372c.255-.066.75-.3,1.019-.195.294.11.386,1.047.434,1.357.228,1.478.4,2.967.6,4.45l.343,2.548c.019.143.039.285.058.428,0,.011,0,.015,0,.029,0,.307.037.618.043.926.012.593,0,1.188-.036,1.78-.01.141-.021.282-.037.423l0,.016c-.016.077-.033.153-.053.228,0-.04-.174.344-.222.405a1.131,1.131,0,0,1-.254.2.679.679,0,0,1-.348.1,1.97,1.97,0,0,1-1.231-.353,2.634,2.634,0,0,1-1.028-1.118,9.458,9.458,0,0,1-.606-1.87c-.165-.673-.3-1.354-.406-2.036-.033-.206-.062-.414-.094-.62l0-.028c0-.013,0-.025-.007-.037a.176.176,0,0,0,0-.025c-.008-.052-.018-.1-.029-.154a1.368,1.368,0,0,0-2.028-1.475l-2.837,1.828a1.448,1.448,0,0,0-.631.82,1.4,1.4,0,0,0,.139,1.057,1.383,1.383,0,0,0,.82.631,1.449,1.449,0,0,0,.932-.079c.514,1.088.935,2.1,1.37,3.224a26.317,26.317,0,0,1,2.048,7.919c.08,1.759,2.825,1.769,2.745,0a21.918,21.918,0,0,0-.978-5.294,4.331,4.331,0,0,0,2.666.238,3.854,3.854,0,0,0,2.773-3.442c.035-.3.056-.59.07-.883,1.914-.392,3.868-2.88,4.815-4.116.36-.47.759-.958,1.095-1.474.1,3.358.533,6.743-.126,9.94a9.014,9.014,0,0,1-1.168,3.13,9.874,9.874,0,0,1-2.4,2.3,19.819,19.819,0,0,0-4.594,6.274,41.48,41.48,0,0,0-2.219,4.989,1.376,1.376,0,0,0,.872,1.654h.905a1.53,1.53,0,0,0,.869-.924c.148-.406.311-.806.475-1.207l.074-.176.044-.1c.1-.232.2-.464.307-.7q.361-.8.753-1.585.32-.64.663-1.279c.484,2.006,1.024,4,1.642,5.969h3.211c1.276-6.75,2.631-13.519,4.417-20.153.26-.966.532-1.93.843-2.881q.163-.5.347-.989l4.922.03c0,.013.009.026.013.039.241.762.452,1.533.649,2.307.472,1.851.865,3.723,1.229,5.6.761,3.928,1.389,7.883,1.932,11.847,0,.03.019.142.026.19.013.1.026.194.038.291q.044.335.087.67.078.616.153,1.232c.062.519.116,1.039.169,1.558-.057.086-.111.174-.167.261h3.253c7.3-11.455,12.51-24.186,17.591-36.732q1.816-4.483,3.621-8.969a29.223,29.223,0,0,0,3.127,3.054,139.04,139.04,0,0,1,.439,15.15L111,123.787c-1.723-.366-2.459,2.28-.73,2.647l6.97,1.478,3.772.8a5.617,5.617,0,0,1,.823.191,1.3,1.3,0,0,1,.674,1.812c0,.012-.008.023-.012.034h0c-.054.148-.1.229,0,0-.05.117-.1.235-.153.351-.123.279-.251.557-.38.834-.3.644-.613,1.282-.93,1.918-.768,1.541-1.565,3.067-2.371,4.589-1.745,3.294-3.538,6.563-5.348,9.821q-1.251,2.252-2.519,4.494h3.155q3.464-6.156,6.794-12.387a94.545,94.545,0,0,0,4.324-8.714,4.052,4.052,0,0,0-2.793-5.478c-.531-.128-1.068-.24-1.6-.349a118.4,118.4,0,0,0-.274-13.525,54.4,54.4,0,0,0,6.311,3.674c5.273,2.657,10.806,4.744,16.143,7.26a59.686,59.686,0,0,1,7.23,3.933,28.16,28.16,0,0,1,3,2.223c.439.376.873.764,1.28,1.176.068.068.129.14.192.21-.013,0,.212.3.262.383.092.156.177.317.256.48.027.056.112.255.14.317q.238.609.422,1.237a26.491,26.491,0,0,1,.643,2.851,60.469,60.469,0,0,1,.721,6.7c.2,3.294.284,6.609.2,9.909,0,.034.005.063.007.1h2.726c0-.033.011-.061.012-.1.069-2.773.013-5.554-.116-8.323M69.28,105.694a1.423,1.423,0,0,0-.412.059,10.665,10.665,0,0,0-2.173-.8,9.54,9.54,0,0,0-6.41,1.059c-.189-.8-.457-1.587-.57-2.394a1.244,1.244,0,0,1,.015-.584c.013.015.187-.177.228-.206a3.452,3.452,0,0,1,1.909-.482,41.156,41.156,0,0,1,4.719.41c1.653.154,3.309.277,4.962.426s3.324.326,4.973.6a11.114,11.114,0,0,1,2.054.418s.185.091.354.2c.037.024.061.037.08.048l.062.059a3.392,3.392,0,0,1,.272.276,1.645,1.645,0,0,1,.305.57c.025.1.05.2.07.295v.025c0,.075,0,.15,0,.225,0,.019,0,.027,0,.04s-.016.045-.029.084c-.026.085-.128.288.006.027a.913.913,0,0,1-.105.188l-.038.042-.026.021c-.008.006-.02.018-.031.029a1.412,1.412,0,0,1-.883.21c-3.127.045-6.207-.8-9.334-.833m-2.05,7.648c.026,0,.053-.01.079-.013.054-.007.07,0-.079.013m.007,17.448c.01-.064.035-.172,0,0m6.22,16.912q-.383-1.48-.727-2.968a1.292,1.292,0,0,0-.576-.776,12.486,12.486,0,0,1,1.867-2.034c.193-.166.47-.361.76-.574q-.688,3.171-1.323,6.352m34.275-31.47a286.008,286.008,0,0,1-12.1,26.8q-1.548,2.916-3.241,5.753c-.256-1.939-.548-3.875-.851-5.8-.642-4.079-1.349-8.164-2.342-12.175-.28-1.131-.589-2.258-.973-3.358,0-.018,0-.034,0-.052a1.483,1.483,0,0,0-.23-.732c.254-.557.465-1.136.676-1.7.383-1.029.732-2.071,1.072-3.115q.391-1.2.761-2.406c.785,1.117,1.546,2.257,2.274,3.441.405.659.794,1.329,1.147,2.017q.243.473.457.961c.031.076.061.152.089.228.057.15.109.3.158.454a1.391,1.391,0,0,0,2.294.606l7.093-6.283a1.162,1.162,0,0,0,.252-1.545l-1.233,1.1,1.233-1.1a1.428,1.428,0,0,0-2.193-.4L96.5,123.867a38.809,38.809,0,0,0-3.552-5.675c-1.7-2.393-3.513-4.711-5.378-6.978l-.148-.176c7.636-3.64,15.459-7.688,21.431-13.754q1.2,3.52,2.4,7.04.219.642.437,1.286a1.585,1.585,0,0,0,.187.366c-1.384,3.414-2.753,6.839-4.139,10.257l4.187-3.736Z" transform="translate(-23.714 -25.969)" fill="#323232"/>
        <path id="Path_2256" data-name="Path 2256" d="M179.951,190.883h0" transform="translate(-81.172 -86.103)" fill="#323232"/>
        <path id="Path_2257" data-name="Path 2257" d="M77.684,231.01a1.3,1.3,0,0,0,.818-.035H77.6c.029.011.057.026.087.035" transform="translate(-35.002 -104.188)" fill="#323232"/>
        <path id="Path_2258" data-name="Path 2258" d="M108.558,69.041a1.373,1.373,0,0,0,0,2.745,1.373,1.373,0,0,0,0-2.745" transform="translate(-48.37 -31.143)" fill="#323232"/>
        <path id="Path_2259" data-name="Path 2259" d="M81.566,70.924a1.373,1.373,0,0,0,0-2.745,1.373,1.373,0,0,0,0,2.745" transform="translate(-36.194 -30.754)" fill="#323232"/>
        <path id="Path_2260" data-name="Path 2260" d="M19.622,169.35l3.23-1.384c-.009-.018-.015-.038-.025-.055a1.407,1.407,0,0,0-1.877-.492c-1.688.735-3.457,1.249-5.1,2.08a20.538,20.538,0,0,0-4.559,3.155,19.88,19.88,0,0,0-5.546,8.682C3.949,187.028,2.5,192.844.96,198.609q-.483,1.811-.96,3.625H2.845q1.323-5.015,2.68-10.022c.787-2.887,1.582-5.773,2.417-8.647a18.875,18.875,0,0,1,4.169-7.867,17.883,17.883,0,0,1,4.56-3.536c1.8-.983,3.786-1.556,5.664-2.374a1.373,1.373,0,0,0,.517-1.822Z" transform="translate(0 -75.446)" fill="#323232"/>
        <path id="Path_2261" data-name="Path 2261" d="M108.214,56.492a9.4,9.4,0,0,1,3.01,1.441,1.384,1.384,0,0,0,1.877-.492,1.4,1.4,0,0,0-.492-1.877,12.073,12.073,0,0,0-7.031-2.144,10.864,10.864,0,0,0-2.559.331,2.956,2.956,0,0,0-1.519.733,1.374,1.374,0,0,0,1.827,2.047c.176-.055.351-.117.532-.161.147-.036.3-.068.445-.095.085-.016.3-.042.323-.048.355-.034.71-.062,1.069-.064a11.259,11.259,0,0,1,1.311.073l.033,0,.068.013c.136.024.273.047.408.074q.351.071.7.165" transform="translate(-45.61 -24.096)" fill="#323232"/>
        <path id="Path_2262" data-name="Path 2262" d="M78.177,55.939a7.514,7.514,0,0,1,.754-.011c.117,0,.234.011.351.021l.154.014.246.041c.122.024.244.051.364.081.2.052.4.117.6.187l.061.029c.1.047.19.1.282.153a1.373,1.373,0,0,0,1.385-2.37,7.34,7.34,0,0,0-3.44-.9,7.978,7.978,0,0,0-3.718.762,1.38,1.38,0,0,0-.492,1.878,1.411,1.411,0,0,0,1.878.492c.025-.012.05-.025.077-.036.116-.042.231-.084.349-.12a6.113,6.113,0,0,1,.68-.166l.152-.026c.106-.01.213-.021.32-.028m-1.518.346.015-.005c-.069.028-.136.049-.015.005m.019-.007a.559.559,0,0,0,.073-.034.527.527,0,0,1-.073.034" transform="translate(-33.621 -23.988)" fill="#323232"/>
        <path id="Path_2263" data-name="Path 2263" d="M87.886,84.242c1.716.412,2.449-2.234.73-2.646a6.116,6.116,0,0,1-1.629-.722c-.29-.168-.652-.384-.667-.753-.019-.478.478-1.025.731-1.393a13.313,13.313,0,0,0,1.035-1.738A13.714,13.714,0,0,0,89.3,69.022a1.382,1.382,0,0,0-1.688-.958,1.409,1.409,0,0,0-.958,1.688,11.044,11.044,0,0,1-2.1,7.777c-.873,1.286-1.394,2.893-.474,4.311a6.475,6.475,0,0,0,3.807,2.4" transform="translate(-37.708 -30.683)" fill="#323232"/>
        <path id="Path_2264" data-name="Path 2264" d="M66.134,142.8a9.54,9.54,0,0,1,6.41-1.059,10.654,10.654,0,0,1,2.173.8,1.426,1.426,0,0,1,.412-.059c3.126.032,6.207.878,9.333.833a1.411,1.411,0,0,0,.883-.21c.012-.011.023-.023.031-.029l.027-.021.037-.042a.942.942,0,0,0,.106-.188c-.134.261-.032.058-.007-.027.012-.039.021-.065.029-.084s0-.02,0-.04c0-.075,0-.15,0-.225v-.025c-.02-.1-.045-.2-.07-.295a1.654,1.654,0,0,0-.3-.57,3.487,3.487,0,0,0-.272-.276c-.03-.027-.047-.044-.063-.059s-.043-.025-.08-.048c-.169-.106-.352-.2-.354-.2a11.114,11.114,0,0,0-2.054-.418c-1.648-.27-3.309-.446-4.973-.6s-3.309-.272-4.962-.426a41.159,41.159,0,0,0-4.72-.409,3.452,3.452,0,0,0-1.909.482c-.041.029-.216.222-.228.206a1.237,1.237,0,0,0-.015.584c.112.807.381,1.59.569,2.394" transform="translate(-29.563 -62.757)" fill="#fff"/>
        <path id="Path_2265" data-name="Path 2265" d="M95.368,116.36l.013,0c.036,0,.072,0,.109,0a.8.8,0,0,0-.122,0" transform="translate(-43.018 -52.487)" fill="#323232"/>
        <path id="Path_2266" data-name="Path 2266" d="M93.309,112.577a1.3,1.3,0,0,1-.027.13c0,.006,0,.013,0,.019.05-.113.045-.166.027-.149" transform="translate(-42.077 -50.78)" fill="#323232"/>
        <path id="Path_2267" data-name="Path 2267" d="M96.07,111.3h0c-.106-.1-.2-.1,0,0" transform="translate(-43.281 -50.172)" fill="#323232"/>
        <path id="Path_2268" data-name="Path 2268" d="M93.836,111.39c-.026.03-.054.055-.081.082l-.005.009a.493.493,0,0,0,.087-.091" transform="translate(-42.288 -50.245)" fill="#323232"/>
        <path id="Path_2269" data-name="Path 2269" d="M94.42,115.886l0,0c.1.087.235.115,0,0" transform="translate(-42.591 -52.274)" fill="#323232"/>
        <path id="Path_2270" data-name="Path 2270" d="M96.673,115.82l.02-.019c.015-.016.032-.035.047-.054l.018-.031c-.067.064-.091.1-.085.1" transform="translate(-43.607 -52.197)" fill="#323232"/>
        <path id="Path_2271" data-name="Path 2271" d="M97.282,114.418V114.4a.351.351,0,0,0-.034.134.782.782,0,0,1,.033-.121" transform="translate(-43.867 -51.605)" fill="#323232"/>
        <path id="Path_2272" data-name="Path 2272" d="M93.9,114.009a4.241,4.241,0,0,0,1.942-4.8,4.309,4.309,0,0,0-3.177-3.246,3.573,3.573,0,0,0-2.506.411,3.938,3.938,0,0,0-1.6,1.976,4.709,4.709,0,0,0,.888,4.7,3.726,3.726,0,0,0,4.458.962m-2.88-4.347c0-.062.016-.087.026-.1a.431.431,0,0,1,.008-.049c.024-.1.057-.188.088-.281.018-.033.034-.068.053-.1s.053-.088.08-.131c-.017.015-.024.024-.047.043.018-.015.035-.035.052-.052l.011-.018c.043-.076.087-.1.07-.064.037-.042.074-.085.11-.123.024-.017.048-.033.072-.048s.047-.027.071-.04c.075-.019.15-.043.223-.066.038,0,.076-.009.111-.009l.079,0,.045.012a1.148,1.148,0,0,1,.126.04c-.019-.014.048,0,.111.035h0c.032.011.065.024.1.032l-.082-.022c.057.033.115.064.17.1a1.716,1.716,0,0,0,.151.1L92.6,108.9c.086.08.163.166.242.253.04.065.083.127.122.192.027.047.053.094.077.141l0,.01c.019.135.115.319.145.443.012.053.022.107.033.161.007.119.013.237.009.356,0,.037,0,.075-.007.112a.266.266,0,0,1,.013-.035.405.405,0,0,0-.013.048c0,.026,0,.052,0,.078,0,.086-.027.089-.029.043a2.305,2.305,0,0,1-.055.25c-.01.03-.025.065-.04.1q-.067.119-.136.235c.018-.018.029-.03.055-.052a.566.566,0,0,0-.073.083l-.01.018c-.026.044-.05.059-.057.055l-.1.1c-.066.038-.134.075-.2.116-.028.009-.055.018-.084.026s-.059.015-.088.021l-.127,0c.08.012.04.037-.042.016l-.067-.017c-.03,0-.06,0-.089,0l.076,0c-.042-.01-.084-.019-.125-.031l-.047-.016c-.08-.056-.2-.1-.273-.151a1.208,1.208,0,0,0-.121-.084l.045.023c-.078-.072-.149-.15-.219-.229-.027-.04-.061-.082-.081-.113-.063-.1-.115-.2-.171-.307-.022-.06-.044-.121-.063-.183-.036-.118-.059-.238-.087-.358,0-.053-.009-.105-.01-.159,0-.106,0-.212.008-.318-.006.013-.006.02-.014.035a.283.283,0,0,0,.014-.053c0-.011,0-.022,0-.033" transform="translate(-39.811 -47.766)" fill="#323232"/>
        <path id="Path_2273" data-name="Path 2273" d="M95.546,110.995l-.113-.036a.575.575,0,0,0,.13.046l-.017-.01" transform="translate(-43.048 -50.051)" fill="#323232"/>
        <path id="Path_2274" data-name="Path 2274" d="M41.113,191.514a33.707,33.707,0,0,0,2.643-12.333,39.924,39.924,0,0,0-.3-6.827,66.5,66.5,0,0,0-1.529-6.965c-.543-2.256-.818-5.024,1.028-6.779a1.255,1.255,0,0,0,.008-1.864,8.06,8.06,0,0,0-2.066,1.306,8.06,8.06,0,0,1,2.066-1.306,1.339,1.339,0,0,0-1.949-.077,7.834,7.834,0,0,0-2.24,5.586l1.691-.725-1.691.725c0,.262,0,.524.013.784.156,2.568,1.1,4.976,1.607,7.479a36.707,36.707,0,0,1,.119,13.434,26.642,26.642,0,0,1-1.9,6.486l-.036-.015-2.4-1.031a1.405,1.405,0,0,0-2.016.82l-2.789,7.072h2.935l1.932-4.9,11.385,4.9h6.892l-13.4-5.769" transform="translate(-14.152 -70.496)" fill="#323232"/>
        <path id="Path_2275" data-name="Path 2275" d="M40.706,100.156a1.4,1.4,0,0,0,.492-1.877,6.3,6.3,0,0,1-.368-1.015q-.092-.328-.16-.661c-.02-.1-.037-.2-.054-.3l-.017-.092c0-.009,0-.027-.005-.067a9.28,9.28,0,0,1-.05-1.283c.007-.228.021-.454.044-.68,0-.02.018-.147.023-.192s.047-.268.047-.268a7.792,7.792,0,0,1,2.218-4.267c1.263-1.24-.678-3.18-1.94-1.941a10.792,10.792,0,0,0-2.107,12.149,1.384,1.384,0,0,0,1.878.492" transform="translate(-17.061 -39.297)" fill="#323232"/>
        <path id="Path_2276" data-name="Path 2276" d="M28.874,101.382a1.4,1.4,0,0,0,.958-1.687,17.965,17.965,0,0,1-.238-5.059,6.81,6.81,0,0,1,1.744-4c1.234-1.265-.7-3.208-1.941-1.94-3.01,3.086-2.918,7.774-2.212,11.733a1.384,1.384,0,0,0,1.688.958" transform="translate(-12.078 -39.82)" fill="#323232"/>
        <path id="Path_2277" data-name="Path 2277" d="M124.783,29.179c-.194-6.535-1.919-14.059-7.116-18.492a15.084,15.084,0,0,0-9.993-3.507,1.424,1.424,0,0,0-.147-.492C104.375.506,95.9-.467,89.767.166c-7.8.806-15.993,4.15-21.035,10.369A19.979,19.979,0,0,0,64.165,23.4a1.335,1.335,0,0,0,.2.71,11.377,11.377,0,0,1,.654-4.623,11.377,11.377,0,0,0-.654,4.623,1.384,1.384,0,0,0,2.542-.71c0-.517.006-1.034.041-1.551q.022-.344.058-.687c.01-.091.02-.181.031-.272,0-.038.008-.067.011-.089.01-.073.021-.145.032-.217a18.718,18.718,0,0,1,.642-2.7q.209-.646.466-1.274l.012-.03.025-.057c.052-.117.1-.234.158-.35q.162-.347.338-.688a18.967,18.967,0,0,1,1.393-2.277,23.343,23.343,0,0,1,8.124-6.8A28.06,28.06,0,0,1,83.278,4.3a35.42,35.42,0,0,1,5.463-1.266l.15-.022.245-.032c.21-.025.42-.049.631-.071q.688-.071,1.378-.112,1.314-.078,2.632-.04c.816.025,1.631.088,2.441.192l.386.058q.277.044.553.1.622.117,1.235.273t1.226.36c.2.066.393.135.588.209l.239.092.114.046A13.03,13.03,0,0,1,102.6,5.193c.148.1.291.2.435.31l0,0c.082.069.166.137.248.207a9.335,9.335,0,0,1,.786.76c.121.133.234.272.351.408.055.076.11.15.163.227a8.416,8.416,0,0,1,.573.966,1.394,1.394,0,0,0,.1.149,1.311,1.311,0,0,0-.056.364A1.385,1.385,0,0,0,106.57,9.96a12.608,12.608,0,0,1,8.744,2.333l.081.062c.059.047.118.094.176.142.121.1.242.2.36.309q.431.384.831.8a11.6,11.6,0,0,1,1.26,1.529,19.234,19.234,0,0,1,2.076,3.878A29.534,29.534,0,0,1,122,28.27a35.217,35.217,0,0,1-.649,9.145c-.24,1.145-.486,2.291-.79,3.421-.1.366-.2.731-.326,1.09-.057.168-.12.334-.183.5l-.012.029c-.018.041-.036.086-.043.1-.116.249-.246.492-.372.736-.613-2.484-2.073-4.756-4.721-5-2.357-.214-4.256,1.572-5.637,3.353V31.872a1.253,1.253,0,0,0-.979-1.27,1.074,1.074,0,0,0-.246-.168,16.693,16.693,0,0,1-6.231-4.856,18.886,18.886,0,0,1-3.137-7.511,1.387,1.387,0,0,0-1.688-.958,1.314,1.314,0,0,0-.539.3,1.273,1.273,0,0,0-1.054.383,22.123,22.123,0,0,1-7.622,5.061A19.67,19.67,0,0,1,82.242,24c1.022-.95,2.024-1.921,3.067-2.843.745-.553,1.463-1.136,2.147-1.753,1.134-1.026-.4-3.1-1.663-2.156-.094.07-.182.147-.275.218l0,0c-.026.024-.054.045-.08.069q-.676.526-1.32,1.09a37.821,37.821,0,0,1-6.988,4.153c-2.83,1.332-6.082,2.609-9.166,2.288a1.382,1.382,0,0,0-1.372,1.372,1.4,1.4,0,0,0,1.372,1.372,11.211,11.211,0,0,0,1.862.031c.413-.2.825-.414,1.237-.662-.412.248-.823.466-1.237.662a22.45,22.45,0,0,0,7.47-2.138,1.363,1.363,0,0,0,1.29,1.019,23.376,23.376,0,0,0,10.1-1.291,24.845,24.845,0,0,0,7.774-4.88A19.5,19.5,0,0,0,99.542,27.1a19.129,19.129,0,0,0,6.982,5.637v13.08a1.387,1.387,0,0,0,2.343.97l4.155-4.843a1.648,1.648,0,0,0,.275-.45c.1-.066.2-.137.312-.195a2.324,2.324,0,0,1,.279-.133,4.235,4.235,0,0,1,.456-.13l.043-.007a2.061,2.061,0,0,1,.218-.008,1.206,1.206,0,0,1,.51.1c-.125-.051.2.113.26.146s.1.068.154.1c.028.023.076.063.108.094.106.107.214.212.316.324.012.012.055.066.077.09s.055.076.081.115a6.894,6.894,0,0,1,.564,1.018c.016.038.037.092.1.272q.084.24.153.484a10.407,10.407,0,0,1,.235,1.057,11.04,11.04,0,0,1,.038,2.236,10.622,10.622,0,0,1-1.434,4.386,8.9,8.9,0,0,1-4.128,3.6,1.382,1.382,0,0,0-.492,1.878,1.407,1.407,0,0,0,1.877.492,10.566,10.566,0,0,0,1.675-.933l-.011-.829.011.829a12.384,12.384,0,0,0,5.006-7.791,1.452,1.452,0,0,0,.221-.3c.75-1.4,1.624-2.751,2.318-4.182a20.389,20.389,0,0,0,1.411-4.481,42.135,42.135,0,0,0,1.127-10.543m-20.361-22.3h0c.055.064.167.232,0,0m9.993,34.141c.058-.006.1-.008,0,0" transform="translate(-28.943 0)" fill="#323232"/>
      </g>
    </g>
  </g>
</svg>
