<svg xmlns="http://www.w3.org/2000/svg" xmlns:xlink="http://www.w3.org/1999/xlink" width="245" height="245" viewBox="0 0 245 245">
  <defs>
    <clipPath id="clip-path">
      <rect id="Rectangle_3625" data-name="Rectangle 3625" width="181.053" height="152.092" fill="none"/>
    </clipPath>
  </defs>
  <g id="Group_2898" data-name="Group 2898" transform="translate(-607 -1071.908)">
    <circle id="Ellipse_12" data-name="Ellipse 12" cx="122.5" cy="122.5" r="122.5" transform="translate(607 1071.908)" fill="#ccdcdb"/>
    <text id="時間を惜しまない" transform="translate(730 1113.908)" fill="#333" font-size="24" font-family="NotoSerifJP-Regular, Noto Serif JP"><tspan x="-96" y="0">時間を惜しまない</tspan></text>
    <g id="Group_2878" data-name="Group 2878" transform="translate(646.941 1132.941)">
      <g id="Group_2877" data-name="Group 2877" clip-path="url(#clip-path)">
        <path id="Path_2278" data-name="Path 2278" d="M232.7,38.836a5.934,5.934,0,0,1-3.663-.494c-.675-.437-1.124-1.5-.522-2.132a2.009,2.009,0,0,1,1.871-.172,10.038,10.038,0,0,1,2.243.951,12.421,12.421,0,0,1,2.543,1.875,18.921,18.921,0,0,0-2.473-.028" transform="translate(-158.812 -24.975)" fill="#fff"/>
        <path id="Path_2279" data-name="Path 2279" d="M222.281,82.752c.232,0,.465,0,.7.009-.8.634-1.554,1.341-2.416,1.9a3.241,3.241,0,0,1-2.259.686,1.032,1.032,0,0,1-.744-.426.919.919,0,0,1,.157-.942c1.11-1.263,3.03-1.232,4.565-1.23" transform="translate(-151.332 -57.581)" fill="#fff"/>
        <path id="Path_2280" data-name="Path 2280" d="M234.285,36.62a.778.778,0,0,0-.157-.831A13.675,13.675,0,0,0,229.537,32c-1.578-.8-3.808-1.689-5.369-.439a.806.806,0,0,0-.157.126.828.828,0,0,0-.119.137,2.869,2.869,0,0,0-.177,3.227,3.938,3.938,0,0,0,2.727,1.778,16.888,16.888,0,0,0,3.764.033,30.005,30.005,0,0,1,3.384.227.752.752,0,0,0,.7-.468m-2.541-1.2a18.974,18.974,0,0,0-2.473-.028,5.931,5.931,0,0,1-3.663-.494c-.675-.437-1.124-1.5-.522-2.132a2.008,2.008,0,0,1,1.871-.172,10.024,10.024,0,0,1,2.243.951,12.42,12.42,0,0,1,2.543,1.875" transform="translate(-155.381 -21.527)" fill="#323232"/>
        <path id="Path_2281" data-name="Path 2281" d="M213.131,79.559a2.31,2.31,0,0,0,.361,3.357,3.454,3.454,0,0,0,3.208.211,11.059,11.059,0,0,0,2.965-1.986,8.394,8.394,0,0,1,2.582-1.722.764.764,0,0,0-.2-1.494,28.1,28.1,0,0,0-3.456-.172c-1.85.019-4.051.183-5.363,1.674a.9.9,0,0,0-.095.13m1.17.945c1.11-1.263,3.03-1.232,4.565-1.23.232,0,.465,0,.7.009-.8.634-1.554,1.341-2.416,1.9a3.239,3.239,0,0,1-2.259.686,1.03,1.03,0,0,1-.744-.426.919.919,0,0,1,.157-.942" transform="translate(-147.918 -54.102)" fill="#323232"/>
        <path id="Path_2282" data-name="Path 2282" d="M264.027,163.323v0c-.01-.038-.021-.05-.027-.05s.01.013.013.02a.334.334,0,0,1,.015.034" transform="translate(-183.696 -113.606)" fill="#fbe46c"/>
        <path id="Path_2283" data-name="Path 2283" d="M264.141,163.586l0,.015c0-.01,0-.02,0-.03l0,0c0,.006,0,.012,0,.018" transform="translate(-183.796 -113.814)" fill="#fbe46c"/>
        <path id="Path_2284" data-name="Path 2284" d="M258.258,168.67l.033-.007h-.009l-.024.006" transform="translate(-179.702 -117.36)" fill="#fbe46c"/>
        <path id="Path_2285" data-name="Path 2285" d="M274.685,150.548h0s.011.008.026.012l-.023-.012" transform="translate(-191.13 -104.755)" fill="#fbe46c"/>
        <path id="Path_2286" data-name="Path 2286" d="M263.735,162.854l.012.026.01.01a.293.293,0,0,1-.022-.036" transform="translate(-183.513 -113.318)" fill="#fbe46c"/>
        <path id="Path_2287" data-name="Path 2287" d="M274.474,150.514s.016.005.037.006c-.019-.006-.035-.01-.037-.006" transform="translate(-190.985 -104.73)" fill="#fbe46c"/>
        <path id="Path_2288" data-name="Path 2288" d="M252.515,164.822l.395-.176.124-.056a.756.756,0,0,1-.012-.082.772.772,0,0,1,.76-.76c.048,0,.1,0,.143-.009.1-.026.116-.026.1-.019.04-.007.079-.013.118-.023.092-.023.183-.05.273-.081l.1-.036a3.774,3.774,0,0,0,.447-.246c.038-.025.075-.052.112-.078.056-.048.113-.094.167-.145s.109-.107.16-.164l.056-.064a3.147,3.147,0,0,0,.19-.313l.014-.04c.018-.056.029-.112.043-.168v-.01c0-.016,0-.033,0-.049,0,0-.011-.025-.007-.1l-.009-.032c-.035-.05-.043-.077-.035-.077l-.017-.026c0,.01-.019-.008-.05-.074-.022-.023-.044-.046-.067-.068s-.052-.046-.078-.069c-.076-.049-.15-.1-.23-.141-.045-.024-.107-.065-.165-.091a.524.524,0,0,1-.074-.008,1,1,0,0,1-.123-.022c-.047,0-.093-.008-.14-.01-.095,0-.189,0-.284,0a1.958,1.958,0,0,1-.216.019H254.2l-.139.027q-.137.03-.272.071c-.051.016-.106.04-.162.062,0,.006-.026.018-.082.027l-.083.04q-.118.061-.229.132c-.032.02-.062.042-.093.063-.059.053-.119.1-.173.163l-.043.047c-.036.056-.069.113-.1.17-.007.02-.013.04-.019.059.005,0,0,.024-.018.092,0,.018,0,.035,0,.052,0-.005.006.017.005.085.01.041.022.082.035.122a.772.772,0,0,1-.531.935.656.656,0,0,1-.3.025,2.583,2.583,0,0,1,.26.394,3.714,3.714,0,0,1,.258.646" transform="translate(-175.345 -112.435)" fill="#fff"/>
        <path id="Path_2289" data-name="Path 2289" d="M274.925,150.682a.083.083,0,0,0-.02-.015c.011.014.019.023.02.015" transform="translate(-191.285 -104.838)" fill="#fbe46c"/>
        <path id="Path_2290" data-name="Path 2290" d="M273.889,150.6c.04-.011.023-.008,0,0" transform="translate(-190.578 -104.788)" fill="#fbe46c"/>
        <path id="Path_2291" data-name="Path 2291" d="M263.812,162.978l0,0c.013.021.026.043.04.064a.131.131,0,0,0-.036-.06" transform="translate(-183.564 -113.401)" fill="#fbe46c"/>
        <path id="Path_2292" data-name="Path 2292" d="M257.025,162.271l.017,0,.01-.005c-.009,0-.019.008-.028.009" transform="translate(-178.844 -112.906)" fill="#fbe46c"/>
        <path id="Path_2293" data-name="Path 2293" d="M257.145,162.189l-.029.014a.517.517,0,0,0,.071-.023c0-.005-.014-.005-.043.009" transform="translate(-178.907 -112.847)" fill="#fbe46c"/>
        <path id="Path_2294" data-name="Path 2294" d="M254.548,164.8l.011-.034s0-.009,0-.014a.335.335,0,0,1-.011.048" transform="translate(-177.121 -114.638)" fill="#fbe46c"/>
        <path id="Path_2295" data-name="Path 2295" d="M254.586,165.038c0-.023,0-.046,0-.069a.188.188,0,0,0,0,.069" transform="translate(-177.144 -114.789)" fill="#fbe46c"/>
        <path id="Path_2296" data-name="Path 2296" d="M258.374,168.621a.372.372,0,0,0,.079-.017c-.03,0-.059.011-.088.018h.009" transform="translate(-179.776 -117.319)" fill="#fbe46c"/>
        <path id="Path_2297" data-name="Path 2297" d="M264.148,163.483c0,.009,0,.014,0,.021l0,0a.227.227,0,0,1,0-.025" transform="translate(-183.799 -113.755)" fill="#fbe46c"/>
        <path id="Path_2298" data-name="Path 2298" d="M254.6,164.5a.137.137,0,0,0-.019.075v0c0-.021.009-.042.014-.062s0-.01,0-.016" transform="translate(-177.144 -114.46)" fill="#fbe46c"/>
        <path id="Path_2299" data-name="Path 2299" d="M264.164,163.584a.13.13,0,0,1-.011-.019v0c0,.006.005.009.011.015" transform="translate(-183.804 -113.812)" fill="#fbe46c"/>
        <path id="Path_2300" data-name="Path 2300" d="M264.156,163.678v0c0,.027,0,.054,0,.082a.123.123,0,0,0,0-.078" transform="translate(-183.805 -113.889)" fill="#fbe46c"/>
        <path id="Path_2301" data-name="Path 2301" d="M254.6,165.2c0,.019,0,.038,0,.057,0-.017,0-.029,0-.041h0c0-.005,0-.01,0-.016" transform="translate(-177.154 -114.947)" fill="#fbe46c"/>
        <path id="Path_2302" data-name="Path 2302" d="M264.108,163.484v0a.353.353,0,0,1-.016-.032l.006.023.01.014" transform="translate(-183.761 -113.73)" fill="#fbe46c"/>
        <path id="Path_2303" data-name="Path 2303" d="M362.264,422.481l.021.029h0l-.022-.03" transform="translate(-252.072 -293.972)" fill="#fbe46c"/>
        <path id="Path_2304" data-name="Path 2304" d="M219.706,396.522a1.489,1.489,0,0,0,.308.889q-.154-.445-.308-.889" transform="translate(-152.877 -275.909)" fill="#fbe46c"/>
        <path id="Path_2305" data-name="Path 2305" d="M74.439,365.567q-1.622-4.638-3.227-9.281a1.489,1.489,0,0,1-.308-.889l-.18-.521c-1.019-2.957-2.035-5.917-3.016-8.887-.416-1.259-.654-2.88-1.889-3.6a3.72,3.72,0,0,0-1.656-.383l-3.506-.281L54.1,341.2l-2.086-.167-6.514-.522-9.633-.772-9.692-.777-8.664-.694-6.665-.534-3.656-.293a1.255,1.255,0,0,0-.979.164c-.53.422-.361.954-.158,1.51l1.562,4.279,2.769,7.586,3.313,9.078,3.193,8.747,2.407,6.594.955,2.618c0,.007,0,.013,0,.02.731.036,1.464.11,2.194.163l5.09.368,7.074.511,8.407.607,8.979.648,8.9.642,8.155.589,6.656.481,4.5.326.154.011c-.006-.015-.014-.028-.02-.044l-.3-.857q-1.081-3.053-2.157-6.107-1.728-4.9-3.444-9.808M41.046,363.53a2.648,2.648,0,0,1-2.546-4.324,2.646,2.646,0,0,1,2.887-.77,2.649,2.649,0,0,1-.341,5.094" transform="translate(-4.074 -234.784)" fill="#efefef"/>
        <path id="Path_2306" data-name="Path 2306" d="M16.548,32.563A14.066,14.066,0,0,0,34.491,19.032a13.972,13.972,0,0,0-.152-2.111A14.076,14.076,0,0,0,8.381,11.743a14.073,14.073,0,0,0,8.167,20.82m-.042-7.2.414-.853,2.74-5.65V7.9a.761.761,0,0,1,1.521,0V18.449a2.239,2.239,0,0,1-.11.978c-1.034,2.257-2.169,4.472-3.252,6.706a.767.767,0,0,1-1.04.273.781.781,0,0,1-.273-1.041" transform="translate(-4.433 -3.45)" fill="#fff"/>
        <path id="Path_2307" data-name="Path 2307" d="M362.335,422.581l.021.03c.019.024.009.007-.021-.03" transform="translate(-252.121 -294.042)" fill="#fbe46c"/>
        <path id="Path_2308" data-name="Path 2308" d="M283.9,463.476c-.052-.045-.028-.022,0,0" transform="translate(-197.52 -322.479)" fill="#fbe46c"/>
        <line id="Line_22" data-name="Line 22" transform="translate(75.174 137.596)" fill="none" stroke="#fbe46c" stroke-linecap="round" stroke-linejoin="round" stroke-width="0"/>
        <path id="Path_2309" data-name="Path 2309" d="M205.421,247.987a9.848,9.848,0,0,0-.4,2.229,6.957,6.957,0,0,0,.025.841,3.807,3.807,0,0,0,.1.473c.02.071.041.134.059.189.144-.235.292-.465.438-.7a.9.9,0,0,1,.017-.726q.474-1.114.959-2.223.34-.779.686-1.556a5.7,5.7,0,0,0-2.243.639.7.7,0,0,1,.354.833" transform="translate(-142.657 -171.53)" fill="#7fa8a5"/>
        <path id="Path_2310" data-name="Path 2310" d="M376.2,230.54a.784.784,0,0,1-1.04.273,4.571,4.571,0,0,1-1.336-.927c-.244.659-.466,1.34-.673,2.035a.721.721,0,0,1,.369.005.645.645,0,0,1,.073.029.756.756,0,0,1,.458.906c-1.359,3.376-2.569,6.813-3.676,10.28a163.03,163.03,0,0,0-5.4,21.674c-1.142,6.58-1.931,13.426-1.141,20.094a.754.754,0,0,1-.672.751c0,.343.029.691.044,1.034l1.356-.212,10.359-1.618,6.509-1.017a.779.779,0,0,1,.935.531.766.766,0,0,1-.531.935l-2.357.368L369.124,287.3l-5.3.828c1.31,2.241,1.072,5.165.589,7.6a8.462,8.462,0,0,1-.932,2.7,2.4,2.4,0,0,1-.732.829.792.792,0,0,1-.135.067.729.729,0,0,1-.129.036q-.127.186-.267.364l5.684.59,11.414,1.184,6.044.627a.693.693,0,0,1,.6-.311q.784,0,1.569-.024a51.139,51.139,0,0,0,8.949-.859,13.962,13.962,0,0,0,3.755-1.209c.14-.076.277-.156.41-.242.055-.035.108-.073.162-.109l.1-.069a2.78,2.78,0,0,0,.559-.576,4.564,4.564,0,0,0,.642-2.622c.006-3.265-.242-6.532-.537-9.783-.347-3.82-.791-7.631-1.255-11.438-.457-3.751-.94-7.5-1.385-11.251-.4-3.408-.7-6.822-1.042-10.236-.167-1.653-.363-3.305-.688-4.935-.134-.67-.29-1.337-.483-1.992q-.125-.425-.274-.844-.071-.2-.149-.4-.038-.1-.077-.193l-.013-.032-.017-.038a10.917,10.917,0,0,0-.76-1.44c-.142-.225-.3-.444-.455-.657l-.045-.057-.118-.145q-.12-.145-.246-.285a11.339,11.339,0,0,0-1.111-1.075,12.867,12.867,0,0,0-1.3-.974,90.266,90.266,0,0,0-8.884-5.035c-1.772-.922-3.554-1.829-5.352-2.7a.767.767,0,0,1-.273-1.041.725.725,0,0,1,.213-.231,8.291,8.291,0,0,0-1.562-1.015.714.714,0,0,1-.08.229m5.7,51.91a.783.783,0,0,1-.76-.76l-.343-3.09-1.488-13.419-.94-8.477a.766.766,0,0,1,.76-.76.783.783,0,0,1,.76.76l.343,3.09,1.488,13.419q.47,4.239.94,8.477a.765.765,0,0,1-.76.76m7.786,5.406a13.952,13.952,0,0,0-5.551-3.5.761.761,0,1,1,.4-1.466,15.6,15.6,0,0,1,6.222,3.893c.684.7-.391,1.778-1.076,1.076m-10.851-38.884a22.268,22.268,0,0,1,3.4-5.59,16.649,16.649,0,0,1,4.444-3.972.761.761,0,0,1,.768,1.313,12.447,12.447,0,0,0-2.319,1.769,21.4,21.4,0,0,0-3.68,4.644,17.231,17.231,0,0,0-1.281,2.584,11,11,0,0,0-.647,2.38.779.779,0,0,1-.76.76.765.765,0,0,1-.76-.76,12.06,12.06,0,0,1,.838-3.127" transform="translate(-252.038 -159.96)" fill="#7fa8a5"/>
        <path id="Path_2311" data-name="Path 2311" d="M133.977,458.565a.843.843,0,0,1-.675-.416c-.324.12-.648.239-.972.361-1.888.712-3.724,1.406-5.516,2.271-.92.444-1.836.91-2.844.4a2.6,2.6,0,0,1-1.312-2.275,2.655,2.655,0,0,1,.1-.792c-.217.118-.435.236-.656.348-1.264.642-2.492,1.569-3.976,1.5a2.818,2.818,0,0,1-2.028-.881,2.278,2.278,0,0,1-.315-.482,2.894,2.894,0,0,1-1.855.26,2.4,2.4,0,0,1-.574-.2q.669,1.9,1.338,3.8.611,1.73,1.224,3.46a.667.667,0,0,1-.061.548l.124.009a.775.775,0,0,1,.76.76.767.767,0,0,1-.76.76c-.034,0-.068-.006-.1-.007-.806-.03-1.615-.116-2.42-.175l-5.09-.368-7.074-.511-8.407-.607-8.979-.648-8.9-.642-8.155-.589-6.656-.481-4.5-.325-.826-.06q.063.657.125,1.315c.6.038,1.21.1,1.811.147l5.067.367,7.079.513,8.343.6,8.946.649,8.862.643,8.092.587,6.658.483,4.48.325,1.646.119a.912.912,0,0,1,.183.034l2.262-1.017,9.992-4.491,6.276-2.821a.788.788,0,0,1,.986.2l5.03-1.979-4.467-.463-2.264-.235" transform="translate(-38.179 -318.769)" fill="#efefef"/>
        <path id="Path_2312" data-name="Path 2312" d="M251.86,80.768c.694,3.215.813,6.521,1.3,9.767a18.6,18.6,0,0,0,2.778,8.112,17.3,17.3,0,0,0,2.544,2.9,10.659,10.659,0,0,0,3.536,2.164,11.592,11.592,0,0,0,7.9-.348,20.1,20.1,0,0,0,7.691-5.033c.676-.711,1.75.366,1.076,1.075a21.541,21.541,0,0,1-9.286,5.729,13.825,13.825,0,0,1-4.892.6,6.492,6.492,0,0,1-1.916,6.316.94.94,0,0,1-.485.208.7.7,0,0,1-.59-.208.765.765,0,0,1,0-1.076,4.1,4.1,0,0,0,.714-.744,14.133,14.133,0,0,0-2.512,1.98.638.638,0,0,1,.072.573,83.875,83.875,0,0,0-2.768,7.993,96.221,96.221,0,0,0-3.235,16.48,121.7,121.7,0,0,0-.472,19.75.658.658,0,0,1-.6.723v2.1c.081,0,.162-.008.243,0a10.5,10.5,0,0,1,2.885.639c1.054.357,2.083.784,3.108,1.215.912.383,1.82.783,2.752,1.118a13.266,13.266,0,0,0,2.988.638c3.132.362,6.295.352,9.432.656a1.012,1.012,0,0,1,.214.047.739.739,0,0,1,.547.714.766.766,0,0,1-.76.76c-3.457-.336-6.954-.281-10.394-.782a12.905,12.905,0,0,1-2.784-.7c-.96-.367-1.9-.781-2.851-1.177-1.019-.424-2.044-.839-3.1-1.17a12.427,12.427,0,0,0-1.369-.357,2.989,2.989,0,0,0-.534-.075c-.175-.013-.347-.008-.522,0l-.046,0c-.024,0-.048.007-.071.012-.121.027-.24.06-.359.093-.364.1-.724.218-1.08.343a22.142,22.142,0,0,0-2.119.879,38.308,38.308,0,0,0-4.065,2.272c-1.772,1.121-3.507,2.313-5.18,3.577a.766.766,0,0,1-1.041-.273.7.7,0,0,1-.1-.418,2.564,2.564,0,0,0-.683.306q.588,1.677,1.173,3.356.242.689.485,1.378c.224-.352.5-.683.753-1.007.351-.456.713-.9,1.094-1.334a19.7,19.7,0,0,1,3.967-3.465,23.075,23.075,0,0,1,3.485-1.761c1.352-.588,2.712-1.162,4.081-1.708a.766.766,0,0,1,.935.531.784.784,0,0,1-.531.935c-1.337.533-2.664,1.093-3.983,1.67a22.22,22.22,0,0,0-3.023,1.519A17.357,17.357,0,0,0,243,170.978a22.016,22.016,0,0,0-1.868,2.23c-.154.21-.3.424-.45.639a.1.1,0,0,1-.006.025c0,.007,0,.01,0,.019v.028c.018.034.047.123,0,.026,0-.009,0-.017,0-.026s-.009-.014-.01-.01v0h0a.088.088,0,0,0,0,.015c0,.009,0,.02.007.036a2.248,2.248,0,0,0,.067.232c.016.03.064.135.076.156.022.037.046.074.07.11l.019.031.024.026c.046.051.094.1.142.147a1.328,1.328,0,0,0,.39.231.79.79,0,0,0,.406.053c.006,0,.069,0,.08,0a1.906,1.906,0,0,0,.231-.053,2.312,2.312,0,0,0,.705-.358,3.07,3.07,0,0,1,1.515-2q1.03-.7,2.053-1.408c1.051-.728,2.079-1.5,3.149-2.2a8.124,8.124,0,0,1,1.411-.61l4.779-1.935a.765.765,0,0,1,.935.531.784.784,0,0,1-.531.935l-5.1,2.064c-.212.086-.424.173-.637.258,0,0,0,0,0,.008a1.723,1.723,0,0,1-.287.2q-1.611,1.135-3.232,2.256c-.647.447-1.3.885-1.946,1.333a1.449,1.449,0,0,0-.562.642,1.11,1.11,0,0,0-.052.214.787.787,0,0,1-.016.308.712.712,0,0,0,.014.111.954.954,0,0,0,.093.273.673.673,0,0,0,.181.212,1.462,1.462,0,0,0,.6.244,3.194,3.194,0,0,0,2.2-.639,10.777,10.777,0,0,1,1.08-.572c.542-.276,1.07-.575,1.6-.874.817-.462,1.621-.978,2.473-1.377a26.9,26.9,0,0,1,2.634-.927q1.536-.532,3.055-1.115a.766.766,0,0,1,.935.531.779.779,0,0,1-.516.929.59.59,0,0,1-.244.219q-2.131.99-4.228,2.052c-.758.386-1.518.777-2.243,1.223a1.03,1.03,0,0,0-.447.593c-.012.043-.04.2-.046.214-.005.065-.009.13-.008.195,0,.046,0,.091.006.137v.012c.013.074.029.147.05.219.015.052.033.1.053.156l0,0c.041.078.083.151.131.225h0l.063.069c.025.026.052.05.079.075l.01.007c.044.026.086.051.131.075h0l.126.035.014,0a.7.7,0,0,0,.417-.052,8.653,8.653,0,0,0,.986-.47c.4-.187.8-.364,1.2-.537,2.777-1.2,5.622-2.251,8.477-3.246a.768.768,0,0,1,.936.531.78.78,0,0,1-.531.936c-.161.056-.321.115-.482.172.52.058,1.04.12,1.559.173l6.957.722,4,.415q.14-.178.267-.364a.653.653,0,0,1-.115.011h-.015a.637.637,0,0,1-.105-.01l-.018,0a.667.667,0,0,1-.1-.029l-.018-.007a.659.659,0,0,1-.09-.045l-.015-.01a.7.7,0,0,1-.084-.06l-.009-.009a.848.848,0,0,1-.2-.261l-.009-.016c-.01-.021-.017-.043-.026-.065s-.015-.038-.021-.057-.01-.039-.014-.059-.01-.045-.013-.068,0-.037,0-.056,0-.049,0-.074,0-.036,0-.054a.725.725,0,0,1,.012-.076c0-.017.008-.034.012-.051a.632.632,0,0,1,.029-.076c.007-.016.013-.032.021-.047a.764.764,0,0,1,.05-.078c.009-.012.016-.025.026-.037a.743.743,0,0,1,.1-.1,1.038,1.038,0,0,1,.114-.111c.03-.03.052-.068.082-.1l-.026.026c-.05.062-.119.12,0,0l.02-.028c.077-.12.15-.241.216-.368.037-.071.069-.144.1-.215.007-.013.017-.037.026-.056s.02-.047.029-.071c.069-.181.134-.364.192-.549a12.943,12.943,0,0,0,.4-1.726,12.361,12.361,0,0,0,.115-4.03,7.261,7.261,0,0,0-.362-1.337c-.01-.027-.038-.092-.046-.111s-.022-.05-.034-.074c-.039-.081-.078-.162-.121-.242-.07-.131-.146-.259-.228-.382-.028-.041-.057-.081-.086-.121l-.022-.031-.022-.027c-.054-.061-.108-.124-.165-.182-.112-.112-.262-.211-.035-.049a.8.8,0,0,1-.36-.589.781.781,0,0,1,0-.169.75.75,0,0,1,.545-.632l1-.156c-.015-.343-.047-.691-.044-1.034a.638.638,0,0,1-.088.01.784.784,0,0,1-.76-.76,54.85,54.85,0,0,1-.067-10.777,128.329,128.329,0,0,1,3.961-22.07,163.987,163.987,0,0,1,5.7-17.886c.222-.574.444-1.148.673-1.719a.856.856,0,0,1,.567-.536c.207-.7.429-1.376.673-2.035a7.231,7.231,0,0,1-.79-.916,16.083,16.083,0,0,1-2.309-5.756c-.583-2.417-.942-4.884-1.288-7.344a.814.814,0,0,1,.356-.862.758.758,0,0,1,1.111.457c.194,1.38.395,2.759.634,4.133a32.752,32.752,0,0,0,1.633,6.413,9.316,9.316,0,0,0,1.227,2.259,3.839,3.839,0,0,0,1.529,1.229.731.731,0,0,1,.353.811,8.288,8.288,0,0,1,1.562,1.015.823.823,0,0,1,.827-.041l.409.2q3.752,1.841,7.436,3.819c1.6.862,3.191,1.745,4.748,2.683a24.023,24.023,0,0,1,3.3,2.288,10.623,10.623,0,0,1,1.337,1.378,2.8,2.8,0,0,0,1.56-.586.805.805,0,0,1-.246-.791.779.779,0,0,1,.935-.531,3,3,0,0,0,2.672-.85,9.729,9.729,0,0,1-4.016-.372,7.243,7.243,0,0,1-3.355-2.072,10.476,10.476,0,0,1-2.158-3.983,28.651,28.651,0,0,1-.874-5.252,25.429,25.429,0,0,0-.939-4.939,14.223,14.223,0,0,0-5.062-7.378,10.406,10.406,0,0,0-8.14-1.85c-.079.017-.158.031-.236.051a14.1,14.1,0,0,1,1.873,1.112,15.561,15.561,0,0,1,6.586,11.984c.034.981-1.487.976-1.521,0a13.018,13.018,0,0,0-.616-3.51,13.953,13.953,0,0,0-8.428-8.843.761.761,0,0,1,.4-1.467c.24.085.475.181.711.277a.824.824,0,0,1,0-.591,7.106,7.106,0,0,0-1.067-.763c-.236.193-.477.381-.727.558a.639.639,0,0,1-.492.093,2.281,2.281,0,0,1-3.073,1.427A2.226,2.226,0,0,1,282,88.71a2.3,2.3,0,0,1,3.017-3.166c.026.011.048.028.073.04a10.472,10.472,0,0,0,1.327-1.829,7.707,7.707,0,0,0,.645-1.46,7.612,7.612,0,0,0,.212-.81,4.682,4.682,0,0,0,.082-.537,4.614,4.614,0,0,0-.31-2.39h0l-.012-.023c-.018-.037-.036-.076-.054-.113q-.062-.124-.132-.244a2.507,2.507,0,0,0-.323-.451,1.872,1.872,0,0,0-1.011-.628.629.629,0,0,0-.271-.03c-.054,0-.108,0-.162,0-.018,0-.1.012-.116.014a1.808,1.808,0,0,0-.534.179,3.11,3.11,0,0,0-.764.574,5.086,5.086,0,0,0-.589.726c-.548.806-1.865.044-1.313-.767.088-.13.183-.257.28-.383a3.862,3.862,0,0,1,3.912-1.774c2.253.561,3.111,3.248,2.92,5.308a9.992,9.992,0,0,1-2.746,5.745c.007.017.016.032.023.049a12.906,12.906,0,0,0,2.433-2.46,20.389,20.389,0,0,0,3.333-6.734,14.772,14.772,0,0,0,.52-6.841.783.783,0,0,1,.429-.9,23.889,23.889,0,0,0-.628-2.713.736.736,0,0,1-1.308-.25A17.5,17.5,0,0,0,287.693,60a19.549,19.549,0,0,0-11.243-7.34,23.74,23.74,0,0,0-6.571-.4,11.073,11.073,0,0,0-6.042,1.987.779.779,0,0,1-1.075,0,.832.832,0,0,1-.214-.659,6,6,0,0,0-1.48.639c.652.08,1.049,1.033.326,1.393a17.05,17.05,0,0,0-1.871,1.118,21.717,21.717,0,0,0-3.382,2.769c-.219.218-.43.444-.638.673a15.738,15.738,0,0,0-2.572,3.759,18.987,18.987,0,0,0-1.834,6.18,20.424,20.424,0,0,0,.506,6.53.789.789,0,0,1-.877.944c.169.888.291,1.763.4,2.636a.652.652,0,0,1,.738.54m2.851-.272a.761.761,0,0,1,0-1.521.761.761,0,0,1,0,1.521m3.351-1.509c-.23-.953,1.237-1.355,1.467-.4a9.83,9.83,0,0,1,.189,3.947,12.5,12.5,0,0,1-1.332,3.646.769.769,0,0,1-1.041.273.778.778,0,0,1-.273-1.041,11.292,11.292,0,0,0,1.16-3.175,7.905,7.905,0,0,0-.171-3.245m-.86,9.741a.76.76,0,0,1,.273-1.041.564.564,0,0,1,.283-.09.578.578,0,0,1,.3.014c.505.081.99.248,1.5.329a.738.738,0,0,1,.454.35.76.76,0,0,1-.273,1.04.565.565,0,0,1-.283.09.578.578,0,0,1-.3-.014c-.505-.081-.99-.248-1.5-.329a.737.737,0,0,1-.454-.349m8,8.62a3.33,3.33,0,0,1-2.592,1.8,4.233,4.233,0,0,1-3.236-.937.766.766,0,0,1,0-1.076.784.784,0,0,1,1.076,0,2.656,2.656,0,0,0,2.248.453,1.738,1.738,0,0,0,1.257-1.2,2.185,2.185,0,0,0,.063-.276c0-.011.007-.12.007-.144s0-.17,0-.205l-.008-.06c-.011-.051-.022-.1-.035-.152a.9.9,0,0,0-.182-.4,1.753,1.753,0,0,0-.33-.35,3.611,3.611,0,0,0-2.221-.622,6.861,6.861,0,0,0-1.99.237l.341,1.369a.761.761,0,0,1-1.466.4l-.509-2.047a.765.765,0,0,1,.35-.859,7.967,7.967,0,0,1,4.016-.577,4.184,4.184,0,0,1,3.073,1.6,3.032,3.032,0,0,1,.144,3.033m.6-16.341a.761.761,0,0,1,0-1.521.761.761,0,0,1,0,1.521m3.028-5.922a6.1,6.1,0,0,0-2.518-1.564,5.784,5.784,0,0,0-2.949-.034.761.761,0,1,1-.4-1.466,7.441,7.441,0,0,1,3.757.034,7.652,7.652,0,0,1,3.189,1.955c.7.688-.377,1.763-1.075,1.076M266.967,120q-.8,2.442-1.536,4.907a176.945,176.945,0,0,0-4.251,17.555.767.767,0,0,1-.935.531.781.781,0,0,1-.531-.935q.477-2.526,1.026-5.038A176.878,176.878,0,0,1,265.5,119.6c.3-.927,1.773-.528,1.466.4m1.984,15.977a.778.778,0,0,1-.76.76.765.765,0,0,1-.76-.76l1.679-15.19a.778.778,0,0,1,.76-.76.765.765,0,0,1,.76.76q-.839,7.595-1.679,15.19m12.082-19.851a28.648,28.648,0,0,1-4.9,1.864c-5.089,1.409-11.248,1.794-15.776-1.388a.776.776,0,0,1-.273-1.04.767.767,0,0,1,1.041-.273,11.738,11.738,0,0,0,4,1.785,18.811,18.811,0,0,0,7.193.174,27.329,27.329,0,0,0,7.949-2.435.777.777,0,0,1,1.041.273.768.768,0,0,1-.273,1.041m1.32-3.267a22.542,22.542,0,0,1-4.264,1.866,27.715,27.715,0,0,1-8.659,1.4,14.291,14.291,0,0,1-7.563-1.811c-.827-.521-.063-1.836.768-1.313.039.025.079.046.118.07a8.558,8.558,0,0,0,1.143.582,11.646,11.646,0,0,0,2.334.675,21.589,21.589,0,0,0,7.937-.17,23.555,23.555,0,0,0,7.418-2.614.739.739,0,0,1,1.081.415.7.7,0,0,1-.313.9m-15.577-52a.782.782,0,0,1,1.075,0q1.608,1.327,3.107,2.776a52.723,52.723,0,0,1,7.284,8.8c.614.929,1.2,1.875,1.756,2.84.009.016.014.032.022.048a.727.727,0,0,1,.345.011.767.767,0,0,1,.531.935c-.039.106-.072.213-.109.319a21.813,21.813,0,0,0-1.164,6.968c-.049,4.511.943,8.95,1.924,13.327.868,3.875,2.536,9.383-1.521,12.1-.817.546-1.577-.772-.768-1.313,1.832-1.225,2.046-3.711,1.789-5.7-.282-2.175-.9-4.324-1.363-6.464-.485-2.222-.928-4.453-1.227-6.709a27.531,27.531,0,0,1,.786-12.385.682.682,0,0,1-.558-.364q-1.021-1.779-2.177-3.476c-.1-.152-.214-.3-.319-.449a51.463,51.463,0,0,0-9.413-10.178.766.766,0,0,1,0-1.075m-7.69,1.066A19.444,19.444,0,0,0,261.6,65.08a20.524,20.524,0,0,0,12.66,6.028.776.776,0,0,1,.76.76c0,.021,0,.042-.007.063a.76.76,0,0,1-.754.7,21.437,21.437,0,0,1-4.3-.8,22.091,22.091,0,0,1-10.534-6.9,21.184,21.184,0,0,1-1.653-2.239c-.529-.828.788-1.59,1.313-.768m-6.711,10.727a3.949,3.949,0,0,1,4.889-.308.784.784,0,0,1,.273,1.04.763.763,0,0,1-1.041.273,2.815,2.815,0,0,0-.436-.276c-.031-.016-.064-.03-.1-.046-.077-.027-.153-.055-.232-.078s-.16-.043-.241-.06l-.109-.021h0a4.248,4.248,0,0,0-.461-.017c-.081,0-.161.011-.241.017h0l-.11.021a3.863,3.863,0,0,0-.487.14l-.013,0-.09.042c-.076.038-.151.078-.223.122s-.135.089-.2.134c-.033.03-.067.057-.1.087a.778.778,0,0,1-1.075,0,.766.766,0,0,1,0-1.076" transform="translate(-165.491 -36.315)" fill="#fff"/>
        <path id="Path_2313" data-name="Path 2313" d="M170.711,268.24a9.735,9.735,0,0,1,3.528.6,4.313,4.313,0,0,1,2.126,2.626q.252.79.512,1.577.657,2,1.334,3.985,1.34,3.952,2.711,7.894c.065,0,.13,0,.195-.007a.676.676,0,0,1-.068-.091.786.786,0,0,1,.273-1.041,23.683,23.683,0,0,0,5.446-5.919.774.774,0,0,1,1.04-.273.708.708,0,0,1,.132.1,11.655,11.655,0,0,0,.581-1.295,43.185,43.185,0,0,1-.241-11.05,45.246,45.246,0,0,1,1.835-6.658,42.94,42.94,0,0,0,1.509-6.777.78.78,0,0,1,.76-.76c.372,0,.815.353.76.76a46.564,46.564,0,0,1-1.759,7.814,34.783,34.783,0,0,0-1.7,6.542,33.565,33.565,0,0,0-.017,6.392c.37,4.692,1.163,9.335,1.136,14.055a.753.753,0,0,1-1.027.693c-.2,1.137-.474,2.249-.6,3.41.789-.52,1.584-1.03,2.393-1.514a33.427,33.427,0,0,1,4.253-2.169,9.614,9.614,0,0,1,3.32-.975v-2.1a.779.779,0,0,1-.923-.723c-.208-3.848-.257-7.7-.118-11.555a108.066,108.066,0,0,1,2.137-18.068,87.424,87.424,0,0,1,4.511-15,.779.779,0,0,1,.936-.531.82.82,0,0,1,.46.363,14.121,14.121,0,0,1,2.512-1.98,4.846,4.846,0,0,0,.841-2.111c0-.023.006-.036.009-.049s0-.032.006-.061q.01-.1.019-.194c.012-.136.019-.271.022-.408a13.14,13.14,0,0,0-3.537,1.279.789.789,0,0,1-.133,1.43l-1.122.357c-3.69,1.176-7.4,2.321-11.03,3.684a.767.767,0,0,1-.935-.531.719.719,0,0,1-.012-.333,6.943,6.943,0,0,0-1.862.861.725.725,0,0,1,.777.932l-.934,3.056-4.044,13.239-2.553,8.358c-.285.935-1.753.534-1.466-.4l.933-3.055,4.044-13.239,1.757-5.751a14.178,14.178,0,0,1-3.75,1.853,18.016,18.016,0,0,1-5.034.859,14.873,14.873,0,0,1-4.871-.539,4.487,4.487,0,0,1-2.078-1.33,3.75,3.75,0,0,1-.751-1.381c-.028-.095-.045-.192-.067-.288l-.015.034-2.907,6.657-3.361,7.7-2.778,6.36-1.156,2.648a.766.766,0,0,1-1.04.273.748.748,0,0,1-.14-.106c-.21.364-.426.73-.652,1.092l4.688.376,5.191.416" transform="translate(-111.911 -162.64)" fill="#7fa8a5"/>
        <path id="Path_2314" data-name="Path 2314" d="M258.067,165.244c-.057-.409-.107-.819-.156-1.229-.03-.253-.058-.506-.086-.759-.014-.128-.029-.255-.043-.383-.1-.965-.2-1.932-.317-2.9v0l-1.1.614a.786.786,0,0,1,.156.029l.026.009a.662.662,0,0,1,.119.052l.036.021a.7.7,0,0,1,.1.077c.011.01.023.019.033.03a.758.758,0,0,1-.165,1.182l-.912.408L249.47,165.2c.016.069.032.137.051.206a11.112,11.112,0,0,1,.556,2.468,2.3,2.3,0,0,1-2.946,2.172.772.772,0,0,1,.157.2c.916,1.7,1.859,3.38,2.8,5.066.829,1.491,1.661,2.982,2.474,4.482.175.322.263.621.675.464a5.368,5.368,0,0,0,.555-.285q.787-.412,1.575-.822,2.923-1.522,5.851-3.035a.748.748,0,0,1,.95.2l.316-.11a19.351,19.351,0,0,1-1.736-2.317,21.319,21.319,0,0,1-2.678-8.647" transform="translate(-171.96 -111.312)" fill="#ccdcdb"/>
        <path id="Path_2315" data-name="Path 2315" d="M271.932,148.266a.762.762,0,0,1-1.076,0,.833.833,0,0,1-.084-.095h0l-.054-.018c-.027,0-.065-.005-.1-.007l-.02.006-.079.02-.037.009-.009,0-.094.054,0,0-.051.046c-.03.029-.056.064-.087.091l-.007.005c-.015.022-.031.044-.046.067-.035.053-.067.108-.1.165-.022.041-.041.083-.061.125,0,.007-.03.073-.042.107-.067.188-.116.381-.166.575q-.126.492-.253.983l-.422,1.629a.705.705,0,0,1-.084.191,1.977,1.977,0,0,1-.047.442l2.113-.945a1.044,1.044,0,0,1,.216-.068l.027-.006a.888.888,0,0,1,.223-.012l1.1-.614v0q-.047-.395-.1-.788-.023-.172-.047-.345-.042-.309-.089-.617c-.029-.189-.06-.377-.091-.565-.025-.15-.048-.3-.075-.449-.062-.346-.128-.692-.2-1.036a.838.838,0,0,1-.011-.1.546.546,0,0,0-.216-.005c.024.026.051.047.072.075a.784.784,0,0,1,0,1.076" transform="translate(-187.185 -102.361)" fill="#fff"/>
        <path id="Path_2316" data-name="Path 2316" d="M214.7,176.609c-.6,2.489-1.2,4.979-1.873,7.448-.3,1.1-.665,2.183-.942,3.287a23.638,23.638,0,0,1-.569,2.5,16.586,16.586,0,0,1-.828,1.685c-.246.488-.478.984-.707,1.48-.821,1.78-1.6,3.578-2.37,5.381a.765.765,0,0,1-1.04.273.7.7,0,0,1-.29-.314c-.146.233-.294.463-.439.7.022.062.04.111.053.137a2.189,2.189,0,0,0,.854.986,4.858,4.858,0,0,0,1.727.6,16.393,16.393,0,0,0,4.348.22,13.607,13.607,0,0,0,7.965-3.06.766.766,0,0,1-.526-.933l1.071-2.867c.149-.4.275-.706.721-.868.38-.139.763-.268,1.142-.409a28.415,28.415,0,0,0,3.768-1.614,5.924,5.924,0,0,0,1.365-.989c.605-.555,1.178-1.146,1.765-1.721a13.033,13.033,0,0,1,4.118-3.081.762.762,0,0,1,.924.5c.117-.187.226-.367.332-.543a16.337,16.337,0,0,1-1.657-1.651l-.315.11a.7.7,0,0,1-.183,1.115l-2.661,1.379q-1.995,1.034-3.988,2.072c-.476.248-.946.528-1.439.742a1.968,1.968,0,0,1-1.79-.022,2.8,2.8,0,0,1-.93-1.171q-.671-1.238-1.356-2.469c-.017.093-.034.186-.055.279a11.082,11.082,0,0,1-1.149,2.614c-.577,1.111-1.1,2.253-1.6,3.4a.765.765,0,0,1-1.04.273.785.785,0,0,1-.273-1.04c.458-1.059.939-2.111,1.461-3.14a12.629,12.629,0,0,0,1.052-2.207,5.389,5.389,0,0,0,.031-2.828.806.806,0,0,1-.024-.212c-.757-1.358-1.513-2.718-2.251-4.086a.783.783,0,0,1,.682-1.142c-1.014-.513-1.389-1.736-1.838-2.7a.777.777,0,0,1,.273-1.04.767.767,0,0,1,1.041.273l.572,1.226a4.524,4.524,0,0,0,.236.474,1.351,1.351,0,0,0,.3.346,1.492,1.492,0,0,1,.132.081l.061.03.058.02c.04.011.126.028.135.033.04,0,.081.006.121.006.019,0,.11-.01.148-.012l.093-.022c.024-.007.128-.047.163-.057l.082-.044c.044-.026.086-.055.128-.084.013-.011.03-.026.047-.044.045-.047.149-.206.05-.042.025-.042.051-.085.078-.125-.07.106-.033.033.005-.034a.147.147,0,0,0,.009-.032c0-.015,0-.03,0-.045,0-.132-.008-.362-.016-.424,0,0-.026-.142-.033-.175-.016-.079-.033-.158-.051-.236-.155-.662-.415-1.3-.522-1.978a7.541,7.541,0,0,0-.217-1.045,1.825,1.825,0,0,0-.158-.4c-.035-.068-.077-.13-.114-.2a.336.336,0,0,1-.023-.045.3.3,0,0,1-.036-.036c-.026-.029-.136-.128-.138-.137a1.15,1.15,0,0,0-.13-.078s-.131-.041-.16-.049l-.01,0c-.022,0-.044,0-.065,0-.074,0-.148,0-.222.005-.01,0-.144.023-.174.03-.076.018-.151.041-.226.064-.028.009-.055.019-.083.03l-.063.028c-.081.041-.159.086-.236.134-.029.018-.057.037-.085.057l-.031.029c-.044.041-.085.084-.125.128-.005.012-.053.081-.067.1l-.019.029a.224.224,0,0,1-.012.055c-.013.046-.03.09-.044.135l-.113.349q-.436,1.358-.86,2.721a.787.787,0,0,1-1.356.242q-.172.358-.357.708a.768.768,0,0,1,.757.944" transform="translate(-143.092 -118.858)" fill="#fff"/>
        <path id="Path_2317" data-name="Path 2317" d="M105.22,144.383c.511.608,1.012,1.227,1.495,1.859q3.339-3.694,6.643-7.42,4.3-4.859,8.519-9.791,1.169-1.372,2.323-2.755l-.153-.129c-3.917-3.235-8.15-6.233-12.452-9.127a24.175,24.175,0,0,1-.886,3.977c-1.972,6.308-6.052,11.778-10.378,16.673a.675.675,0,0,1-1.07-.043,10.96,10.96,0,0,1-.779,1.094,7.729,7.729,0,0,1,2.366,1.318,28.184,28.184,0,0,1,4.373,4.343" transform="translate(-68.525 -81.425)" fill="#fff"/>
        <path id="Path_2318" data-name="Path 2318" d="M26.186,249.566l10.557-2.14a24.846,24.846,0,0,1-3.181-2.486,25.918,25.918,0,0,1-8.294-17.884,20.611,20.611,0,0,1-3.657.841,70.661,70.661,0,0,1-10.441.668c-1.349,0-2.7-.007-4.05-.05q.309.486.622.971c2.266,3.514,4.663,6.985,7.215,10.276,1.476,1.9,3.013,3.764,4.669,5.514.755.8,1.536,1.572,2.359,2.3a16.249,16.249,0,0,0,2.154,1.66.756.756,0,0,1,.238,1.045,4.711,4.711,0,0,0,1.269.156.763.763,0,0,1,.542-.87" transform="translate(-4.953 -157.991)" fill="#fff"/>
        <path id="Path_2319" data-name="Path 2319" d="M116.786,416.97c-.011-.016-.021-.03-.023-.028s.014.026.039.053l-.01-.016-.006-.009" transform="translate(-81.246 -290.118)" fill="#fff"/>
        <path id="Path_2320" data-name="Path 2320" d="M118.319,411.983l-.008-.032c-.025-.1-.05-.192-.081-.289l0-.005c-.025-.043-.046-.088-.071-.13s-.051-.079-.077-.118l-.007-.007-.174-.174-.015-.012-.027-.019c-.027-.019-.055-.036-.084-.053-.045-.027-.1-.047-.144-.077-.093-.029-.186-.054-.281-.078h0c-.043,0-.087-.005-.13-.006s-.088,0-.132,0-.157.046-.054,0-.022.006-.05.013l-.1.025c-.049.014-.1.031-.144.047l-.018.006c-.07.038-.177.107-.2.121l-.026.018-.016.013-.036.033c-.009.008-.1.09-.141.14l-.014.022c-.022.035-.046.068-.067.1s-.047.088-.071.13l0,.005c-.025.079-.052.157-.07.239,0,.021-.008.048-.013.072s0,.022,0,.033a1.871,1.871,0,0,0,0,.237c0,.011,0,.014,0,.022a.043.043,0,0,1,0,.007c.008.033.014.067.022.1s.05.235.078.239c-.045-.1-.05-.12-.016-.045l.023.044c.016.029.032.058.049.086s.05.077.075.115l.019.027c.056.058.151.144.165.157l0,.005c.026.018.052.037.078.053s.1.061.158.093l.037.013c.041.014.082.029.124.04s.1.023.145.034c.081,0,.162.01.243.006h.062l.044-.01c.083-.017.163-.044.244-.068l.015,0,.01-.007c.029-.016.059-.03.088-.046s.208-.106.207-.135q-.132.1-.039.026l.037-.033c.024-.022.048-.045.071-.069s.05-.061.078-.085c.051-.08.1-.159.144-.242l.013-.023c.01-.033.019-.068.022-.074s.034-.118.05-.185v-.015c0-.053.006-.1.006-.158,0-.013,0-.075,0-.129" transform="translate(-80.755 -285.96)" fill="#fff"/>
        <path id="Path_2321" data-name="Path 2321" d="M116.763,412.453l.02-.03c-.013.015-.022.027-.02.03" transform="translate(-81.247 -286.974)" fill="#fff"/>
        <path id="Path_2322" data-name="Path 2322" d="M118.237,411.265a.311.311,0,0,0,.058-.023s-.027.007-.058.023" transform="translate(-82.272 -286.151)" fill="#fff"/>
        <path id="Path_2323" data-name="Path 2323" d="M116.894,417.118l0,0c.018.026.014.02,0,0" transform="translate(-81.336 -290.239)" fill="#fff"/>
        <path id="Path_2324" data-name="Path 2324" d="M118.185,418.123l0,0c-.024-.008-.035-.01,0,0" transform="translate(-82.218 -290.934)" fill="#fff"/>
        <path id="Path_2325" data-name="Path 2325" d="M123.165,416.2a.245.245,0,0,0-.024.054c.005,0,.015-.026.024-.054" transform="translate(-85.684 -289.6)" fill="#fff"/>
        <path id="Path_2326" data-name="Path 2326" d="M123.475,415.151c.007-.032.012-.057.008-.058a.2.2,0,0,0-.008.058" transform="translate(-85.917 -288.831)" fill="#fff"/>
        <path id="Path_2327" data-name="Path 2327" d="M123.455,414.043a.366.366,0,0,0,.012.073c0-.037,0-.07-.012-.073" transform="translate(-85.902 -288.101)" fill="#fff"/>
        <path id="Path_2328" data-name="Path 2328" d="M118.245,418.144c.029.016.053.027.056.023s-.009-.007-.023-.013l-.02-.006-.013,0" transform="translate(-82.278 -290.954)" fill="#fff"/>
        <path id="Path_2329" data-name="Path 2329" d="M114.605,406.164a2.646,2.646,0,0,0-2.888.771,2.651,2.651,0,1,0,2.888-.771m.239,2.29c.008,0,.01.036.012.073a.366.366,0,0,1-.012-.073m-1.529-.851a.3.3,0,0,1-.058.023c.031-.017.055-.028.058-.023m-.486.359-.02.03s.007-.015.02-.03m1.92,1.2a.254.254,0,0,1,.024-.054c-.009.028-.019.053-.024.054m.1-.327c-.016.067-.044.165-.05.185s-.011.041-.022.075l-.013.023c-.047.083-.093.162-.145.242-.028.024-.052.06-.078.086s-.046.046-.071.068l-.037.033q-.094.078.039-.026c0,.029-.188.124-.207.135s-.059.03-.088.046l-.01.007-.015,0c-.081.024-.16.051-.244.068l-.044.01H113.8c-.082,0-.162,0-.243-.006-.049-.011-.1-.021-.145-.034s-.083-.026-.124-.04c.014.005.025.011.023.013s-.027-.008-.056-.023-.029-.01,0,0c-.059-.032-.141-.082-.158-.093s-.052-.036-.078-.053l-.005-.005c-.013-.013-.109-.1-.165-.157.012.018.016.025,0,0s-.043-.047-.039-.052.012.012.023.028c-.025-.038-.051-.076-.075-.115s-.033-.057-.049-.086l-.023-.044c-.035-.075-.03-.06.016.045-.027,0-.071-.212-.078-.239s-.015-.067-.022-.1l0-.006c0-.008,0-.012,0-.022a1.929,1.929,0,0,1,0-.237c0-.011,0-.022,0-.033s.008-.051.013-.072c.018-.082.045-.159.07-.239l0-.005c.025-.043.046-.088.071-.13s.045-.069.067-.1l.014-.022c.046-.05.132-.131.141-.14l.036-.033.016-.013.026-.018c.021-.014.128-.082.2-.121l.018-.006c.048-.016.1-.033.144-.047l.1-.025c.029-.006.162-.06.051-.013s.013,0,.054,0,.088,0,.132,0,.087,0,.13.006h0c.1.024.188.049.281.078.044.029.1.05.144.077.028.017.056.035.084.053l.027.019.015.012.174.174.007.007c.026.04.053.078.077.118s.047.087.071.13l0,.005c.031.1.056.191.081.289l.008.031c0,.054,0,.116,0,.129,0,.053,0,.105-.007.158v.015m0,0a.2.2,0,0,1,.008-.058s0,.026-.008.058" transform="translate(-77.292 -282.512)" fill="#323232"/>
        <path id="Path_2330" data-name="Path 2330" d="M118.235,418.138l.013,0,.02.006-.037-.013,0,0" transform="translate(-82.267 -290.949)" fill="#323232"/>
        <path id="Path_2331" data-name="Path 2331" d="M116.844,417.043l.01.016,0,0-.019-.027.006.009" transform="translate(-81.299 -290.182)" fill="#323232"/>
        <path id="Path_2332" data-name="Path 2332" d="M278.3,81.292a20.416,20.416,0,0,1-.506-6.53,18.988,18.988,0,0,1,1.834-6.18,15.745,15.745,0,0,1,2.572-3.759c.207-.229.419-.454.637-.673a21.707,21.707,0,0,1,3.383-2.769,17.1,17.1,0,0,1,1.871-1.118c.723-.359.325-1.312-.326-1.393a.765.765,0,0,0-.441.079,21.785,21.785,0,0,0-5.246,3.816,19.316,19.316,0,0,0-5.689,11.085,21.545,21.545,0,0,0,.445,7.846.648.648,0,0,0,.589.54.789.789,0,0,0,.877-.944" transform="translate(-192.191 -40.959)" fill="#323232"/>
        <path id="Path_2333" data-name="Path 2333" d="M279.29,146.338c.027.149.05.3.075.449.031.188.062.376.091.565q.047.308.089.617.024.172.047.345.052.394.1.788v.007c.114.964.213,1.931.317,2.9.014.128.029.255.043.383.028.253.056.506.086.759.048.41.1.82.156,1.229a21.324,21.324,0,0,0,2.678,8.647,19.353,19.353,0,0,0,1.736,2.317,16.272,16.272,0,0,0,1.657,1.651,12.446,12.446,0,0,0,3.059,1.96,10.969,10.969,0,0,0,2.14.69,4.891,4.891,0,0,1,.154.553c.023.106.04.213.059.32,0,.016,0,.023.006.034s0,.018,0,.034c.005.058.012.116.018.175a6.994,6.994,0,0,1,.024.771s0,.009,0,.014c0,.136-.01.272-.022.408-.005.065-.012.129-.019.194,0,.029-.005.047-.006.061s-.005.026-.009.049a4.846,4.846,0,0,1-.841,2.111,4.07,4.07,0,0,1-.714.744.765.765,0,0,0,0,1.076.7.7,0,0,0,.59.209.943.943,0,0,0,.485-.209,6.491,6.491,0,0,0,1.916-6.316,13.831,13.831,0,0,0,4.892-.6,21.535,21.535,0,0,0,9.286-5.729c.675-.709-.4-1.786-1.075-1.075a20.1,20.1,0,0,1-7.691,5.033,11.592,11.592,0,0,1-7.9.348,10.663,10.663,0,0,1-3.536-2.164,17.287,17.287,0,0,1-2.544-2.9,18.591,18.591,0,0,1-2.778-8.112c-.492-3.246-.611-6.552-1.3-9.767a.651.651,0,0,0-.738-.54.787.787,0,0,0-.739.847.852.852,0,0,0,.011.1c.074.344.141.69.2,1.036" transform="translate(-194.185 -100.445)" fill="#323232"/>
        <path id="Path_2334" data-name="Path 2334" d="M322.919,116.908a7.444,7.444,0,0,0-3.757-.034.761.761,0,0,0,.4,1.466,5.784,5.784,0,0,1,2.949.034,6.112,6.112,0,0,1,2.518,1.564c.7.688,1.773-.387,1.075-1.076a7.655,7.655,0,0,0-3.189-1.955" transform="translate(-221.694 -81.168)" fill="#323232"/>
        <path id="Path_2335" data-name="Path 2335" d="M328.1,141.931a.761.761,0,0,0,0,1.521.761.761,0,0,0,0-1.521" transform="translate(-227.789 -98.759)" fill="#323232"/>
        <path id="Path_2336" data-name="Path 2336" d="M286.211,118.219c.033-.03.068-.057.1-.087.067-.045.133-.092.2-.134s.147-.085.223-.122l.089-.042.014,0a3.862,3.862,0,0,1,.486-.14l.11-.021h0c.081-.006.16-.015.241-.017a4.325,4.325,0,0,1,.461.017h0l.109.02q.122.026.241.06c.078.023.155.05.231.078l.1.046a2.849,2.849,0,0,1,.436.276.762.762,0,0,0,1.04-.273.784.784,0,0,0-.273-1.041,3.949,3.949,0,0,0-4.889.308.765.765,0,0,0,0,1.076.778.778,0,0,0,1.075,0" transform="translate(-198.251 -80.804)" fill="#323232"/>
        <path id="Path_2337" data-name="Path 2337" d="M291.638,140.249a.761.761,0,0,0,0,1.521.761.761,0,0,0,0-1.521" transform="translate(-202.417 -97.589)" fill="#323232"/>
        <path id="Path_2338" data-name="Path 2338" d="M319.282,50.774a.779.779,0,0,0,1.076,0,11.069,11.069,0,0,1,6.042-1.986,23.731,23.731,0,0,1,6.572.4,19.549,19.549,0,0,1,11.242,7.34,17.492,17.492,0,0,1,3.241,6.844.762.762,0,0,0,1.467-.4,20.5,20.5,0,0,0-8.258-11.949,19.809,19.809,0,0,0-6.648-3.149,24.458,24.458,0,0,0-6.993-.645,13.245,13.245,0,0,0-7.741,2.469.6.6,0,0,0-.214.417.834.834,0,0,0,.214.659" transform="translate(-222.012 -32.844)" fill="#323232"/>
        <path id="Path_2339" data-name="Path 2339" d="M10.385,29.752a15.587,15.587,0,0,0,21.9-11.707,16.675,16.675,0,0,0,.2-2.464,15.621,15.621,0,0,0-2.872-9.014A15.824,15.824,0,0,0,22.182.912,15.6,15.6,0,0,0,3.562,23.679a15.647,15.647,0,0,0,6.823,6.072M4.849,8.292a14.191,14.191,0,0,1,14.864-6.5A14.233,14.233,0,0,1,30.808,13.469a13.932,13.932,0,0,1,.152,2.111A14.066,14.066,0,0,1,13.016,29.112,14.073,14.073,0,0,1,4.849,8.292" transform="translate(-0.902 0.001)" fill="#323232"/>
        <path id="Path_2340" data-name="Path 2340" d="M300.868,144.541a.778.778,0,0,0,.273,1.041.768.768,0,0,0,1.04-.273,12.5,12.5,0,0,0,1.332-3.646,9.831,9.831,0,0,0-.189-3.947c-.23-.951-1.7-.548-1.466.4a7.912,7.912,0,0,1,.171,3.245,11.287,11.287,0,0,1-1.16,3.175" transform="translate(-209.285 -95.449)" fill="#323232"/>
        <path id="Path_2341" data-name="Path 2341" d="M303.227,170.372a.579.579,0,0,0,.3.014.564.564,0,0,0,.283-.09.76.76,0,0,0,.273-1.041.736.736,0,0,0-.454-.349c-.506-.081-.99-.248-1.5-.329a.575.575,0,0,0-.3-.014.567.567,0,0,0-.283.09.761.761,0,0,0-.273,1.04.739.739,0,0,0,.455.35c.505.081.99.248,1.5.329" transform="translate(-209.565 -117.28)" fill="#323232"/>
        <path id="Path_2342" data-name="Path 2342" d="M307.2,185.295a7.969,7.969,0,0,0-4.016.577.765.765,0,0,0-.349.859l.51,2.047a.761.761,0,0,0,1.466-.4q-.17-.684-.341-1.369a6.864,6.864,0,0,1,1.99-.237,3.611,3.611,0,0,1,2.221.622,1.736,1.736,0,0,1,.33.35.9.9,0,0,1,.182.4c.014.05.024.1.035.152,0,0,0,.038.008.06s0,.172,0,.205-.009.133-.007.144a2.247,2.247,0,0,1-.063.276,1.737,1.737,0,0,1-1.256,1.2,2.658,2.658,0,0,1-2.248-.453.783.783,0,0,0-1.075,0,.766.766,0,0,0,0,1.076,4.233,4.233,0,0,0,3.236.937,3.33,3.33,0,0,0,2.592-1.8,3.032,3.032,0,0,0-.143-3.033,4.185,4.185,0,0,0-3.073-1.6" transform="translate(-210.702 -128.897)" fill="#323232"/>
        <path id="Path_2343" data-name="Path 2343" d="M392.631,110.87a14.776,14.776,0,0,1-.52,6.841,20.388,20.388,0,0,1-3.333,6.734,12.917,12.917,0,0,1-2.432,2.46c-.007-.017-.016-.032-.023-.049a9.99,9.99,0,0,0,2.746-5.745c.191-2.061-.668-4.747-2.92-5.308a3.862,3.862,0,0,0-3.912,1.774c-.1.126-.192.253-.28.383-.552.812.765,1.573,1.313.767a5.1,5.1,0,0,1,.589-.726,3.121,3.121,0,0,1,.764-.573,1.811,1.811,0,0,1,.534-.179l.117-.014c.054,0,.108,0,.161,0a.626.626,0,0,1,.271.03,1.872,1.872,0,0,1,1.011.628,2.5,2.5,0,0,1,.323.451c.047.08.091.161.132.244.019.037.036.076.054.113l.012.023h0a4.618,4.618,0,0,1,.31,2.39,4.668,4.668,0,0,1-.082.537,7.593,7.593,0,0,1-.212.81,7.7,7.7,0,0,1-.645,1.46,10.5,10.5,0,0,1-1.327,1.829c-.025-.012-.047-.029-.073-.04a2.3,2.3,0,0,0-3.017,3.166,2.225,2.225,0,0,0,1.145,1.024,2.322,2.322,0,0,0,1.185.163,2.252,2.252,0,0,0,1.887-1.591.639.639,0,0,0,.492-.093c.25-.177.491-.364.727-.558a17.266,17.266,0,0,0,4.231-5.415,21.99,21.99,0,0,0,2.4-7.765,13.587,13.587,0,0,0-.163-4.173.768.768,0,0,0-.935-.531.7.7,0,0,0-.1.04.783.783,0,0,0-.429.9M385,127.882l0,.007a.291.291,0,0,1-.018.075c-.005.017-.01.034-.016.051a.2.2,0,0,1-.024.081l0,0c0,.01-.007.019-.009.029l.007-.025-.035.064c-.018.031-.038.06-.057.09-.041.045-.081.089-.127.13l-.01.008c.043-.038.043-.065-.034.024l.007,0,.018-.013a.3.3,0,0,0-.042.037l.017-.02c-.045.03-.093.054-.141.08-.031.011-.064.025-.093.033l-.1.023c-.044,0-.126.009-.149.008l-.07,0c-.068-.017-.135-.033-.2-.054l-.046-.023a.753.753,0,0,1-.075-.049c0,.009-.021,0-.052-.027l-.015-.013a.25.25,0,0,0-.029-.018l.023.012c-.018-.016-.036-.032-.053-.049s-.045-.049-.068-.073c-.033-.053-.068-.1-.1-.162a.633.633,0,0,0-.035-.072l.016.025c-.016-.05-.027-.1-.039-.152,0,.013,0,.021,0,.037a.269.269,0,0,0,0-.047c0-.011-.005-.021-.008-.032-.008-.033,0-.05,0-.043s0-.018,0-.026c0-.03,0-.061.006-.091,0,.031.008.029.006-.063a.21.21,0,0,0,0,.023.541.541,0,0,0,0-.063c0,.016,0,.027,0,.04v0c.006-.027.013-.054.021-.081l0-.012c-.007,0-.009-.009.007-.038.005-.01.012-.02.017-.03a.19.19,0,0,0,.011-.038.223.223,0,0,1-.006.03c.03-.055.061-.109.094-.163.012-.015.025-.03.038-.043a.73.73,0,0,1,.062-.056c-.007,0,.01-.025.044-.046l.012-.007c.009-.009.021-.018.029-.027l-.019.021c.021-.013.042-.027.063-.04l.071-.039.012-.006c.052-.016.1-.031.157-.044-.036.005,0-.007.045-.012.023,0,.046-.007.068-.012l-.05.011a1.656,1.656,0,0,1,.178,0l-.024-.008a.191.191,0,0,0,.034.008h.02c.035,0,.05.009.054.015l.015,0c.037.009.073.023.109.033.058.032.115.064.172.1.028.024.057.047.082.071l.055.058c.031.057.074.111.1.168l0-.026a.247.247,0,0,0,.012.037v0l-.005-.008c.018.093.032.1.026.065,0,.009.007.017.009.025.01.033.018.066.026.1,0,.005,0,.011,0,.016,0,.07.007.145,0,.215l0-.009c0,.005,0,.01,0,.016v0" transform="translate(-265.681 -76.478)" fill="#323232"/>
        <path id="Path_2344" data-name="Path 2344" d="M341.893,91.46c.105.151.215.3.319.449q1.157,1.694,2.177,3.476a.682.682,0,0,0,.558.364,27.53,27.53,0,0,0-.786,12.385c.3,2.255.742,4.487,1.227,6.709.467,2.14,1.081,4.289,1.363,6.464.258,1.99.043,4.475-1.789,5.7-.81.541-.049,1.859.767,1.313,4.058-2.713,2.39-8.221,1.521-12.1-.981-4.377-1.973-8.816-1.924-13.327a21.813,21.813,0,0,1,1.164-6.968c.037-.106.07-.213.109-.319a.767.767,0,0,0-.531-.935.723.723,0,0,0-.345-.011c-.008-.016-.013-.032-.022-.048-.554-.965-1.142-1.911-1.756-2.84a52.723,52.723,0,0,0-7.284-8.8q-1.5-1.45-3.107-2.776a.782.782,0,0,0-1.075,0,.766.766,0,0,0,0,1.075,51.456,51.456,0,0,1,9.413,10.178" transform="translate(-231.194 -55.661)" fill="#323232"/>
        <path id="Path_2345" data-name="Path 2345" d="M414.867,274.4a.779.779,0,0,0,.76-.76,11,11,0,0,1,.647-2.38,17.247,17.247,0,0,1,1.281-2.584,21.392,21.392,0,0,1,3.68-4.644,12.433,12.433,0,0,1,2.319-1.769.761.761,0,0,0-.768-1.313,16.648,16.648,0,0,0-4.444,3.972,22.275,22.275,0,0,0-3.4,5.59,12.059,12.059,0,0,0-.838,3.127.765.765,0,0,0,.76.76" transform="translate(-288.143 -181.499)" fill="#323232"/>
        <path id="Path_2346" data-name="Path 2346" d="M363.394,289.517c-.79-6.668,0-13.515,1.141-20.094a163.032,163.032,0,0,1,5.4-21.674c1.107-3.467,2.316-6.9,3.676-10.28a.756.756,0,0,0-.458-.906.669.669,0,0,0-.073-.029.721.721,0,0,0-.369-.005.857.857,0,0,0-.566.536c-.23.571-.451,1.145-.673,1.719a163.917,163.917,0,0,0-5.7,17.886,128.309,128.309,0,0,0-3.961,22.071,54.873,54.873,0,0,0,.067,10.777.784.784,0,0,0,.76.76.685.685,0,0,0,.088-.01.754.754,0,0,0,.672-.751" transform="translate(-251.592 -164.567)" fill="#323232"/>
        <path id="Path_2347" data-name="Path 2347" d="M284.808,293.428a121.661,121.661,0,0,1,.472-19.75,96.217,96.217,0,0,1,3.235-16.48,83.958,83.958,0,0,1,2.768-7.993.638.638,0,0,0-.071-.573.821.821,0,0,0-.46-.363.779.779,0,0,0-.935.531,87.451,87.451,0,0,0-4.511,15,108.064,108.064,0,0,0-2.136,18.068c-.14,3.851-.09,7.708.118,11.555a.779.779,0,0,0,.922.723.658.658,0,0,0,.6-.723" transform="translate(-196.981 -172.732)" fill="#323232"/>
        <path id="Path_2348" data-name="Path 2348" d="M335.751,247.082a23.549,23.549,0,0,1-7.419,2.614,21.589,21.589,0,0,1-7.937.17,11.631,11.631,0,0,1-2.334-.675,8.562,8.562,0,0,1-1.142-.583c-.039-.024-.079-.045-.118-.069-.831-.523-1.594.792-.768,1.313a14.293,14.293,0,0,0,7.562,1.811,27.73,27.73,0,0,0,8.66-1.4,22.54,22.54,0,0,0,4.264-1.866.7.7,0,0,0,.313-.9.739.739,0,0,0-1.081-.415" transform="translate(-219.655 -171.85)" fill="#323232"/>
        <path id="Path_2349" data-name="Path 2349" d="M330.922,257.856a27.328,27.328,0,0,1-7.949,2.434,18.81,18.81,0,0,1-7.193-.174,11.747,11.747,0,0,1-4-1.785.767.767,0,0,0-1.041.273.776.776,0,0,0,.273,1.04c4.528,3.182,10.688,2.8,15.776,1.388a28.587,28.587,0,0,0,4.9-1.864.767.767,0,0,0,.273-1.04.776.776,0,0,0-1.04-.273" transform="translate(-216.147 -179.357)" fill="#323232"/>
        <path id="Path_2350" data-name="Path 2350" d="M315.511,272.59a176.95,176.95,0,0,0-4.761,17.423q-.55,2.511-1.026,5.038a.781.781,0,0,0,.531.936.767.767,0,0,0,.935-.531,176.871,176.871,0,0,1,4.251-17.555q.732-2.464,1.536-4.907c.307-.932-1.162-1.331-1.466-.4" transform="translate(-215.502 -189.308)" fill="#323232"/>
        <path id="Path_2351" data-name="Path 2351" d="M337.564,275.211a.778.778,0,0,0-.76.76l-1.679,15.19a.765.765,0,0,0,.76.76.778.778,0,0,0,.76-.76l1.679-15.19a.765.765,0,0,0-.76-.76" transform="translate(-233.185 -191.498)" fill="#323232"/>
        <path id="Path_2352" data-name="Path 2352" d="M96.538,132.811a.675.675,0,0,0,1.07.043c4.326-4.895,8.407-10.365,10.378-16.673a24.109,24.109,0,0,0,.886-3.977c4.3,2.893,8.535,5.892,12.452,9.127l.153.129q-1.152,1.385-2.323,2.755-4.209,4.94-8.519,9.791-3.3,3.729-6.643,7.42c-.483-.632-.984-1.251-1.495-1.859a28.2,28.2,0,0,0-4.373-4.344,7.728,7.728,0,0,0-2.366-1.317c-.081-.025-.161-.05-.243-.071-.95-.234-1.356,1.232-.4,1.466a4.488,4.488,0,0,1,.477.149l.034.012.092.041c.106.05.21.1.314.156a9.113,9.113,0,0,1,1.1.7,19.449,19.449,0,0,1,2.105,1.869,42.616,42.616,0,0,1,3.463,3.988l.07.091.125.164.21.28c.061.082.122.165.182.248a.77.77,0,0,0,1.194.154q5.873-6.486,11.627-13.079,3.062-3.518,6.069-7.085c.3-.363.608-.725.909-1.091a.773.773,0,0,0,0-1.076c-2.792-2.43-5.827-4.612-8.84-6.755q-2.772-1.972-5.6-3.856a.768.768,0,0,0-1.144.657c-.482,6.27-3.855,11.976-7.6,16.86-1.067,1.391-2.2,2.733-3.359,4.046a.764.764,0,0,0,.005,1.033" transform="translate(-65.804 -76.609)" fill="#323232"/>
        <path id="Path_2353" data-name="Path 2353" d="M13.112,241.593a28.209,28.209,0,0,0,5.3,4.715.683.683,0,0,0,1.005-.268.757.757,0,0,0-.238-1.045,16.29,16.29,0,0,1-2.153-1.66c-.823-.727-1.6-1.5-2.359-2.3-1.656-1.749-3.194-3.611-4.669-5.514-2.552-3.291-4.949-6.762-7.215-10.276q-.312-.484-.621-.971c1.35.043,2.7.054,4.05.05a70.7,70.7,0,0,0,10.441-.668,20.613,20.613,0,0,0,3.657-.841A25.919,25.919,0,0,0,28.608,240.7a24.8,24.8,0,0,0,3.181,2.485l-10.557,2.14a.762.762,0,0,0-.542.87.659.659,0,0,0,.01.065.776.776,0,0,0,.936.531l12.419-2.518a.768.768,0,0,0,.182-1.39,24.331,24.331,0,0,1-11.8-15.625,22.812,22.812,0,0,1-.619-5.556.77.77,0,0,0-1.144-.657l-.19.087-.038.017-.035.013c-.15.059-.3.117-.452.17-.316.111-.637.208-.961.3-.727.2-1.467.348-2.21.474a47.663,47.663,0,0,1-4.987.531c-3.047.188-6.106.207-9.158.128-.629-.016-1.259-.035-1.888-.067A.766.766,0,0,0,.1,223.841c1.294,2.12,2.672,4.191,4.078,6.237a102.409,102.409,0,0,0,8.933,11.515" transform="translate(0 -153.751)" fill="#323232"/>
        <path id="Path_2354" data-name="Path 2354" d="M304.757,86.4a22.088,22.088,0,0,0,10.534,6.9,21.416,21.416,0,0,0,4.3.8.76.76,0,0,0,.754-.7c0-.021.007-.042.007-.063a.776.776,0,0,0-.76-.76,20.529,20.529,0,0,1-12.66-6.028,19.444,19.444,0,0,1-2.513-3.153c-.526-.822-1.843-.06-1.313.768a21.134,21.134,0,0,0,1.653,2.239" transform="translate(-210.821 -57.781)" fill="#323232"/>
        <path id="Path_2355" data-name="Path 2355" d="M39.754,31.456a.768.768,0,0,0,1.041-.273c1.083-2.234,2.217-4.449,3.252-6.706a2.243,2.243,0,0,0,.109-.978V12.952a.761.761,0,0,0-1.521,0V23.913l-2.74,5.65-.414.853a.781.781,0,0,0,.273,1.041" transform="translate(-27.408 -8.501)" fill="#323232"/>
        <path id="Path_2356" data-name="Path 2356" d="M361.528,453.285c-.119.12-.05.063,0,0" transform="translate(-251.514 -315.406)" fill="#323232"/>
        <path id="Path_2357" data-name="Path 2357" d="M361.4,422.673a2.393,2.393,0,0,0,.732-.829,8.456,8.456,0,0,0,.932-2.7c.483-2.436.721-5.36-.589-7.6l5.3-.828,10.359-1.618,2.357-.368a.766.766,0,0,0,.531-.935.779.779,0,0,0-.935-.531l-6.509,1.017L363.218,409.9l-1.356.212-1,.156a.749.749,0,0,0-.544.632.778.778,0,0,0,0,.169.8.8,0,0,0,.36.589c-.227-.162-.077-.063.035.049.058.058.111.12.165.182l.022.027-.021-.03.022.031c.03.037.04.054.021.03.029.04.058.08.086.121.082.124.158.251.228.382.043.079.082.16.121.242.012.024.023.049.033.074s.036.085.046.111a7.286,7.286,0,0,1,.362,1.337,12.354,12.354,0,0,1-.114,4.03,12.985,12.985,0,0,1-.4,1.726c-.058.185-.123.368-.192.549-.009.024-.019.047-.029.071s-.019.043-.026.056c-.035.072-.068.144-.1.215-.065.127-.139.247-.216.367a.225.225,0,0,1-.02.028l.026-.026c-.03.03-.052.067-.082.1a1.031,1.031,0,0,0-.114.111.742.742,0,0,0-.1.1c-.009.012-.017.025-.025.037a.671.671,0,0,0-.05.078c-.008.015-.014.031-.021.047a.724.724,0,0,0-.029.076c0,.017-.009.034-.012.051a.725.725,0,0,0-.012.076q0,.027,0,.054a.664.664,0,0,0,0,.074c0,.019,0,.037,0,.056s.008.046.013.068.008.04.014.059.014.038.021.057.016.044.026.065l.009.016a.857.857,0,0,0,.2.261l.009.009a.8.8,0,0,0,.084.06l.015.01a.626.626,0,0,0,.09.045l.018.007a.663.663,0,0,0,.1.029l.018,0a.6.6,0,0,0,.105.011h.014a.626.626,0,0,0,.115-.011.69.69,0,0,0,.129-.036.847.847,0,0,0,.135-.067" transform="translate(-250.688 -283.373)" fill="#323232"/>
        <path id="Path_2358" data-name="Path 2358" d="M362.333,422.578l.022.031-.021-.03h0" transform="translate(-252.12 -294.04)" fill="#323232"/>
        <path id="Path_2359" data-name="Path 2359" d="M180.921,310l-2.264-.235-6.161-.639-9.076-.942-4.38-.454-6.729-.7-10.472-1.086c.42-.047.84-.1,1.259-.153a26.04,26.04,0,0,0,4.605-.969,7.109,7.109,0,0,0,3.365-1.943c1.251-1.528,1.167-3.517,1.121-5.38-.04-1.649-.133-3.3-.252-4.942-.274-3.8-.684-7.6-1.126-11.383-.454-3.886-.951-7.766-1.429-11.649-.416-3.386-.83-6.775-1.125-10.174a52.192,52.192,0,0,0-1.493-10.288,14.07,14.07,0,0,0-.714-1.9,11.81,11.81,0,0,0-1.554-2.518,10.621,10.621,0,0,0-1.337-1.378,24.068,24.068,0,0,0-3.3-2.289c-1.558-.938-3.148-1.821-4.748-2.683q-3.68-1.981-7.436-3.819l-.409-.2a.822.822,0,0,0-.827.041.727.727,0,0,0-.214.232.767.767,0,0,0,.273,1.04c1.8.871,3.58,1.778,5.352,2.7a90.318,90.318,0,0,1,8.883,5.035,12.87,12.87,0,0,1,1.3.974,11.372,11.372,0,0,1,1.111,1.075q.126.14.246.285c.04.048.079.1.119.146l.044.057q.24.32.455.657a10.886,10.886,0,0,1,.759,1.44l.017.038.013.032q.039.1.077.193.078.2.149.4c.1.279.19.56.274.844.193.656.35,1.322.483,1.992.325,1.63.522,3.282.688,4.935.344,3.414.637,6.828,1.041,10.237.446,3.752.929,7.5,1.386,11.251.464,3.807.908,7.618,1.254,11.438.3,3.25.544,6.517.538,9.783a4.565,4.565,0,0,1-.642,2.622,2.783,2.783,0,0,1-.559.576l-.1.07c-.054.036-.107.074-.162.109-.134.086-.271.167-.411.242a13.949,13.949,0,0,1-3.754,1.209,51.107,51.107,0,0,1-8.949.859q-.784.02-1.569.024a.694.694,0,0,0-.6.311l-6.044-.627-11.414-1.184-5.684-.59-4-.415-6.957-.722c-.519-.054-1.039-.115-1.559-.173.161-.057.321-.116.482-.172a.779.779,0,0,0,.531-.935.767.767,0,0,0-.935-.531c-2.855,1-5.7,2.049-8.477,3.246-.4.173-.8.351-1.2.537a8.651,8.651,0,0,1-.986.47.7.7,0,0,1-.417.052l-.013,0-.126-.035h0c-.045-.024-.087-.049-.131-.075l-.01-.008a1.073,1.073,0,0,1-.079-.075l-.063-.068h0c-.048-.074-.09-.147-.131-.225l0,0c-.019-.051-.038-.1-.053-.156a2.237,2.237,0,0,1-.05-.219s0-.006,0-.012c0-.046-.005-.091-.006-.137,0-.065,0-.13.008-.195.006-.01.033-.171.046-.214a1.031,1.031,0,0,1,.447-.593c.726-.445,1.485-.836,2.243-1.222q2.093-1.067,4.228-2.052a.59.59,0,0,0,.244-.219.779.779,0,0,0,.517-.929.766.766,0,0,0-.935-.531q-1.518.582-3.055,1.115a26.984,26.984,0,0,0-2.634.927c-.852.4-1.656.914-2.473,1.377-.529.3-1.057.6-1.6.874a10.778,10.778,0,0,0-1.08.572,3.194,3.194,0,0,1-2.2.639,1.462,1.462,0,0,1-.6-.244.671.671,0,0,1-.181-.212.945.945,0,0,1-.093-.273.751.751,0,0,1-.014-.111.793.793,0,0,0,.017-.308,1.1,1.1,0,0,1,.051-.214,1.45,1.45,0,0,1,.562-.642c.647-.447,1.3-.885,1.946-1.333q1.621-1.121,3.232-2.256a1.723,1.723,0,0,0,.287-.2s0-.005,0-.008c.213-.085.425-.172.637-.258l5.1-2.064a.784.784,0,0,0,.531-.935.765.765,0,0,0-.935-.531l-4.779,1.935a8.119,8.119,0,0,0-1.411.61c-1.07.7-2.1,1.473-3.149,2.2q-1.023.709-2.053,1.408a3.069,3.069,0,0,0-1.515,2,2.319,2.319,0,0,1-.705.358,1.909,1.909,0,0,1-.231.053c-.011,0-.074,0-.08,0a.788.788,0,0,1-.406-.053,1.32,1.32,0,0,1-.39-.231c-.048-.048-.1-.1-.142-.146l-.024-.026-.019-.031c-.024-.037-.047-.073-.07-.11-.012-.021-.06-.126-.076-.156a2.318,2.318,0,0,1-.067-.232c0-.015-.006-.027-.007-.036a.08.08,0,0,1,0-.016h0v0s.005,0,.01.01v-.028c0-.009,0-.012,0-.019a.09.09,0,0,0,.006-.025c.148-.214.3-.428.45-.639a22.012,22.012,0,0,1,1.867-2.23A17.356,17.356,0,0,1,81.41,294.9a22.22,22.22,0,0,1,3.023-1.519c1.319-.577,2.645-1.137,3.983-1.67a.784.784,0,0,0,.531-.935.766.766,0,0,0-.935-.531c-1.37.546-2.729,1.12-4.081,1.708a23.086,23.086,0,0,0-3.485,1.761,19.684,19.684,0,0,0-3.967,3.465c-.381.431-.743.878-1.094,1.333-.249.324-.529.656-.753,1.007q-.242-.689-.485-1.378-.589-1.677-1.173-3.355-1.284-3.666-2.563-7.333-.386-1.111-.769-2.222-1.366-3.943-2.711-7.893-.674-1.99-1.334-3.986-.259-.787-.512-1.576a4.312,4.312,0,0,0-2.126-2.626,9.735,9.735,0,0,0-3.528-.6l-5.191-.416-4.687-.376-3.122-.25-9.331-.748-9.883-.792-9.357-.75L10.1,264.6l-5.167-.414c-1.209-.1-2.474-.378-3.409.68a2.63,2.63,0,0,0-.407,2.759l.562,1.541,2.228,6.105L7.055,283.9l3.363,9.213,2.916,7.988,1.767,4.841.238.652a.872.872,0,0,0,.392.467q.131,1.376.262,2.751a.785.785,0,0,0,.76.76l1.646.12,4.48.325,6.658.483,8.092.587,8.862.643,8.946.649,8.343.605,7.079.513,5.066.367c.8.058,1.6.144,2.4.174.034,0,.069,0,.1.008a.63.63,0,0,0,.367-.095.931.931,0,0,0,.568-.072l6.276-2.821,9.991-4.491,2.277-1.024a.766.766,0,0,0,.273-1.04.733.733,0,0,0-.054-.075.787.787,0,0,0-.986-.2l-6.276,2.821-9.991,4.491-2.262,1.017a.932.932,0,0,0-.183-.034l-1.646-.12-4.48-.325-6.658-.483-8.092-.587-8.862-.643-8.946-.649L31.4,310.11l-7.079-.513-5.067-.367c-.6-.043-1.207-.109-1.811-.147l-.125-1.315.826.06,4.5.325,6.656.481,8.155.589,8.9.642,8.979.648,8.407.607,7.074.511,5.09.367c.8.058,1.614.144,2.42.175.034,0,.068,0,.1.007a.767.767,0,0,0,.76-.76.775.775,0,0,0-.76-.76l-.124-.009a.667.667,0,0,0,.061-.548q-.613-1.73-1.224-3.46-.671-1.9-1.338-3.8a2.384,2.384,0,0,0,.574.2,2.893,2.893,0,0,0,1.855-.26,2.265,2.265,0,0,0,.315.482,2.816,2.816,0,0,0,2.028.881c1.484.071,2.712-.856,3.976-1.5.221-.112.438-.23.656-.348a2.655,2.655,0,0,0-.1.792,2.6,2.6,0,0,0,1.312,2.275c1.009.507,1.924.041,2.845-.4,1.791-.864,3.628-1.56,5.516-2.271.323-.122.648-.24.972-.361a.842.842,0,0,0,.675.416l2.264.235,4.467.464,1.694.176,9.076.942,11.109,1.153,12.168,1.263,12.239,1.27,9.207.955,2.207.229,9.68,1,6.957.722c1.093.113,2.188.26,3.284.341.047,0,.095.01.142.015a.766.766,0,0,0,.76-.76.777.777,0,0,0-.76-.76M76.595,309.65l.3.857c.005.015.013.029.019.043l-.153-.011-4.5-.326-6.656-.481-8.155-.589-8.9-.642-8.979-.648-8.407-.607-7.074-.511L19,306.368c-.73-.053-1.462-.127-2.194-.163,0-.006,0-.013,0-.02l-.956-2.618-2.407-6.594-3.193-8.747-3.313-9.078-2.769-7.586-1.562-4.279c-.2-.556-.372-1.088.158-1.51a1.254,1.254,0,0,1,.979-.164L7.4,265.9l6.665.534,8.664.694,9.692.777,9.633.772,6.514.522,2.086.167,6.557.525,3.506.281a3.721,3.721,0,0,1,1.656.383c1.235.718,1.473,2.339,1.889,3.6.982,2.97,2,5.93,3.016,8.887l.18.521q.154.445.308.889,1.6,4.644,3.228,9.282,1.716,4.906,3.444,9.808,1.077,3.054,2.157,6.107m10.41-5.7c-.028-.022-.052-.045,0,0" transform="translate(-0.629 -162.951)" fill="#323232"/>
        <path id="Path_2360" data-name="Path 2360" d="M240.077,414.067a.706.706,0,0,0,.1.418.766.766,0,0,0,1.041.273c1.673-1.264,3.408-2.456,5.18-3.577a38.364,38.364,0,0,1,4.065-2.272,22.149,22.149,0,0,1,2.119-.879c.357-.126.717-.241,1.08-.343.119-.033.238-.066.359-.093.023-.005.047-.009.071-.012l.046,0c.175,0,.347-.008.522,0a2.984,2.984,0,0,1,.534.075,12.45,12.45,0,0,1,1.369.357c1.053.331,2.079.746,3.1,1.17.949.395,1.89.81,2.851,1.176a12.887,12.887,0,0,0,2.784.7c3.44.5,6.938.446,10.394.782a.766.766,0,0,0,.76-.76.738.738,0,0,0-.547-.713,1.008,1.008,0,0,0-.214-.047c-3.137-.3-6.3-.294-9.432-.656a13.264,13.264,0,0,1-2.988-.638c-.931-.335-1.839-.735-2.752-1.118-1.025-.431-2.054-.857-3.108-1.215a10.484,10.484,0,0,0-2.885-.639c-.081,0-.162,0-.243,0a9.607,9.607,0,0,0-3.32.975,33.466,33.466,0,0,0-4.253,2.169c-.809.484-1.6.993-2.393,1.514q-1.976,1.3-3.864,2.728a.891.891,0,0,0-.371.622" transform="translate(-167.05 -282.542)" fill="#323232"/>
        <path id="Path_2361" data-name="Path 2361" d="M247.174,452.382c0,.008,0,.017,0,.026.047.1.017.008,0-.026" transform="translate(-171.99 -314.778)" fill="#323232"/>
        <path id="Path_2362" data-name="Path 2362" d="M417.194,319.4l-.343-3.09a.783.783,0,0,0-.76-.76.766.766,0,0,0-.76.76q.47,4.239.94,8.477.744,6.71,1.489,13.419.171,1.545.343,3.09a.783.783,0,0,0,.76.76.765.765,0,0,0,.76-.76l-.94-8.477L417.194,319.4" transform="translate(-288.994 -219.567)" fill="#323232"/>
        <path id="Path_2363" data-name="Path 2363" d="M388.2,166.507c-.008.01-.019.018-.029.028l.01-.006.019-.021" transform="translate(-270.099 -115.86)" fill="#fff"/>
        <path id="Path_2364" data-name="Path 2364" d="M388.027,166.606c-.034.021-.051.045-.044.046.02-.017.038-.035.057-.053l-.012.008" transform="translate(-269.967 -115.923)" fill="#fff"/>
        <path id="Path_2365" data-name="Path 2365" d="M391.182,170.711l-.018.013-.007,0-.017.02a.3.3,0,0,1,.042-.037" transform="translate(-272.164 -118.785)" fill="#fff"/>
        <path id="Path_2366" data-name="Path 2366" d="M388.694,166.974c0-.07-.007-.145,0-.215l0-.016c-.008-.033-.016-.067-.026-.1,0-.008-.006-.016-.009-.024.006.032-.008.028-.026-.065-.031-.057-.074-.111-.1-.168l-.055-.058c-.025-.025-.054-.048-.082-.072-.057-.034-.113-.067-.172-.1-.036-.011-.072-.023-.109-.033l-.016,0c.007.009-.02.009-.084-.015a1.575,1.575,0,0,0-.178,0l-.064.013c-.053.013-.1.029-.157.045l-.012.006-.071.039c-.022.012-.042.026-.063.04-.039.044-.061.06-.066.059a.728.728,0,0,0-.062.056c-.013.014-.026.028-.038.043-.033.054-.064.108-.094.163-.009.049-.022.074-.029.077l0,.011c-.008.027-.015.054-.021.081v0c0,.092,0,.094-.006.063a.832.832,0,0,0-.006.091c0,.008,0,.017,0,.026a.185.185,0,0,1,.007.085c.012.051.023.1.039.152.078.118.026.08,0,.005v-.005l-.016-.025a.642.642,0,0,1,.035.073c.029.056.064.108.1.162.023.024.044.049.068.072s.035.033.053.049a.2.2,0,0,1,.073.046.78.78,0,0,0,.075.05l.046.023c.067.021.134.037.2.054l.07,0c.023,0,.106-.006.149-.009s.088-.018.1-.023.061-.022.093-.033c.048-.026.1-.05.141-.08.077-.089.077-.062.034-.024l.01-.008c.045-.041.085-.086.127-.131.019-.03.039-.059.057-.09s.023-.043.035-.064a.377.377,0,0,1,.028-.089c.005-.017.01-.034.015-.051-.005.01,0-.011.019-.091" transform="translate(-269.376 -115.578)" fill="#fff"/>
        <path id="Path_2367" data-name="Path 2367" d="M392.035,167.537a.2.2,0,0,1-.012-.038c0,.01,0,.018,0,.026l.005.008,0,0" transform="translate(-272.779 -116.55)" fill="#fff"/>
        <path id="Path_2368" data-name="Path 2368" d="M392.2,169.092a.288.288,0,0,0,.019-.075c0,.014-.005.028-.008.041s-.007.023-.01.034" transform="translate(-272.903 -117.606)" fill="#fff"/>
        <path id="Path_2369" data-name="Path 2369" d="M389.914,166.085l.024.009h.01a.188.188,0,0,1-.034-.009" transform="translate(-271.311 -115.566)" fill="#fff"/>
        <path id="Path_2370" data-name="Path 2370" d="M389.213,166.113c-.042,0-.081.017-.046.012l.033-.009.013,0" transform="translate(-270.782 -115.585)" fill="#fff"/>
        <path id="Path_2371" data-name="Path 2371" d="M389.367,166.083l.05-.012c-.022.005-.046.009-.068.013h.019" transform="translate(-270.918 -115.556)" fill="#fff"/>
        <path id="Path_2372" data-name="Path 2372" d="M387.119,168.833c0,.011.006.021.008.032,0-.026,0-.05,0-.075-.006-.006-.011.01,0,.043" transform="translate(-269.364 -117.447)" fill="#fff"/>
        <path id="Path_2373" data-name="Path 2373" d="M387.158,168.135a.22.22,0,0,1,0-.023c0-.012,0-.023,0-.04a.539.539,0,0,1,0,.063" transform="translate(-269.394 -116.948)" fill="#fff"/>
        <path id="Path_2374" data-name="Path 2374" d="M387.345,167.536a.185.185,0,0,1-.011.038l.005-.009a.277.277,0,0,0,.006-.029" transform="translate(-269.516 -116.576)" fill="#fff"/>
        <path id="Path_2375" data-name="Path 2375" d="M387.252,167.692c-.015.029-.013.04-.006.038l.024-.068-.017.03" transform="translate(-269.451 -116.663)" fill="#fff"/>
        <path id="Path_2376" data-name="Path 2376" d="M390.045,166.113h-.02l.074.016c0-.006-.019-.012-.054-.015" transform="translate(-271.389 -115.585)" fill="#fff"/>
        <path id="Path_2377" data-name="Path 2377" d="M392.036,169.739c0-.01.006-.019.009-.029l0,0c0,.008,0,.014-.006.024" transform="translate(-272.788 -118.088)" fill="#fff"/>
        <path id="Path_2378" data-name="Path 2378" d="M388.1,170.692c.031.03.055.036.052.027-.022-.016-.044-.028-.067-.04l.014.013" transform="translate(-270.042 -118.762)" fill="#fff"/>
        <path id="Path_2379" data-name="Path 2379" d="M392.265,168.946v.006c0-.005,0-.01,0-.015l0,.009" transform="translate(-272.947 -117.55)" fill="#fff"/>
        <path id="Path_2380" data-name="Path 2380" d="M387.156,169.087c0-.016,0-.024,0-.036l0-.01a.3.3,0,0,1,0,.047" transform="translate(-269.392 -117.622)" fill="#fff"/>
        <path id="Path_2381" data-name="Path 2381" d="M387.993,170.621a.3.3,0,0,1,.029.018l-.006-.006-.023-.012" transform="translate(-269.975 -118.722)" fill="#fff"/>
        <path id="Path_2382" data-name="Path 2382" d="M392.263,168.989v0l0,.009,0-.007" transform="translate(-272.944 -117.585)" fill="#fff"/>
        <path id="Path_2383" data-name="Path 2383" d="M392.068,169.514a.192.192,0,0,0,.024-.081c-.009.028-.018.056-.026.084l0,0" transform="translate(-272.809 -117.895)" fill="#fff"/>
        <path id="Path_2384" data-name="Path 2384" d="M388.053,166.578l-.01.006c-.019.018-.037.036-.056.053.005,0,.027-.016.066-.059" transform="translate(-269.971 -115.909)" fill="#323232"/>
        <path id="Path_2385" data-name="Path 2385" d="M387.144,168.868l0,.01a.178.178,0,0,0-.007-.085c0,.025,0,.05,0,.075" transform="translate(-269.38 -117.45)" fill="#323232"/>
        <path id="Path_2386" data-name="Path 2386" d="M387.281,167.642l-.024.068c.007,0,.019-.028.029-.077l-.005.009" transform="translate(-269.463 -116.643)" fill="#323232"/>
        <path id="Path_2387" data-name="Path 2387" d="M389.256,166.109h-.012l-.013,0-.033.009.064-.013h-.006" transform="translate(-270.814 -115.583)" fill="#323232"/>
        <path id="Path_2388" data-name="Path 2388" d="M387.291,169.571l0,.005c.025.075.077.113,0-.005" transform="translate(-269.486 -117.992)" fill="#323232"/>
        <path id="Path_2389" data-name="Path 2389" d="M388.076,170.666c.022.013.045.025.067.04a.2.2,0,0,0-.073-.046l.006.006" transform="translate(-270.028 -118.749)" fill="#323232"/>
        <path id="Path_2390" data-name="Path 2390" d="M390.077,166.129l-.074-.015h-.01c.064.025.091.024.084.016" transform="translate(-271.366 -115.585)" fill="#323232"/>
        <path id="Path_2391" data-name="Path 2391" d="M392.06,169.517c.008-.028.017-.056.026-.084a.394.394,0,0,0-.028.089l0,0" transform="translate(-272.803 -117.896)" fill="#323232"/>
        <path id="Path_2392" data-name="Path 2392" d="M392.2,169.057c0-.012.008-.022.01-.034s.006-.027.008-.041v-.016c-.023.08-.025.1-.019.091" transform="translate(-272.897 -117.571)" fill="#323232"/>
        <path id="Path_2393" data-name="Path 2393" d="M392.709,196.286a.719.719,0,0,0,.08-.23.73.73,0,0,0-.353-.811,3.838,3.838,0,0,1-1.529-1.229,9.311,9.311,0,0,1-1.226-2.259,32.738,32.738,0,0,1-1.633-6.413c-.239-1.373-.44-2.753-.634-4.133a.765.765,0,0,0-.935-.531.774.774,0,0,0-.175.074.813.813,0,0,0-.356.862c.345,2.46.7,4.927,1.288,7.344a16.081,16.081,0,0,0,2.309,5.756,7.218,7.218,0,0,0,.79.916,4.576,4.576,0,0,0,1.336.927.785.785,0,0,0,1.04-.273" transform="translate(-268.543 -125.706)" fill="#323232"/>
        <path id="Path_2394" data-name="Path 2394" d="M258.337,168.613h.009l.088-.018c.019-.007,0-.008-.1.019" transform="translate(-179.757 -117.309)" fill="#323232"/>
        <path id="Path_2395" data-name="Path 2395" d="M254.591,165.036c0,.005,0,.01,0,.016h0c0-.068,0-.09-.005-.085,0,.023,0,.046,0,.069" transform="translate(-177.149 -114.788)" fill="#323232"/>
        <path id="Path_2396" data-name="Path 2396" d="M264.112,163.522l.009.032c0-.005,0-.012,0-.017l-.01-.014" transform="translate(-183.775 -113.782)" fill="#323232"/>
        <path id="Path_2397" data-name="Path 2397" d="M257.093,162.211l-.01,0c.056-.01.081-.022.082-.027a.538.538,0,0,1-.072.023" transform="translate(-178.884 -112.854)" fill="#323232"/>
        <path id="Path_2398" data-name="Path 2398" d="M254.6,164.5c0,.005,0,.01,0,.016s-.01.041-.014.062c0,0,0,.01,0,.014.021-.067.023-.093.018-.092" transform="translate(-177.144 -114.46)" fill="#323232"/>
        <path id="Path_2399" data-name="Path 2399" d="M263.825,163.014c-.015-.021-.027-.042-.04-.064l-.01-.01c.031.066.05.084.05.074" transform="translate(-183.541 -113.378)" fill="#323232"/>
        <path id="Path_2400" data-name="Path 2400" d="M235.117,157.127q.426-1.361.86-2.721.056-.175.113-.349c.015-.045.031-.09.044-.135a.227.227,0,0,0,.012-.056l.019-.029c.015-.023.062-.091.067-.1.04-.044.081-.087.124-.128l.031-.029c.027-.02.056-.039.085-.057.077-.048.155-.093.236-.134l.062-.028c.028-.01.055-.021.083-.029.075-.023.149-.046.226-.064.03-.007.163-.025.174-.029.074,0,.147-.007.221-.005l.065,0,.01,0c.029.008.155.054.16.049a1.249,1.249,0,0,1,.13.078c0,.009.113.109.138.137a.36.36,0,0,0,.035.036.4.4,0,0,0,.023.045c.037.066.079.129.114.2a1.829,1.829,0,0,1,.158.4,7.556,7.556,0,0,1,.217,1.045c.107.673.367,1.316.522,1.978.019.078.036.157.051.236.006.033.031.17.033.174.008.063.019.293.016.424,0,.015,0,.03,0,.046a.149.149,0,0,1-.01.032c-.038.067-.075.139-.005.033-.026.041-.053.084-.078.125.1-.165,0-.005-.05.042a.633.633,0,0,1-.047.044c-.042.029-.084.058-.129.084l-.082.045c-.035.011-.139.051-.163.057l-.093.022c-.038,0-.129.012-.148.012-.04,0-.081,0-.121-.006-.009-.005-.095-.022-.135-.033l-.057-.02-.062-.031a1.471,1.471,0,0,0-.132-.081,1.338,1.338,0,0,1-.3-.346,4.487,4.487,0,0,1-.236-.474l-.572-1.226a.767.767,0,0,0-1.041-.273.778.778,0,0,0-.273,1.041c.449.962.824,2.184,1.838,2.7a.783.783,0,0,0-.682,1.142c.739,1.369,1.494,2.728,2.251,4.086a.81.81,0,0,0,.024.212,5.391,5.391,0,0,1-.031,2.827,12.628,12.628,0,0,1-1.052,2.207c-.522,1.029-1,2.081-1.461,3.14a.786.786,0,0,0,.273,1.041.766.766,0,0,0,1.04-.273c.5-1.149,1.018-2.291,1.595-3.4a11.074,11.074,0,0,0,1.149-2.613c.021-.093.038-.186.055-.279q.683,1.232,1.356,2.469a2.8,2.8,0,0,0,.93,1.172,1.968,1.968,0,0,0,1.79.022c.492-.213.963-.493,1.439-.741q1.992-1.04,3.988-2.073l2.661-1.379a.7.7,0,0,0,.182-1.115.748.748,0,0,0-.95-.2q-2.927,1.515-5.851,3.035-.788.41-1.575.822a5.394,5.394,0,0,1-.555.284c-.413.158-.5-.141-.675-.464-.813-1.5-1.645-2.991-2.474-4.482-.937-1.686-1.881-3.368-2.8-5.066a.771.771,0,0,0-.157-.2,2.3,2.3,0,0,0,2.946-2.172,11.128,11.128,0,0,0-.556-2.468c-.019-.068-.034-.137-.051-.206l6.285-2.811.913-.408a.766.766,0,0,0,.273-1.041.775.775,0,0,0-.107-.141c-.011-.011-.023-.02-.033-.03a.679.679,0,0,0-.1-.077l-.036-.021a.687.687,0,0,0-.119-.052l-.026-.008a.765.765,0,0,0-.156-.029.886.886,0,0,0-.222.012l-.027.006a1.055,1.055,0,0,0-.216.067l-2.113.945a1.975,1.975,0,0,0,.047-.442.7.7,0,0,0,.085-.191q.211-.814.422-1.629.127-.491.254-.983c.05-.193.1-.386.166-.575.012-.034.04-.1.042-.107.019-.042.039-.084.061-.125.03-.056.062-.111.1-.165.015-.023.031-.045.046-.067l.007-.005c.031-.027.057-.062.088-.091l.051-.046,0,0,.094-.054.009,0,.037-.009.079-.02.02-.006c.035,0,.072,0,.1.007l.054.018h0a.833.833,0,0,0,.084.095.762.762,0,0,0,1.076,0,.784.784,0,0,0,0-1.076c-.022-.027-.049-.049-.073-.075a1.776,1.776,0,0,0-1.875-.366,2.606,2.606,0,0,0-1.455,1.661c-.136.373-.218.768-.318,1.152l-.224.866a2.869,2.869,0,0,0-.661-.318,3.484,3.484,0,0,0-1.553-.065,3.854,3.854,0,0,0-1.3.434,2.317,2.317,0,0,0-1.283,2.645,2.2,2.2,0,0,0-1.342-.32,3,3,0,0,0-2.349,1.327,5.316,5.316,0,0,0-.387,1.051q-.18.562-.357,1.125-.238.753-.474,1.506a.663.663,0,0,0,.111.646.787.787,0,0,0,1.356-.242m11.076-10.013c0,.009-.009,0-.02-.014a.086.086,0,0,1,.02.014m-.084-.051.023.012c-.015,0-.026-.008-.026-.012h0m-.029,0c-.021,0-.039,0-.037-.006s.018,0,.037.006m-.215.025c.023-.008.04-.011,0,0m-6.362,5.507a.772.772,0,0,0,.531-.935c-.013-.04-.025-.081-.035-.122,0,.013,0,.025,0,.041,0-.019,0-.038,0-.057a.188.188,0,0,1,0-.069c0-.017,0-.035,0-.052l-.011.034a.335.335,0,0,0,.011-.048v0a.137.137,0,0,1,.019-.075l.019-.06c.033-.057.067-.114.1-.17l.043-.047c.054-.058.114-.11.173-.163.031-.021.061-.043.093-.063.074-.048.151-.092.229-.132.027-.014.055-.027.083-.04l-.017,0c.009,0,.019-.007.027-.009l.029-.014c.029-.014.043-.014.043-.009.055-.022.111-.046.162-.062q.134-.041.272-.071c.046-.01.092-.019.139-.027h.006a2.048,2.048,0,0,0,.216-.019c.095,0,.189,0,.284,0,.047,0,.094.005.14.01a.94.94,0,0,0,.123.022.567.567,0,0,0,.074.008c.058.026.12.066.165.091.079.043.153.092.229.141.026.023.053.045.078.069s.045.045.067.068l-.012-.026a.311.311,0,0,0,.023.036l0,0a.129.129,0,0,1,.037.06l.018.026c.006,0,.017.012.027.05l0,0a.361.361,0,0,0,.016.032c0-.008,0-.013,0-.022,0,.008,0,.017,0,.025a.131.131,0,0,0,.011.019c-.005-.006-.006-.009-.011-.015q0,.015,0,.029v0c.011.044.007.075,0,.078a.449.449,0,0,1,0,.05s0,.006,0,.01c-.015.056-.026.113-.044.168,0,.013-.009.027-.014.04a3.212,3.212,0,0,1-.19.313l-.056.064c-.051.057-.1.111-.16.164s-.111.1-.167.145c-.037.026-.074.053-.112.078a3.692,3.692,0,0,1-.447.246l-.1.036c-.09.031-.181.058-.273.081-.039.009-.078.016-.118.023a.348.348,0,0,1-.078.018h-.009l-.033.007.024-.006c-.047,0-.095.007-.142.009a.772.772,0,0,0-.76.76.747.747,0,0,0,.011.082l-.124.055-.395.177a3.7,3.7,0,0,0-.258-.646,2.589,2.589,0,0,0-.26-.394.656.656,0,0,0,.3-.025" transform="translate(-162.553 -101.271)" fill="#323232"/>
        <path id="Path_2401" data-name="Path 2401" d="M264.02,163.323a.348.348,0,0,0-.015-.034c0-.007-.009-.013-.013-.02s0,.027.035.077l-.006-.023" transform="translate(-183.689 -113.606)" fill="#323232"/>
        <path id="Path_2402" data-name="Path 2402" d="M264.147,163.561v0l0,0v0l0,0" transform="translate(-183.798 -113.804)" fill="#323232"/>
        <path id="Path_2403" data-name="Path 2403" d="M264.146,163.722c0-.027,0-.054,0-.081l0-.015c0,.072,0,.1.007.1" transform="translate(-183.793 -113.855)" fill="#323232"/>
        <path id="Path_2404" data-name="Path 2404" d="M206.946,208.711a.9.9,0,0,0-.017.726.7.7,0,0,0,.29.315.766.766,0,0,0,1.04-.273c.767-1.8,1.549-3.6,2.37-5.381.229-.5.461-.992.707-1.48a16.591,16.591,0,0,0,.828-1.685,23.636,23.636,0,0,0,.569-2.5c.277-1.1.642-2.189.942-3.287.676-2.469,1.276-4.959,1.873-7.448a.767.767,0,0,0-.757-.944.667.667,0,0,0-.709.54q-.178.741-.357,1.482c-.412,1.708-.833,3.413-1.285,5.111q-.438,1.641-.921,3.27c-.263.879-.405,1.763-.61,2.655a16.778,16.778,0,0,1-1.424,3.159c-.3.65-.6,1.3-.891,1.961q-.346.777-.686,1.556-.484,1.11-.959,2.223" transform="translate(-143.938 -129.947)" fill="#323232"/>
        <path id="Path_2405" data-name="Path 2405" d="M163.652,255.781l1.156-2.648,2.777-6.36,3.361-7.7,2.907-6.657.015-.034c.022.1.039.193.067.287a3.754,3.754,0,0,0,.751,1.382,4.489,4.489,0,0,0,2.078,1.33,14.867,14.867,0,0,0,4.871.538,18,18,0,0,0,5.034-.859,14.167,14.167,0,0,0,3.75-1.853l-1.757,5.751L184.62,252.2l-.933,3.055c-.287.938,1.181,1.339,1.466.4l2.553-8.358,4.044-13.239.933-3.056a.725.725,0,0,0-.777-.932.77.77,0,0,0-.34.088l.812-2.175c1.343-.466,2.674-.982,3.964-1.574a9.7,9.7,0,0,0,2.347-1.431c.887-.763,1.684-1.628,2.529-2.436a10.471,10.471,0,0,1,3.006-2.263.783.783,0,0,0,.531-.935c0-.009-.008-.018-.011-.027a.762.762,0,0,0-.924-.5A13.036,13.036,0,0,0,199.7,221.9c-.587.575-1.16,1.165-1.765,1.721a5.934,5.934,0,0,1-1.365.989,28.412,28.412,0,0,1-3.768,1.614c-.379.14-.762.27-1.141.409-.446.163-.572.47-.721.868l-1.07,2.866a.766.766,0,0,0,.526.934,13.608,13.608,0,0,1-7.965,3.06,16.394,16.394,0,0,1-4.348-.22,4.858,4.858,0,0,1-1.727-.6,2.189,2.189,0,0,1-.854-.986c-.012-.026-.031-.076-.053-.137s-.039-.118-.059-.189a3.705,3.705,0,0,1-.1-.473,6.959,6.959,0,0,1-.025-.841,9.831,9.831,0,0,1,.4-2.229.7.7,0,0,0-.354-.833.762.762,0,0,0-1.009.2.6.6,0,0,0-.323.3l-1.156,2.648-2.777,6.36-3.361,7.7-2.907,6.657c-.472,1.081-.948,2.16-1.416,3.242l-.02.047a.813.813,0,0,0,.133.934.749.749,0,0,0,.14.106.766.766,0,0,0,1.04-.273" transform="translate(-112.899 -152.232)" fill="#323232"/>
        <path id="Path_2406" data-name="Path 2406" d="M278.53,237.737c-3.109.981-6.212,1.982-9.3,3.032-.955.325-1.91.654-2.854,1.008a.833.833,0,0,0-.544.6.72.72,0,0,0,.012.333.766.766,0,0,0,.935.531c3.626-1.362,7.34-2.508,11.03-3.684l1.122-.356a.789.789,0,0,0,.133-1.43.68.68,0,0,0-.537-.036" transform="translate(-184.964 -165.397)" fill="#323232"/>
        <path id="Path_2407" data-name="Path 2407" d="M400.6,170.18c-.235-.1-.471-.192-.711-.277a.768.768,0,0,0-.935.531.776.776,0,0,0,.531.936,13.952,13.952,0,0,1,8.428,8.843,13.018,13.018,0,0,1,.616,3.51c.033.976,1.555.981,1.521,0a15.56,15.56,0,0,0-6.586-11.984,14.059,14.059,0,0,0-1.873-1.112c.078-.019.158-.033.236-.051a10.406,10.406,0,0,1,8.14,1.85,14.219,14.219,0,0,1,5.061,7.378,25.427,25.427,0,0,1,.939,4.939,28.656,28.656,0,0,0,.874,5.252A10.472,10.472,0,0,0,419,193.977a7.242,7.242,0,0,0,3.355,2.072,9.727,9.727,0,0,0,4.016.372,3,3,0,0,1-2.672.85.779.779,0,0,0-.935.531.805.805,0,0,0,.246.791.622.622,0,0,0,.285.145c2.95.6,5.048-1.727,6.119-4.2l0-.009h0c.026-.061.052-.121.077-.182.325-.79-1.052-1.378-1.39-.586a2.567,2.567,0,0,1-.166.322c-.016.027-.036.053-.054.079l-.043.048a1.357,1.357,0,0,1-.479.364,1.981,1.981,0,0,1-.545.214,4.992,4.992,0,0,1-.718.144,8.422,8.422,0,0,1-3.34-.351,5.847,5.847,0,0,1-2.9-1.937,9.483,9.483,0,0,1-1.73-3.717,45.291,45.291,0,0,1-.769-5.327,22.759,22.759,0,0,0-1.056-4.785,15.812,15.812,0,0,0-5.371-7.564,11.821,11.821,0,0,0-9.849-2.069.68.68,0,0,0-.484.405.821.821,0,0,0,0,.591" transform="translate(-277.581 -117.486)" fill="#323232"/>
        <path id="Path_2408" data-name="Path 2408" d="M251.462,326.54a.688.688,0,0,0,.493.693.753.753,0,0,0,1.028-.693c.027-4.72-.766-9.363-1.136-14.055a33.568,33.568,0,0,1,.017-6.392,34.786,34.786,0,0,1,1.7-6.542,46.563,46.563,0,0,0,1.759-7.814c.054-.408-.389-.76-.76-.76a.78.78,0,0,0-.76.76,42.941,42.941,0,0,1-1.509,6.777,45.247,45.247,0,0,0-1.835,6.658,43.185,43.185,0,0,0,.241,11.05c.079.7.16,1.4.238,2.1a70.887,70.887,0,0,1,.521,8.213" transform="translate(-174.091 -202.468)" fill="#323232"/>
        <path id="Path_2409" data-name="Path 2409" d="M432.489,404.592a.774.774,0,0,0,.531.935,13.952,13.952,0,0,1,5.551,3.5c.684.7,1.759-.374,1.076-1.076a15.6,15.6,0,0,0-6.222-3.893.769.769,0,0,0-.935.531" transform="translate(-300.917 -281.133)" fill="#323232"/>
        <path id="Path_2410" data-name="Path 2410" d="M485.155,277.678l4.832.916,7.456,1.414c.505.1,1.014.18,1.517.29a4.677,4.677,0,0,1,3.554,3.513,9.518,9.518,0,0,1-.131,3.3q-.09.707-.183,1.414-.05.38-.1.759l-.027.2,0,.027a.031.031,0,0,1,0,.007q-.03.225-.061.451-.526,3.883-1.086,7.76-.652,4.56-1.324,9.117-.689,4.688-1.388,9.374-.626,4.2-1.259,8.4-.478,3.175-.959,6.349-.235,1.548-.47,3.095l-.021.137a.785.785,0,0,0,.531.936c.017,0,.036.005.054.008a.758.758,0,0,0,.882-.54q.167-1.093.332-2.186.438-2.883.872-5.766.612-4.058,1.219-8.117.7-4.677,1.389-9.356t1.368-9.375q.591-4.1,1.159-8.2c.274-1.995.547-3.99.783-5.99a6.206,6.206,0,0,0-1.849-5.24,6.494,6.494,0,0,0-3.33-1.631l-6.415-1.217-6.564-1.245-.371-.07a.78.78,0,0,0-.935.531c0,.008,0,.016,0,.024a.765.765,0,0,0,.535.912" transform="translate(-337.197 -192.183)" fill="#323232"/>
        <path id="Path_2411" data-name="Path 2411" d="M228.1,385.168A25.8,25.8,0,0,0,234.1,378.7a.763.763,0,0,0-.141-.938.719.719,0,0,0-.132-.1.774.774,0,0,0-1.04.273,23.694,23.694,0,0,1-5.446,5.919.786.786,0,0,0-.273,1.04.683.683,0,0,0,.068.091.752.752,0,0,0,.973.182" transform="translate(-157.925 -262.716)" fill="#323232"/>
      </g>
    </g>
  </g>
</svg>
