<svg xmlns="http://www.w3.org/2000/svg" width="86.949" height="69.816" viewBox="0 0 86.949 69.816">
  <g id="Group_2694" data-name="Group 2694" transform="translate(1102.436 15626.059)">
    <path id="Path_2071" data-name="Path 2071" d="M797.538,791.685a.829.829,0,0,0-.829.83v2.542a.83.83,0,0,0,.829.83h2.542a.83.83,0,0,0,.829-.83v-2.542a.829.829,0,0,0-.829-.83Z" transform="translate(-1866.441 -16393.146)" fill="#fff"/>
    <path id="Path_2072" data-name="Path 2072" d="M948.745,795.886h2.542a.83.83,0,0,0,.83-.83v-2.542a.83.83,0,0,0-.83-.83h-2.542a.829.829,0,0,0-.83.83v2.542a.83.83,0,0,0,.83.83" transform="translate(-2008.358 -16393.146)" fill="#fff"/>
    <path id="Path_2073" data-name="Path 2073" d="M1099.956,795.886h2.542a.829.829,0,0,0,.829-.83v-2.542a.829.829,0,0,0-.829-.83h-2.542a.83.83,0,0,0-.829.83v2.542a.83.83,0,0,0,.829.83" transform="translate(-2150.281 -16393.146)" fill="#fff"/>
    <path id="Path_2074" data-name="Path 2074" d="M1251.162,795.886h2.542a.83.83,0,0,0,.829-.83v-2.542a.829.829,0,0,0-.829-.83h-2.542a.829.829,0,0,0-.829.83v2.542a.83.83,0,0,0,.829.83" transform="translate(-2292.199 -16393.146)" fill="#fff"/>
    <path id="Path_2075" data-name="Path 2075" d="M1407.856,795.886h2.542a.83.83,0,0,0,.829-.83v-2.542a.829.829,0,0,0-.829-.83h-2.542a.829.829,0,0,0-.829.83v2.542a.83.83,0,0,0,.829.83" transform="translate(-2439.265 -16393.146)" fill="#fff"/>
    <path id="Rectangle_3573" data-name="Rectangle 3573" d="M2.1,0h0A2.1,2.1,0,0,1,4.2,2.1v0A2.1,2.1,0,0,1,2.1,4.2h0A2.1,2.1,0,0,1,0,2.1v0A2.1,2.1,0,0,1,2.1,0Z" transform="translate(-1041.865 -15591.957)" fill="#fff"/>
    <path id="Path_2076" data-name="Path 2076" d="M1407.027,949.739a.83.83,0,0,0,.829.83h2.542a.83.83,0,0,0,.829-.83V947.2a.829.829,0,0,0-.829-.83h-2.542a.83.83,0,0,0-.829.83Z" transform="translate(-2439.265 -16538.324)" fill="#fff"/>
    <path id="Path_2077" data-name="Path 2077" d="M1099.127,949.739a.83.83,0,0,0,.829.83h2.542a.829.829,0,0,0,.829-.83V947.2a.829.829,0,0,0-.829-.83h-2.542a.83.83,0,0,0-.829.83Z" transform="translate(-2150.281 -16538.324)" fill="#fff"/>
    <path id="Path_2078" data-name="Path 2078" d="M947.914,949.739a.83.83,0,0,0,.83.83h2.542a.83.83,0,0,0,.829-.83V947.2a.83.83,0,0,0-.829-.83h-2.542a.83.83,0,0,0-.83.83Z" transform="translate(-2008.359 -16538.324)" fill="#fff"/>
    <path id="Rectangle_3574" data-name="Rectangle 3574" d="M2.1,0h0A2.1,2.1,0,0,1,4.2,2.1v0A2.1,2.1,0,0,1,2.1,4.2h0A2.1,2.1,0,0,1,0,2.1v0A2.1,2.1,0,0,1,2.1,0Z" transform="translate(-1060.444 -15582.457)" fill="#fff"/>
    <path id="Rectangle_3575" data-name="Rectangle 3575" d="M2.1,0h0A2.1,2.1,0,0,1,4.2,2.1v0A2.1,2.1,0,0,1,2.1,4.2h0A2.1,2.1,0,0,1,0,2.1v0A2.1,2.1,0,0,1,2.1,0Z" transform="translate(-1051.154 -15582.457)" fill="#fff"/>
    <path id="Rectangle_3576" data-name="Rectangle 3576" d="M2.1,0h0A2.1,2.1,0,0,1,4.2,2.1v0A2.1,2.1,0,0,1,2.1,4.2h0A2.1,2.1,0,0,1,0,2.1v0A2.1,2.1,0,0,1,2.1,0Z" transform="translate(-1041.865 -15582.457)" fill="#fff"/>
    <path id="Rectangle_3577" data-name="Rectangle 3577" d="M2.1,0h0A2.1,2.1,0,0,1,4.2,2.1v0A2.1,2.1,0,0,1,2.1,4.2h0A2.1,2.1,0,0,1,0,2.1v0A2.1,2.1,0,0,1,2.1,0Z" transform="translate(-1032.24 -15582.457)" fill="#fff"/>
    <path id="Rectangle_3578" data-name="Rectangle 3578" d="M2.1,0h0A2.1,2.1,0,0,1,4.2,2.1v0A2.1,2.1,0,0,1,2.1,4.2h0A2.1,2.1,0,0,1,0,2.1v0A2.1,2.1,0,0,1,2.1,0Z" transform="translate(-1060.444 -15572.954)" fill="#fff"/>
    <path id="Rectangle_3579" data-name="Rectangle 3579" d="M2.1,0h0A2.1,2.1,0,0,1,4.2,2.1v0A2.1,2.1,0,0,1,2.1,4.2h0A2.1,2.1,0,0,1,0,2.1v0A2.1,2.1,0,0,1,2.1,0Z" transform="translate(-1051.154 -15572.954)" fill="#fff"/>
    <path id="Path_2079" data-name="Path 2079" d="M1250.332,1259.1a.829.829,0,0,0,.829.829h2.542a.829.829,0,0,0,.83-.829v-2.542a.829.829,0,0,0-.83-.829h-2.542a.829.829,0,0,0-.829.829Z" transform="translate(-2292.197 -16828.689)" fill="#fff"/>
    <path id="Rectangle_3580" data-name="Rectangle 3580" d="M2.1,0h0A2.1,2.1,0,0,1,4.2,2.1v0A2.1,2.1,0,0,1,2.1,4.2h0A2.1,2.1,0,0,1,0,2.1v0A2.1,2.1,0,0,1,2.1,0Z" transform="translate(-1032.24 -15572.954)" fill="#fff"/>
    <path id="Path_2080" data-name="Path 2080" d="M1098.614,403.981a2.174,2.174,0,0,0,1.039.263h.044a2.178,2.178,0,0,0,2.18-2.18v-8.576a2.18,2.18,0,0,0-2.18-2.18h-.044a2.181,2.181,0,0,0-2.18,2.18v8.576a2.18,2.18,0,0,0,1.141,1.917" transform="translate(-2148.728 -16017.367)" fill="#fff"/>
    <path id="Path_2081" data-name="Path 2081" d="M1289.138,403.283a2.19,2.19,0,0,0,.769.7,2.17,2.17,0,0,0,1.039.263h.044a2.179,2.179,0,0,0,2.18-2.18v-8.576a2.18,2.18,0,0,0-2.18-2.18h-.044a2.18,2.18,0,0,0-2.18,2.18v8.576a2.177,2.177,0,0,0,.372,1.219" transform="translate(-2328.27 -16017.367)" fill="#fff"/>
    <path id="Path_2082" data-name="Path 2082" d="M907.32,403.981c.062.033.125.064.191.092a2.175,2.175,0,0,0,.849.171h.044a2.178,2.178,0,0,0,2.18-2.18v-8.576a2.18,2.18,0,0,0-2.18-2.18h-.044a2.18,2.18,0,0,0-2.18,2.18v8.576a2.18,2.18,0,0,0,1.141,1.917" transform="translate(-1969.186 -16017.367)" fill="#fff"/>
    <path id="Path_2083" data-name="Path 2083" d="M716.03,403.981a2.172,2.172,0,0,0,1.039.263h.044c.075,0,.15,0,.223-.011s.145-.019.216-.033a2.169,2.169,0,0,0,.78-.328,2.185,2.185,0,0,0,.79-.959,2.171,2.171,0,0,0,.171-.849v-8.576a2.18,2.18,0,0,0-2.18-2.18h-.044a2.18,2.18,0,0,0-2.18,2.18v8.576a2.183,2.183,0,0,0,1.141,1.917" transform="translate(-1789.648 -16017.367)" fill="#fff"/>
    <path id="Path_2084" data-name="Path 2084" d="M1481.018,403.871a2.17,2.17,0,0,0,1.219.372h.044a2.175,2.175,0,0,0,.849-.171q.1-.041.191-.092a2.18,2.18,0,0,0,1.141-1.917V396.42h0v-2.933a2.18,2.18,0,0,0-2.181-2.18h-.044a2.18,2.18,0,0,0-2.18,2.18v8.576a2.174,2.174,0,0,0,.961,1.808" transform="translate(-2507.811 -16017.364)" fill="#fff"/>
    <path id="Path_2085" data-name="Path 2085" d="M604.464,496.213a1.819,1.819,0,0,0,1.587,1.8l.037.005a1.806,1.806,0,0,0,2.042-1.8v-7.169h58.7v40.317a1.628,1.628,0,0,1-1.628,1.628H622.83a1.839,1.839,0,0,0-1.523.835l-.026.038a1.794,1.794,0,0,0,1.489,2.793H665.2a5.3,5.3,0,0,0,5.295-5.295V480.531a5.985,5.985,0,0,0-5.985-5.986h-.767v5.643a3.289,3.289,0,0,1-3.289,3.289h-.044a3.289,3.289,0,0,1-3.289-3.289v-5.643H651.99v5.643a3.289,3.289,0,0,1-3.289,3.289h-.044a3.289,3.289,0,0,1-3.289-3.289v-5.643h-5.129v5.643a3.289,3.289,0,0,1-3.289,3.289h-.044a3.289,3.289,0,0,1-3.289-3.289v-5.643h-5.129v5.643a3.289,3.289,0,0,1-3.289,3.289h-.044a3.289,3.289,0,0,1-3.289-3.289v-5.643h-5.129v5.643a3.289,3.289,0,0,1-3.289,3.289H613.4a3.289,3.289,0,0,1-3.289-3.289v-5.626a5.988,5.988,0,0,0-5.649,5.968v11.882a1.884,1.884,0,0,0,0,.639Z" transform="translate(-1685.981 -16095.487)" fill="#fff"/>
    <path id="Path_2086" data-name="Path 2086" d="M283.895,930.23a19.557,19.557,0,1,0-19.557-19.557,19.579,19.579,0,0,0,19.557,19.557m0-34.451A14.894,14.894,0,1,1,269,910.672a14.911,14.911,0,0,1,14.894-14.894" transform="translate(-1366.774 -16486.473)" fill="#fff"/>
    <path id="Path_2087" data-name="Path 2087" d="M539.346,1020.82a2.857,2.857,0,0,0,.53-.054l4.916,5.1a1.554,1.554,0,0,0,2.238-2.158l-4.91-5.093a2.805,2.805,0,0,0-1.239-3.056v-8.584a1.554,1.554,0,0,0-3.109,0v8.6a2.856,2.856,0,0,0,1.573,5.24" transform="translate(-1622.206 -16593.752)" fill="#fff"/>
  </g>
</svg>
