<svg xmlns="http://www.w3.org/2000/svg" xmlns:xlink="http://www.w3.org/1999/xlink" width="64" height="64" viewBox="0 0 64 64">
  <defs>
    <clipPath id="clip-favicon_64x64">
      <rect width="64" height="64"/>
    </clipPath>
  </defs>
  <g id="favicon_64x64" clip-path="url(#clip-favicon_64x64)">
    <g id="マーク" transform="translate(0.001 15.999)">
      <path id="Path_1540" data-name="Path 1540" d="M19.482,22.8a18.257,18.257,0,0,1,1.644-2.08,19.991,19.991,0,0,1,4.566-3.583A9.526,9.526,0,0,1,30.113,15.6,3.01,3.01,0,0,1,33.15,17.86a12.394,12.394,0,0,1,.019,4.371,42.538,42.538,0,0,0-.193,4.465,1.956,1.956,0,0,0,1.9,1.843,12.718,12.718,0,0,0,5.633-1.976,27.164,27.164,0,0,0,7.247-7.544,26.7,26.7,0,0,0,3.48-7.981,5.664,5.664,0,0,0-.193-3.857,3.121,3.121,0,0,0-1.154-.912A5.223,5.223,0,0,1,52.392,6c1.135.247,2.48,1.577,2.057,4.047A17.393,17.393,0,0,1,51.931,16.3a43.01,43.01,0,0,1-6.344,7.62,30.025,30.025,0,0,1-7.016,4.712,14.975,14.975,0,0,1-6.017,1.312c-1.807,0-4-.932-4.691-2.3a7.229,7.229,0,0,1-.577-3.952c.1-1.14.231-2.7.289-3.4a1.159,1.159,0,0,0-1.615-1.216A26.175,26.175,0,0,0,19.482,22.8" transform="translate(-0.613 -0.252)" fill="#c1a371"/>
      <path id="Union_1" data-name="Union 1" d="M5.412,32.049A6.085,6.085,0,0,1,.644,29.5a5.594,5.594,0,0,1-.422-4.181,6.349,6.349,0,0,1,1.461-2.794,2.258,2.258,0,0,1,2.826-.437c.961.646.4,2.11-.02,2.6a6.738,6.738,0,0,0-1.826,3.9,3.136,3.136,0,0,0,2.768,3.1c1.231,0,2.653-.323,4.288-2.47S12.7,23.326,13.6,20.5s1.749-5.512,3.344-9.692a21.918,21.918,0,0,1,5.5-8.627A9.558,9.558,0,0,1,26.558.029c.326-.076.308,0,.154.191a28.8,28.8,0,0,0-3.018,5.928c-1.212,3.249-1.577,4.276-1.788,5.036a70.746,70.746,0,0,1,6.17-4.789,42.757,42.757,0,0,1,9.5-4.694A19.98,19.98,0,0,1,43.244.581C43.186.6,40.38,2.1,38.264,3.525s-6.824,5.036-9.477,7.3S21.156,17.758,18.6,20.514a33.854,33.854,0,0,1-2.807,5.948,16.457,16.457,0,0,1-4.056,4.276A11.785,11.785,0,0,1,6.17,32.08C5.91,32.08,5.656,32.07,5.412,32.049ZM56.124,21.2A32.545,32.545,0,0,0,60.161,9.036a33.945,33.945,0,0,0-.269-7.828,11.893,11.893,0,0,1,3.576,7.9c.153,4.865-3.115,10.527-5.768,13.643A39.7,39.7,0,0,1,46.474,31.5S53.2,26.633,56.124,21.2ZM35.248,15.422c.154-3.649,3.23-6.461,6.92-8.969a22.961,22.961,0,0,1,7.652-3.269c-6.767,3.724-9.573,8.78-9.112,10.642s2.461,3.839,6.613,3.991,8.919-2.166,8.919-2.166c-2.768,2.794-9.381,4.295-12.725,4.561-.262.021-.534.031-.813.031C39.407,20.241,35.106,18.785,35.248,15.422Z" fill="#00423b" stroke="rgba(0,0,0,0)" stroke-miterlimit="10" stroke-width="1"/>
    </g>
  </g>
</svg>
