<svg xmlns="http://www.w3.org/2000/svg" xmlns:xlink="http://www.w3.org/1999/xlink" width="90" height="89.999" viewBox="0 0 90 89.999"><defs><clipPath id="a"><path d="M90,45A45,45,0,1,0,45,90,45,45,0,0,0,90,45" transform="translate(13975 -8306.999)" fill="#ccc"/></clipPath></defs><g transform="translate(-13975 8306.999)" clip-path="url(#a)"><path d="M90,45A45,45,0,1,0,45,90,45,45,0,0,0,90,45" transform="translate(13975 -8306.999)" fill="#ccc"/><path d="M62.358,26.832c0-9.362-7.339-16.951-16.391-16.951S29.576,17.47,29.576,26.832s7.338,16.951,16.391,16.951,16.391-7.589,16.391-16.951" transform="translate(13974.036 -8303.452)" fill="#fff"/><path d="M75.246,97.508c0-9.84-1.351-36.864-8.146-42.851-6.257-5.513-13.641-5.513-21.587-5.513s-15.329,0-21.586,5.513c-6.794,5.986-8.146,33.011-8.146,42.851" transform="translate(13974.486 -8304.73)" fill="#fff"/></g></svg>