<svg xmlns="http://www.w3.org/2000/svg" width="27.633" height="27.341" viewBox="0 0 27.633 27.341">
  <g id="Group_331" data-name="Group 331" transform="translate(0.001 -6.426)">
    <path id="Path_1805" data-name="Path 1805" d="M22.547,182.615l-3.484-3.485a1.3,1.3,0,0,0-1.834,0l-1.581,1.582a1.3,1.3,0,0,1-1.711.108,29.192,29.192,0,0,1-3.984-3.469,29.161,29.161,0,0,1-3.469-3.984,1.3,1.3,0,0,1,.109-1.711l1.581-1.58a1.3,1.3,0,0,0,0-1.834L4.69,164.758a1.3,1.3,0,0,0-1.834,0l-2.1,2.1c-2.228,2.228.719,9.054,5.677,14.013s11.785,7.9,14.013,5.678l2.1-2.1a1.3,1.3,0,0,0,0-1.833" transform="translate(-0.001 -153.537)" fill="#fff"/>
    <path id="Union_8" data-name="Union 8" d="M13352.293,21217.1a5.126,5.126,0,0,0-2.833-1.447l.192-1.2a6.374,6.374,0,0,1,5.288,5.283l-1.2.191A5.113,5.113,0,0,0,13352.293,21217.1Zm2.717-2.715a8.967,8.967,0,0,0-4.947-2.52l.191-1.2a10.188,10.188,0,0,1,8.473,8.477l-1.2.193A8.9,8.9,0,0,0,13355.01,21214.385Zm2.7-2.707a12.763,12.763,0,0,0-7.051-3.594l.192-1.2a14.026,14.026,0,0,1,11.657,11.662l-1.2.188A12.719,12.719,0,0,0,13357.709,21211.678Z" transform="translate(-13335.448 -21199.883)" fill="#fff" stroke="rgba(0,0,0,0)" stroke-miterlimit="10" stroke-width="1"/>
  </g>
</svg>
