<svg xmlns="http://www.w3.org/2000/svg" width="153.478" height="25.077" viewBox="0 0 153.478 25.077">
  <g id="logo" transform="translate(0.52 0.497)">
    <g id="マーク" transform="translate(0 0)">
      <path id="Path_1540" data-name="Path 1540" d="M19.482,18.594a13.773,13.773,0,0,1,1.274-1.562,15.435,15.435,0,0,1,3.54-2.689,7.552,7.552,0,0,1,3.428-1.155,2.328,2.328,0,0,1,2.355,1.7,9.011,9.011,0,0,1,.015,3.281,30.917,30.917,0,0,0-.149,3.352A1.494,1.494,0,0,0,31.421,22.9a10.083,10.083,0,0,0,4.368-1.483,20.713,20.713,0,0,0,5.619-5.663,19.7,19.7,0,0,0,2.7-5.991,4.126,4.126,0,0,0-.149-2.9,2.415,2.415,0,0,0-.894-.685A4.173,4.173,0,0,1,45,5.985c.88.185,1.923,1.184,1.6,3.038a12.825,12.825,0,0,1-1.953,4.693,32.539,32.539,0,0,1-4.919,5.72,23.355,23.355,0,0,1-5.44,3.537,11.937,11.937,0,0,1-4.665.985c-1.4,0-3.1-.7-3.637-1.726a5.27,5.27,0,0,1-.448-2.967c.074-.856.179-2.026.224-2.553s-.342-1.151-1.252-.913a20.47,20.47,0,0,0-5.023,2.8" transform="translate(-4.852 -1.669)" fill="#c1a371"/>
      <path id="Union_1" data-name="Union 1" d="M4.2,24.056A4.755,4.755,0,0,1,.5,22.146a4.08,4.08,0,0,1-.328-3.138,4.706,4.706,0,0,1,1.133-2.1A1.791,1.791,0,0,1,3.5,16.583c.745.485.312,1.583-.015,1.953a4.994,4.994,0,0,0-1.417,2.925,2.387,2.387,0,0,0,2.147,2.324,3.935,3.935,0,0,0,3.324-1.854,23.864,23.864,0,0,0,3.011-6.546c.7-2.126,1.357-4.137,2.593-7.275A16.422,16.422,0,0,1,17.4,1.634,7.515,7.515,0,0,1,20.592.022c.254-.057.239,0,.12.142a21.415,21.415,0,0,0-2.339,4.451c-.94,2.439-1.224,3.209-1.387,3.781A54.575,54.575,0,0,1,21.77,4.8a33.661,33.661,0,0,1,7.363-3.522,15.947,15.947,0,0,1,4.4-.841c-.046.014-2.221,1.14-3.861,2.21s-5.291,3.78-7.348,5.477S16.4,13.33,14.422,15.4a25.04,25.04,0,0,1-2.177,4.466A12.549,12.549,0,0,1,9.1,23.072,9.367,9.367,0,0,1,4.786,24.08C4.584,24.08,4.386,24.073,4.2,24.056Zm39.323-8.144a23.872,23.872,0,0,0,3.129-9.13A24.6,24.6,0,0,0,46.44.906,8.838,8.838,0,0,1,49.212,6.84c.118,3.652-2.415,7.9-4.472,10.241a30.654,30.654,0,0,1-8.7,6.562S41.252,19.991,43.518,15.912ZM27.33,11.576c.119-2.739,2.505-4.849,5.366-6.733A18.149,18.149,0,0,1,38.629,2.39c-5.247,2.8-7.422,6.59-7.065,7.988s1.908,2.88,5.129,2.995a17.9,17.9,0,0,0,6.915-1.626c-2.147,2.1-7.273,3.225-9.867,3.423-.2.016-.415.024-.631.024C30.554,15.194,27.22,14.1,27.33,11.576Z" fill="#00423b" stroke="rgba(0,0,0,0)" stroke-miterlimit="10" stroke-width="1"/>
    </g>
    <path id="司法書士かがやき法務サービス" d="M38.931,20.038c.144-.94.1-1.7-.125-1.815a.9.9,0,0,0-.492-.139v-.2h.443c.125,0,.154,0,.25-.194.193-.331.193-.331,1.993-4.165l.164.045c-.424,1.171-1.242,3.374-1.377,3.843a3.413,3.413,0,0,0-.164.839,7.228,7.228,0,0,1,.289,1.576c-.019.406-.24.673-.616.673C39.114,20.5,38.969,20.342,38.931,20.038Zm15.16-.019a2.323,2.323,0,0,0-.868-.258V19.6c.385.037,1.051.083,1.252.083A.484.484,0,0,0,54.8,19.6a4.462,4.462,0,0,0,.473-2.184h-1.56a4.147,4.147,0,0,1-3.034,3.069l-.106-.138a4.008,4.008,0,0,0,2.379-2.931H51.181l-.086-.267h1.916a10.441,10.441,0,0,0,.106-1.079l1.1.1c-.019.111-.1.2-.327.231a6.478,6.478,0,0,1-.116.747H55.2l.395-.4.8.626a.691.691,0,0,1-.385.13c-.1,1.474-.327,2.4-.722,2.709a1.762,1.762,0,0,1-1.022.276A.568.568,0,0,0,54.091,20.019Zm-5.114-.055a1.539,1.539,0,0,0-.838-.268v-.138s.982.065,1.185.065c.182,0,.23-.046.23-.175V16.719a7.689,7.689,0,0,1-1.753,2.12l-.134-.128a9.458,9.458,0,0,0,1.714-3.494H47.868l-.087-.267h3.247l.423-.414.781.709a.643.643,0,0,1-.386.092,6.293,6.293,0,0,1-1.261,1.051l-.117-.065a9.2,9.2,0,0,0,.569-1.106h-.751v4.258c0,.544-.136.94-1.107,1.023A.767.767,0,0,0,48.976,19.963Zm-2.745.3a5.09,5.09,0,0,0-.492-1.022c-1.088.248-2.542.543-4.536.9a.4.4,0,0,1-.25.194l-.463-1c.319-.01.781-.028,1.338-.055a17,17,0,0,0,1.118-2.821H40.694l-.077-.267h2.629V14.342H41.174l-.067-.267h2.139V12.084l1.145.111c-.02.128-.106.221-.356.258v1.622h1.338l.5-.609s.549.424.9.729c-.03.1-.126.147-.26.147H44.035v1.853h1.647l.5-.627s.578.434.915.747c-.029.1-.126.147-.25.147H44a14.377,14.377,0,0,1-1.839,2.8c.972-.056,2.186-.139,3.457-.222a17.156,17.156,0,0,0-1.194-1.584l.115-.055c2.751,1.394,2.715,3,2.057,3A.643.643,0,0,1,46.231,20.268Zm-23.1-.377c-.077-.221-.163-.729-.346-1.318a11.853,11.853,0,0,0-1.145-2.534c-.28.165-.559.331-.819.5-.443.276-.578.479-.867.479a1.348,1.348,0,0,1-.886-.535.862.862,0,0,1-.135-.6l.182-.083c.155.213.347.424.569.424a2.314,2.314,0,0,0,.848-.295c.26-.13.52-.258.779-.378-.192-.268-.346-.461-.482-.617-.183-.221-.394-.387-.318-.737.087-.535.559-.48.868-.5.741-.056,1.473-.1,1.743-.13.135-.018.173-.083.106-.221a1.582,1.582,0,0,0-1-.645l.067-.185a2.354,2.354,0,0,1,1.618.59.987.987,0,0,1,.309.672c0,.231-.116.331-.309.331-.174,0-.366-.082-.606-.11a12.011,12.011,0,0,0-1.744-.009c-.269.027-.395.073-.395.258s.386.645.685,1.042a9.309,9.309,0,0,1,3.63-1.115c1.214,0,1.983.681,1.983,1.594,0,.977-.9,1.548-2.032,1.548a2.742,2.742,0,0,1-2.108-1.125l.162-.137a2.929,2.929,0,0,0,1.879.654c.809,0,1.387-.414,1.387-1.106a1.181,1.181,0,0,0-1.31-1.1,7.569,7.569,0,0,0-3.294,1.225,18.532,18.532,0,0,1,1.444,2.783,4.166,4.166,0,0,1,.347,1.272c0,.295-.153.5-.413.5C23.345,20.287,23.219,20.177,23.132,19.891Zm7.09-1.144c0-.775.81-1.5,2.476-1.5a8.26,8.26,0,0,1,1.935.248c.126.037.136.01.077-.083a13.791,13.791,0,0,1-.876-1.271,11.042,11.042,0,0,1-2.359.258c-1.348,0-1.782-.848-.693-1.567l.154.13c-.539.506-.4.857.6.857a7.837,7.837,0,0,0,1.983-.268c-.173-.331-.347-.719-.51-1.115a7.248,7.248,0,0,1-1.5.185,1.658,1.658,0,0,1-1.714-.949l.126-.093a2.157,2.157,0,0,0,1.5.5,6.839,6.839,0,0,0,1.358-.193q-.129-.332-.26-.664a.459.459,0,0,0-.462-.341,5.019,5.019,0,0,0-.539-.028l-.029-.156a1.456,1.456,0,0,1,.848-.285c.395,0,.77.082.818.359s.1.627.193.976a13.857,13.857,0,0,0,1.434-.589c.27,0,.569.046.578.276,0,.093-.067.2-.23.3a8.138,8.138,0,0,1-1.6.581,7.52,7.52,0,0,0,.491,1.1c.222-.065.433-.138.626-.212.732-.268.876-.424,1.011-.424.279-.028.559.046.559.276,0,.111-.049.221-.232.332A7.208,7.208,0,0,1,34.363,16c.752,1.152,1.311,1.4,1.311,1.677,0,.331-.193.737-.453.737s-.4-.185-.838-.406a4.666,4.666,0,0,0-1.887-.414c-1.011,0-1.723.414-1.723,1,0,.8,1.145.931,2.022.931.761,0,.953-.111,1.377-.111.327,0,.568.13.568.351,0,.331-.7.479-1.887.479C31.561,20.24,30.222,19.8,30.222,18.747Zm29.927,1.262a5.083,5.083,0,0,0,2.128-1.687,5.447,5.447,0,0,0,.578-2.819c-.674.045-1.387.11-1.965.165,0,.747.01,1.475.01,1.788,0,.368-.106.516-.337.516-.279,0-.463-.433-.463-.727a13.039,13.039,0,0,0,.164-1.5c-.462.064-.837.138-1.107.2a3.372,3.372,0,0,1-.674.194c-.28,0-.665-.461-.762-.654a1.421,1.421,0,0,1-.067-.554l.164-.045c.192.267.366.516.616.516.356,0,1.261-.1,1.829-.156a8.618,8.618,0,0,0-.066-1.364c-.049-.2-.27-.268-.685-.341v-.166a1.58,1.58,0,0,1,.6-.148c.327,0,.962.286.962.572,0,.194-.135.2-.153.506-.02.166-.03.517-.03.876L62.854,15a14,14,0,0,0-.039-1.714c-.029-.213-.269-.268-.693-.323l-.009-.185a1.986,1.986,0,0,1,.645-.156c.472,0,1.05.387,1.05.617,0,.2-.183.166-.212.581-.009.331-.019.755-.029,1.115,1.05-.092,1.147-.165,1.348-.165.442,0,1.011.2,1.011.525,0,.2-.1.258-.3.258-.261,0-.666-.1-1.465-.1-.182,0-.385.01-.606.018a5.386,5.386,0,0,1-.684,3.088,5.188,5.188,0,0,1-2.611,1.65ZM9.506,19.632a.624.624,0,0,1,.173-.471A13.858,13.858,0,0,0,11.17,16.9c.223-.424.453-.922.665-1.411-.327.111-.625.221-.818.3a2.191,2.191,0,0,1-.781.258c-.259,0-.645-.387-.722-.71a1.129,1.129,0,0,1,.049-.562l.174-.027c.125.267.211.534.481.534a17.3,17.3,0,0,0,1.849-.351,6.764,6.764,0,0,0,.472-1.456.255.255,0,0,0-.154-.258,2.882,2.882,0,0,0-.732-.156v-.175a1.764,1.764,0,0,1,.7-.148c.4,0,1.174.332,1.174.581,0,.221-.22.332-.336.59-.087.212-.222.525-.386.894a6.135,6.135,0,0,1,.761-.074c.733,0,1.176.4,1.176,1.522a5.223,5.223,0,0,1-.945,3.142,1.571,1.571,0,0,1-1.194.562c-.337,0-.415-.128-.539-.451-.057-.156-.135-.258-.645-.71l.1-.138a3.4,3.4,0,0,0,1.155.507.807.807,0,0,0,.732-.433,5.4,5.4,0,0,0,.693-2.682c0-.617-.164-.9-.674-.9a4.1,4.1,0,0,0-.828.128c-.27.618-.588,1.318-.878,1.9A26.424,26.424,0,0,1,10.3,19.715c-.163.258-.288.331-.462.331A.378.378,0,0,1,9.506,19.632Zm-9.5-.064A.627.627,0,0,1,.181,19.1a13.854,13.854,0,0,0,1.494-2.266c.222-.424.452-.922.664-1.411-.327.11-.626.221-.819.3a2.193,2.193,0,0,1-.779.258c-.26,0-.646-.387-.722-.71A1.116,1.116,0,0,1,.066,14.7l.172-.028c.126.268.213.535.483.535a17.3,17.3,0,0,0,1.849-.351A6.783,6.783,0,0,0,3.042,13.4a.254.254,0,0,0-.154-.258,2.847,2.847,0,0,0-.732-.156v-.175a1.741,1.741,0,0,1,.7-.148c.4,0,1.174.331,1.174.581,0,.221-.22.331-.336.59-.087.212-.222.525-.386.894a5.916,5.916,0,0,1,.761-.074c.733,0,1.175.4,1.175,1.521A5.224,5.224,0,0,1,4.3,19.319a1.577,1.577,0,0,1-1.194.562c-.337,0-.415-.128-.539-.451-.058-.158-.135-.259-.646-.71l.1-.138a3.4,3.4,0,0,0,1.155.507.808.808,0,0,0,.732-.434A5.388,5.388,0,0,0,4.6,15.974c0-.617-.163-.9-.675-.9A4.122,4.122,0,0,0,3.1,15.2c-.269.617-.588,1.318-.876,1.9A26.737,26.737,0,0,1,.807,19.65c-.163.258-.289.332-.462.332A.378.378,0,0,1,.008,19.568Zm78.587-1.412c-.01-.968.106-3.935.039-4.323-.039-.24-.27-.313-.752-.4l-.009-.148a2.761,2.761,0,0,1,.751-.165c.443.018,1.04.423,1.04.663,0,.194-.183.249-.222.534-.057.4-.1,1.328-.144,2.194A12.839,12.839,0,0,0,82.4,15c.154-.128.193-.2.126-.368a1.275,1.275,0,0,0-.212-.332l.125-.11a1.283,1.283,0,0,1,.559.2,1.261,1.261,0,0,1,.578.764c0,.194-.26.249-.625.424a24.366,24.366,0,0,1-3.66,1.328c-.019.534-.03,1-.03,1.243,0,.867.194.941,1.321.941a13.061,13.061,0,0,0,2.5-.3c.52,0,.838.12.838.368,0,.231-.146.332-.356.4a12.151,12.151,0,0,1-2.871.24C78.864,19.788,78.614,19.484,78.594,18.157Zm8.052,1.28a12.843,12.843,0,0,0,5.432-5.206c.049-.13-.009-.158-.116-.138-.6.082-1.906.4-2.418.534-.308.083-.365.267-.615.267-.319,0-.723-.441-.838-.7a1.79,1.79,0,0,1-.116-.6l.193-.074c.173.231.375.544.7.544a22.851,22.851,0,0,0,2.918-.443c.212-.055.337-.258.5-.258.319,0,1.021.544,1.021.784,0,.2-.336.295-.462.469a15.492,15.492,0,0,1-1.56,2.046c1.57.609,3.091,1.585,3.091,2.434a.387.387,0,0,1-.395.4c-.3,0-.472-.285-.925-.82a7.5,7.5,0,0,0-2-1.787,11.33,11.33,0,0,1-4.277,2.755ZM16.689,17.6a5.488,5.488,0,0,0-1.117-.009l-.049-.2c.376-.083.905-.185,1.155-.276.2-.074.251-.166.241-.406a2,2,0,0,0-.376-1.05,1.893,1.893,0,0,0-1.241-.747l.095-.2a2.686,2.686,0,0,1,1.686.737,2.4,2.4,0,0,1,.655,1.733c0,.423-.154.755-.482.755C16.968,17.937,16.978,17.669,16.689,17.6Zm-9.5-.064a5.579,5.579,0,0,0-1.118-.009l-.047-.2c.375-.083.905-.185,1.155-.277.2-.073.25-.165.241-.4a2,2,0,0,0-.376-1.05,1.9,1.9,0,0,0-1.242-.747l.1-.2a2.686,2.686,0,0,1,1.686.737,2.394,2.394,0,0,1,.655,1.732c0,.424-.154.755-.482.755C7.471,17.872,7.481,17.605,7.193,17.54Zm60.451-1.16a1.442,1.442,0,0,1-.077-.572l.192-.055c.222.331.386.608.819.608.905,0,4.151-.2,4.632-.239.646-.046.964-.1,1.205-.1.433,0,.885.193.885.488,0,.185-.144.295-.491.295s-.684-.018-1.3-.018c-.635,0-3.187.139-3.909.221-.6.065-.712.221-1.021.221S67.788,16.73,67.644,16.38Zm-16.587.2a7.659,7.659,0,0,0,2.532-1.41,5.876,5.876,0,0,1-.962-1.328,5.1,5.1,0,0,1-1.021.8l-.116-.1A6.707,6.707,0,0,0,52.906,12l1.05.378a.314.314,0,0,1-.366.156,6.029,6.029,0,0,1-.433.692h2.158l.472-.6s.559.414.876.719c-.019.1-.116.147-.24.147h-.7a4.79,4.79,0,0,1-1.271,1.65,7.531,7.531,0,0,0,2.378.719l-.029.11a.8.8,0,0,0-.395.673,6.457,6.457,0,0,1-2.427-1.133,8.534,8.534,0,0,1-2.851,1.207Zm1.723-2.894a4.6,4.6,0,0,0,1.156,1.152,4.315,4.315,0,0,0,.865-1.346H52.944C52.9,13.558,52.838,13.623,52.78,13.687ZM39.132,15.466a2.763,2.763,0,0,0-1.04-1.18l.087-.083c1.934.171,1.817,1.338,1.226,1.338A.578.578,0,0,1,39.132,15.466Zm10.788-.6A3.769,3.769,0,0,0,48.7,13.485l.087-.073a3.221,3.221,0,0,1,1.2.4,11.372,11.372,0,0,0,.7-.968H48l-.086-.276h2.831l.453-.433.789.737c-.077.065-.183.073-.385.092a12.172,12.172,0,0,1-1.426.986c.553.453.385.991,0,.991A.557.557,0,0,1,49.92,14.867Zm34.3-.24c-.146-.018-.251-.2-.424-.434a4.134,4.134,0,0,0-.857-.867l.125-.147a3.3,3.3,0,0,1,1.137.626.747.747,0,0,1,.318.545.28.28,0,0,1-.281.277ZM16.564,14.14a4.281,4.281,0,0,0-.876-.848l.116-.148a3.446,3.446,0,0,1,1.156.6.713.713,0,0,1,.318.534.255.255,0,0,1-.26.276C16.862,14.554,16.748,14.361,16.564,14.14Zm.9-.683a4.569,4.569,0,0,0-.9-.774l.116-.147a3.5,3.5,0,0,1,1.147.516.726.726,0,0,1,.355.572.235.235,0,0,1-.259.258C17.769,13.882,17.662,13.679,17.459,13.456Zm67.174-.018a4.221,4.221,0,0,0-.847-.792L83.9,12.5a3.549,3.549,0,0,1,1.127.534.688.688,0,0,1,.329.581.233.233,0,0,1-.251.258C84.941,13.862,84.835,13.669,84.633,13.438Zm-44.71.056a3.229,3.229,0,0,0-1.079-1.272l.087-.082c2,.218,1.883,1.429,1.269,1.429A.614.614,0,0,1,39.923,13.494ZM10.706,8.046c.144-.94.1-1.7-.125-1.815a.9.9,0,0,0-.492-.139v-.2h.443c.125,0,.153,0,.25-.194.193-.331.193-.331,1.993-4.165l.164.045C12.516,2.747,11.7,4.95,11.564,5.419a3.413,3.413,0,0,0-.164.839,7.162,7.162,0,0,1,.289,1.576c-.019.406-.24.673-.616.673C10.889,8.507,10.745,8.35,10.706,8.046ZM6.718,7.963A2.85,2.85,0,0,0,5.61,7.65V7.512S7,7.6,7.258,7.6c.222,0,.279-.074.279-.231V.857H.8L.719.59H7.441L7.835.13,8.74.8a.806.806,0,0,1-.423.183v6.47c0,.571-.136.93-1.3,1.042A.744.744,0,0,0,6.718,7.963ZM21.079,8.5V5.364l.828.323h4.055l.4-.416.875.637a.729.729,0,0,1-.4.183V8.267a1.212,1.212,0,0,1-.645.2h-.125V7.99H21.84v.268c0,.073-.327.24-.645.24Zm.762-.775h4.218V6.948H21.841Zm0-1.04h4.218v-.72H21.84ZM18.007,8.276a5.151,5.151,0,0,0-.492-1.022c-1.088.248-2.542.543-4.536.9a.4.4,0,0,1-.25.194l-.463-1c.318-.01.781-.028,1.34-.055a17.1,17.1,0,0,0,1.117-2.821H12.469L12.392,4.2H15.02V2.35H12.951l-.068-.267H15.02V.092L16.167.2c-.019.128-.106.221-.356.258V2.083h1.338l.5-.609s.548.424.9.729c-.029.1-.126.147-.26.147H15.811V4.2h1.646l.5-.627s.578.434.915.747c-.029.1-.126.147-.25.147H15.772a14.331,14.331,0,0,1-1.84,2.8c.973-.056,2.186-.139,3.457-.222A16.772,16.772,0,0,0,16.2,5.465l.116-.055c2.751,1.394,2.714,3,2.057,3A.64.64,0,0,1,18.007,8.276Zm11.81-.231-.086-.276h3.447v-4.2h-3.9L29.2,3.3h3.978V.147l1.175.111c-.02.138-.106.23-.337.267V3.3h2.465l.54-.663s.635.451,1,.784c-.029.1-.125.147-.26.147H34.016v4.2h1.956l.539-.654s.625.452,1.011.784c-.03.1-.125.147-.27.147ZM1.392,7.4V3.291l.8.323H4.657l.4-.416.867.627A.8.8,0,0,1,5.5,4.01V6.82a1.009,1.009,0,0,1-.635.24H4.754V6.3H2.144v.875c0,.074-.309.23-.627.23Zm.752-1.373h2.61V3.881H2.144ZM19.683,5.05,19.6,4.774h3.9V4.046H20.434l-.077-.268H23.5V3.069H20.742L20.656,2.8H23.5V2.055H19.625l-.086-.267H23.5V1.06H20.8L20.713.8H23.5V0l1.117.11c-.019.13-.106.221-.347.258V.8h1.647l.4-.406L27.147,1a.707.707,0,0,1-.4.185v.6H27.2l.423-.526s.5.378.79.645c-.02.1-.116.147-.241.147H26.752V3.2a1,1,0,0,1-.626.231h-.115V3.069H24.267v.709h2.167l.453-.526s.52.369.838.645c-.02.1-.116.148-.25.148H24.267v.727H27l.462-.544a10.611,10.611,0,0,1,.876.673c-.03.1-.116.147-.25.147ZM24.267,2.8h1.744V2.055H24.267Zm0-1.013h1.744V1.06H24.267ZM10.908,3.474a2.756,2.756,0,0,0-1.04-1.18l.087-.083c1.933.171,1.816,1.338,1.226,1.338A.575.575,0,0,1,10.908,3.474ZM.536,2.406.459,2.139H5.37l.52-.609s.568.414.934.729c-.029.1-.135.147-.27.147ZM11.7,1.5A3.238,3.238,0,0,0,10.619.23l.087-.082c2,.218,1.882,1.428,1.268,1.428A.6.6,0,0,1,11.7,1.5Z" transform="translate(58.077 1.608)" fill="#1a1311" stroke="rgba(0,0,0,0)" stroke-miterlimit="10" stroke-width="1"/>
  </g>
</svg>
