<svg xmlns="http://www.w3.org/2000/svg" width="344.331" height="33.076" viewBox="0 0 344.331 33.076">
  <g id="logo" transform="translate(0.525 0.495)">
    <g id="マーク" transform="translate(0.001 0)">
      <path id="Path_1540" data-name="Path 1540" d="M19.482,22.8a18.257,18.257,0,0,1,1.644-2.08,19.991,19.991,0,0,1,4.566-3.583A9.526,9.526,0,0,1,30.113,15.6,3.01,3.01,0,0,1,33.15,17.86a12.394,12.394,0,0,1,.019,4.371,42.538,42.538,0,0,0-.193,4.465,1.956,1.956,0,0,0,1.9,1.843,12.718,12.718,0,0,0,5.633-1.976,27.164,27.164,0,0,0,7.247-7.544,26.7,26.7,0,0,0,3.48-7.981,5.664,5.664,0,0,0-.193-3.857,3.121,3.121,0,0,0-1.154-.912A5.223,5.223,0,0,1,52.392,6c1.135.247,2.48,1.577,2.057,4.047A17.393,17.393,0,0,1,51.931,16.3a43.01,43.01,0,0,1-6.344,7.62,30.025,30.025,0,0,1-7.016,4.712,14.975,14.975,0,0,1-6.017,1.312c-1.807,0-4-.932-4.691-2.3a7.229,7.229,0,0,1-.577-3.952c.1-1.14.231-2.7.289-3.4a1.159,1.159,0,0,0-1.615-1.216A26.175,26.175,0,0,0,19.482,22.8" transform="translate(-0.613 -0.252)" fill="#c1a371"/>
      <path id="Union_1" data-name="Union 1" d="M5.412,32.049A6.085,6.085,0,0,1,.644,29.5a5.594,5.594,0,0,1-.422-4.181,6.349,6.349,0,0,1,1.461-2.794,2.258,2.258,0,0,1,2.826-.437c.961.646.4,2.11-.02,2.6a6.738,6.738,0,0,0-1.826,3.9,3.136,3.136,0,0,0,2.768,3.1c1.231,0,2.653-.323,4.288-2.47S12.7,23.326,13.6,20.5s1.749-5.512,3.344-9.692a21.918,21.918,0,0,1,5.5-8.627A9.558,9.558,0,0,1,26.558.029c.326-.076.308,0,.154.191a28.8,28.8,0,0,0-3.018,5.928c-1.212,3.249-1.577,4.276-1.788,5.036a70.746,70.746,0,0,1,6.17-4.789,42.757,42.757,0,0,1,9.5-4.694A19.98,19.98,0,0,1,43.244.581C43.186.6,40.38,2.1,38.264,3.525s-6.824,5.036-9.477,7.3S21.156,17.758,18.6,20.514a33.854,33.854,0,0,1-2.807,5.948,16.457,16.457,0,0,1-4.056,4.276A11.785,11.785,0,0,1,6.17,32.08C5.91,32.08,5.656,32.07,5.412,32.049ZM56.124,21.2A32.545,32.545,0,0,0,60.161,9.036a33.945,33.945,0,0,0-.269-7.828,11.893,11.893,0,0,1,3.576,7.9c.153,4.865-3.115,10.527-5.768,13.643A39.7,39.7,0,0,1,46.474,31.5S53.2,26.633,56.124,21.2ZM35.248,15.422c.154-3.649,3.23-6.461,6.92-8.969a22.961,22.961,0,0,1,7.652-3.269c-6.767,3.724-9.573,8.78-9.112,10.642s2.461,3.839,6.613,3.991,8.919-2.166,8.919-2.166c-2.768,2.794-9.381,4.295-12.725,4.561-.262.021-.534.031-.813.031C39.407,20.241,35.106,18.785,35.248,15.422Z" fill="#00423b" stroke="rgba(0,0,0,0)" stroke-miterlimit="10" stroke-width="1"/>
    </g>
    <path id="司法書士かがやき法務サービス" d="M186.759,16.683a4.53,4.53,0,0,0-1.744-.536v-.326c.775.077,2.112.173,2.519.173a.96.96,0,0,0,.658-.173c.428-.365.776-2.049.951-4.54H186c-.6,2.49-2.034,4.94-6.1,6.378l-.213-.288a8.283,8.283,0,0,0,4.786-6.09h-3.567l-.174-.555h3.856c.116-.747.174-1.514.214-2.243l2.208.212c-.038.23-.194.421-.659.478a14.612,14.612,0,0,1-.231,1.553h2.865l.8-.824,1.606,1.3a1.342,1.342,0,0,1-.774.268c-.193,3.064-.658,5-1.453,5.631a3.463,3.463,0,0,1-2.053.575A1.2,1.2,0,0,0,186.759,16.683Zm-10.29-.116a3.026,3.026,0,0,0-1.684-.555v-.287s1.977.133,2.382.133c.368,0,.465-.1.465-.363V9.825a15.92,15.92,0,0,1-3.526,4.407l-.271-.268a19.93,19.93,0,0,0,3.45-7.26h-3.043l-.175-.554h6.53l.852-.863,1.569,1.475a1.266,1.266,0,0,1-.774.191,12.82,12.82,0,0,1-2.539,2.183L179.473,9a19.59,19.59,0,0,0,1.143-2.3H179.1v8.848c0,1.131-.272,1.953-2.227,2.126A1.615,1.615,0,0,0,176.469,16.567Zm-20.208.155c.288-1.955.192-3.525-.253-3.774a1.772,1.772,0,0,0-.987-.286V12.24h.89c.252,0,.31,0,.5-.4.388-.691.388-.691,4.011-8.657l.33.1c-.854,2.432-2.5,7.012-2.771,7.987a7.256,7.256,0,0,0-.331,1.743c.039.88.66,1.7.583,3.275-.038.844-.485,1.4-1.24,1.4C156.627,17.678,156.338,17.353,156.261,16.722Zm-135.644,0c.292-1.955.195-3.525-.252-3.774a1.769,1.769,0,0,0-.988-.286V12.24h.892c.251,0,.309,0,.5-.4.388-.691.388-.691,4.01-8.657l.331.1c-.854,2.432-2.5,7.012-2.771,7.987a7.25,7.25,0,0,0-.33,1.743c.038.88.658,1.7.581,3.275-.04.844-.485,1.4-1.24,1.4C20.987,17.678,20.7,17.353,20.617,16.722Zm20.869.938V11.148l1.667.671H51.31l.8-.863,1.763,1.321a1.451,1.451,0,0,1-.814.384V17.18a2.386,2.386,0,0,1-1.3.421H51.5v-1H43.017v.556c0,.154-.658.5-1.3.5Zm1.532-1.61H51.5V14.442H43.018Zm0-2.165H51.5V12.392H43.017ZM12.595,16.549a5.6,5.6,0,0,0-2.229-.653V15.61s2.79.193,3.313.193c.447,0,.562-.154.562-.479V1.782H.7L.523,1.226H14.047l.794-.957,1.82,1.4a1.611,1.611,0,0,1-.851.383V15.5c0,1.187-.272,1.934-2.615,2.164A1.553,1.553,0,0,0,12.595,16.549Zm158.352.65a10.787,10.787,0,0,0-.989-2.125c-2.191.517-5.115,1.131-9.126,1.876a.783.783,0,0,1-.5.4l-.93-2.088c.638-.019,1.568-.057,2.691-.114a36.26,36.26,0,0,0,2.248-5.862H159.8l-.154-.555h5.288V4.884h-4.165l-.136-.555h4.3V.193l2.3.23c-.038.267-.212.458-.716.535V4.33h2.694l1.007-1.263s1.1.88,1.8,1.511c-.06.211-.252.307-.525.307h-4.979V8.734h3.313l1.007-1.3s1.163.9,1.841,1.552a.462.462,0,0,1-.5.3H166.45a29.891,29.891,0,0,1-3.7,5.823c1.956-.115,4.4-.287,6.956-.461a35.436,35.436,0,0,0-2.4-3.293l.231-.114c5.532,2.9,5.461,6.237,4.137,6.237A1.262,1.262,0,0,1,170.946,17.2ZM35.3,17.2a10.715,10.715,0,0,0-.987-2.125c-2.191.517-5.115,1.131-9.125,1.876a.791.791,0,0,1-.5.4l-.932-2.088c.64-.019,1.57-.057,2.694-.114A36.257,36.257,0,0,0,28.7,9.289H24.163l-.154-.555H29.3V4.884H25.132L25,4.33h4.3V.193l2.3.23c-.038.267-.212.458-.716.535V4.33h2.693l1.007-1.263s1.1.88,1.8,1.511c-.059.211-.252.307-.523.307H30.886V8.734H34.2l1.008-1.3s1.163.9,1.841,1.552a.464.464,0,0,1-.5.3H30.809a29.892,29.892,0,0,1-3.7,5.823c1.958-.115,4.4-.287,6.955-.461a34.825,34.825,0,0,0-2.4-3.293l.233-.114c5.533,2.9,5.462,6.237,4.137,6.237A1.265,1.265,0,0,1,35.3,17.2Zm89.175-.786c-.155-.458-.329-1.511-.7-2.737a24.912,24.912,0,0,0-2.3-5.267c-.562.343-1.125.687-1.648,1.034-.892.575-1.163,1-1.743,1A2.7,2.7,0,0,1,116.3,9.328a1.85,1.85,0,0,1-.271-1.246l.368-.173c.31.442.7.882,1.144.882a4.5,4.5,0,0,0,1.7-.614c.523-.268,1.047-.535,1.568-.784-.385-.556-.7-.957-.968-1.283-.368-.461-.794-.805-.638-1.532.174-1.112,1.123-1,1.744-1.035,1.49-.116,2.964-.212,3.506-.269.271-.038.349-.173.212-.459a3.18,3.18,0,0,0-2.015-1.341l.136-.382a4.646,4.646,0,0,1,3.256,1.225,2.086,2.086,0,0,1,.621,1.4c0,.478-.233.688-.621.688-.35,0-.737-.172-1.22-.23a23.5,23.5,0,0,0-3.51-.017c-.54.056-.794.152-.794.535,0,.4.777,1.34,1.377,2.165,2.672-1.3,5.192-2.318,7.3-2.318,2.442,0,3.993,1.417,3.993,3.312,0,2.031-1.8,3.218-4.089,3.218a5.465,5.465,0,0,1-4.241-2.337l.326-.287a5.769,5.769,0,0,0,3.778,1.359c1.629,0,2.791-.861,2.791-2.3a2.4,2.4,0,0,0-2.636-2.28c-1.9,0-4.3,1.169-6.625,2.549a38.958,38.958,0,0,1,2.906,5.783,8.9,8.9,0,0,1,.7,2.643c0,.612-.31,1.034-.833,1.034C124.906,17.237,124.653,17.009,124.478,16.413Zm14.263-2.374c0-1.61,1.629-3.123,4.981-3.123a16.061,16.061,0,0,1,3.894.519c.252.075.271.019.154-.173a28.3,28.3,0,0,1-1.762-2.643,21.555,21.555,0,0,1-4.748.535c-2.712,0-3.585-1.762-1.4-3.256l.31.269c-1.085,1.053-.812,1.78,1.2,1.78a15.263,15.263,0,0,0,3.991-.555c-.349-.689-.7-1.494-1.027-2.318a14.211,14.211,0,0,1-3.023.384,3.313,3.313,0,0,1-3.449-1.972l.252-.193a4.247,4.247,0,0,0,3.021,1.034,13.257,13.257,0,0,0,2.732-.4q-.261-.691-.522-1.38a.929.929,0,0,0-.93-.709,9.923,9.923,0,0,0-1.085-.056l-.057-.326a2.865,2.865,0,0,1,1.7-.593c.794,0,1.549.172,1.646.747.1.555.193,1.3.388,2.03a27.612,27.612,0,0,0,2.886-1.227c.542,0,1.142.1,1.163.575a.83.83,0,0,1-.464.633,15.948,15.948,0,0,1-3.217,1.207,15.734,15.734,0,0,0,.988,2.278c.445-.135.871-.288,1.259-.442,1.472-.554,1.763-.88,2.034-.88.561-.058,1.123.1,1.123.575a.79.79,0,0,1-.464.689,14.17,14.17,0,0,1-3.256,1.284c1.511,2.393,2.635,2.909,2.635,3.485,0,.69-.386,1.534-.911,1.534s-.813-.384-1.684-.843a9.154,9.154,0,0,0-3.8-.863c-2.034,0-3.468.863-3.468,2.069,0,1.666,2.3,1.934,4.069,1.934,1.53,0,1.917-.229,2.771-.229.658,0,1.142.268,1.142.727,0,.688-1.415,1-3.8,1C141.434,17.141,138.741,16.222,138.741,14.039Zm60.206,2.625a10.294,10.294,0,0,0,4.282-3.506c.911-1.416,1.142-3.638,1.163-5.86-1.357.1-2.791.23-3.953.345,0,1.552.019,3.064.019,3.716,0,.766-.214,1.073-.679,1.073-.561,0-.93-.9-.93-1.513a28.159,28.159,0,0,0,.329-3.123c-.93.134-1.684.286-2.227.421a6.61,6.61,0,0,1-1.356.4c-.563,0-1.336-.958-1.531-1.359a3,3,0,0,1-.136-1.15l.331-.1c.385.556.736,1.073,1.24,1.073.717,0,2.539-.211,3.68-.326a18.155,18.155,0,0,0-.135-2.834c-.1-.423-.542-.556-1.375-.709V2.873a3.114,3.114,0,0,1,1.2-.306c.659,0,1.937.594,1.937,1.188,0,.4-.27.42-.31,1.052-.038.346-.057,1.073-.057,1.82l3.953-.382a30.731,30.731,0,0,0-.079-3.562c-.057-.442-.542-.556-1.394-.671l-.019-.383a3.905,3.905,0,0,1,1.3-.326c.95,0,2.112.805,2.112,1.285,0,.421-.368.344-.428,1.205-.016.689-.036,1.571-.057,2.318,2.111-.191,2.307-.345,2.714-.345.89,0,2.034.421,2.034,1.092,0,.421-.193.535-.6.535-.525,0-1.339-.21-2.946-.21-.367,0-.774.019-1.221.038-.078,2.452-.175,4.788-1.377,6.415a10.39,10.39,0,0,1-5.25,3.43ZM97.062,15.878a1.323,1.323,0,0,1,.349-.976,28.759,28.759,0,0,0,3-4.712c.447-.88.913-1.915,1.336-2.93-.658.23-1.256.46-1.644.613a4.332,4.332,0,0,1-1.57.536c-.521,0-1.3-.805-1.453-1.476a2.417,2.417,0,0,1,.1-1.168l.35-.058c.251.556.425,1.111.97,1.111a34.053,34.053,0,0,0,3.718-.727,14.322,14.322,0,0,0,.949-3.025.532.532,0,0,0-.309-.537,5.624,5.624,0,0,0-1.474-.326V1.839a3.452,3.452,0,0,1,1.415-.306c.812,0,2.362.691,2.362,1.208,0,.46-.445.689-.678,1.225-.173.442-.445,1.093-.775,1.857a12.151,12.151,0,0,1,1.531-.152c1.475,0,2.365.824,2.365,3.16a11.111,11.111,0,0,1-1.9,6.53,3.13,3.13,0,0,1-2.4,1.168c-.678,0-.833-.268-1.084-.938-.115-.326-.271-.537-1.3-1.475l.193-.287a6.727,6.727,0,0,0,2.324,1.052,1.613,1.613,0,0,0,1.472-.9,11.478,11.478,0,0,0,1.4-5.573c0-1.283-.329-1.876-1.356-1.876a7.953,7.953,0,0,0-1.665.266c-.544,1.285-1.181,2.739-1.765,3.946a55.683,55.683,0,0,1-2.847,5.3c-.329.537-.579.69-.931.69A.779.779,0,0,1,97.062,15.878Zm-38,.844-.175-.575h6.937V7.413H57.977l-.155-.555h8V.307l2.362.23c-.038.289-.212.479-.678.556V6.858h4.96l1.085-1.38s1.28.94,2.015,1.628c-.059.21-.252.307-.523.307H67.51v8.734h3.934l1.085-1.361s1.259.94,2.034,1.629c-.059.211-.252.307-.543.307Zm18.891-.978a1.325,1.325,0,0,1,.349-.977,28.74,28.74,0,0,0,3-4.712c.447-.88.909-1.914,1.337-2.929-.659.229-1.259.459-1.648.612a4.313,4.313,0,0,1-1.568.537c-.524,0-1.3-.805-1.454-1.477a2.4,2.4,0,0,1,.1-1.168l.347-.056c.253.555.428,1.111.969,1.111a33.717,33.717,0,0,0,3.72-.728,14.366,14.366,0,0,0,.95-3.026.532.532,0,0,0-.31-.537,5.681,5.681,0,0,0-1.472-.326V1.707A3.387,3.387,0,0,1,83.689,1.4c.814,0,2.364.689,2.364,1.206,0,.458-.445.69-.678,1.226-.175.44-.445,1.092-.775,1.858a11.76,11.76,0,0,1,1.53-.153c1.474,0,2.364.824,2.364,3.16a11.11,11.11,0,0,1-1.9,6.531,3.131,3.131,0,0,1-2.4,1.169c-.678,0-.833-.268-1.085-.94-.116-.326-.271-.535-1.3-1.474L82,13.695a6.731,6.731,0,0,0,2.326,1.054,1.615,1.615,0,0,0,1.472-.9,11.48,11.48,0,0,0,1.4-5.572c0-1.284-.33-1.879-1.357-1.879a8.118,8.118,0,0,0-1.666.269c-.542,1.284-1.182,2.739-1.764,3.944a56.163,56.163,0,0,1-2.848,5.306c-.33.536-.582.69-.93.69A.779.779,0,0,1,77.954,15.744Zm158.1-2.931c-.021-2.011.212-8.178.077-8.983-.077-.5-.544-.651-1.513-.824l-.019-.3a5.4,5.4,0,0,1,1.511-.345c.89.038,2.092.881,2.092,1.379,0,.4-.368.516-.445,1.11-.116.825-.213,2.759-.291,4.56a25.6,25.6,0,0,0,6.239-3.162c.31-.267.388-.421.251-.765a2.614,2.614,0,0,0-.426-.689l.252-.23a2.562,2.562,0,0,1,1.123.421,2.627,2.627,0,0,1,1.163,1.589c0,.4-.523.517-1.258.882a48.2,48.2,0,0,1-7.363,2.757c-.038,1.111-.059,2.088-.059,2.586,0,1.8.388,1.953,2.655,1.953a25.529,25.529,0,0,0,5.036-.631c1.047,0,1.687.249,1.687.765,0,.479-.292.689-.718.824a23.725,23.725,0,0,1-5.775.5C236.6,16.2,236.094,15.571,236.056,12.813Zm16.2,2.662c4.555-2.336,9.185-6.951,10.928-10.82.1-.269-.019-.327-.231-.288-1.2.173-3.837.824-4.864,1.111-.619.174-.737.554-1.24.554-.638,0-1.453-.918-1.685-1.455a3.9,3.9,0,0,1-.233-1.245l.388-.153c.349.479.756,1.13,1.415,1.13a44.569,44.569,0,0,0,5.87-.919c.428-.116.679-.536,1.009-.536.639,0,2.053,1.129,2.053,1.627,0,.421-.678.612-.93.976a32.145,32.145,0,0,1-3.14,4.252c3.159,1.265,6.22,3.294,6.22,5.058a.793.793,0,0,1-.794.843c-.6,0-.949-.593-1.86-1.7a15.256,15.256,0,0,0-4.03-3.716,22.759,22.759,0,0,1-8.6,5.727Zm-250.375-.1V6.839l1.609.67H8.447l.8-.863,1.742,1.3a1.584,1.584,0,0,1-.831.384v5.841a2,2,0,0,1-1.28.5H8.642v-1.59H3.392V14.9c0,.154-.621.478-1.261.478Zm1.513-2.853h5.25V8.065H3.392Zm108.123-.861a10.873,10.873,0,0,0-2.248-.021l-.1-.421a23.914,23.914,0,0,0,2.324-.573c.406-.153.5-.346.485-.844a4.245,4.245,0,0,0-.755-2.183,3.8,3.8,0,0,0-2.5-1.55l.192-.421a5.315,5.315,0,0,1,3.39,1.532,5.072,5.072,0,0,1,1.318,3.6c0,.88-.309,1.569-.97,1.569C112.077,12.354,112.1,11.8,111.515,11.665Zm-19.106-.134a10.791,10.791,0,0,0-2.248-.018l-.1-.423c.756-.172,1.822-.384,2.326-.575.406-.153.5-.345.483-.843a4.241,4.241,0,0,0-.755-2.183,3.792,3.792,0,0,0-2.5-1.552l.193-.421A5.318,5.318,0,0,1,93.2,7.05a5.069,5.069,0,0,1,1.318,3.6c0,.881-.31,1.569-.97,1.569C92.971,12.22,92.991,11.665,92.409,11.531ZM214.023,9.117a3.114,3.114,0,0,1-.154-1.187l.386-.116c.445.691.776,1.265,1.646,1.265,1.822,0,8.352-.421,9.32-.5,1.3-.1,1.937-.212,2.421-.212.873,0,1.783.4,1.783,1.015,0,.384-.29.612-.987.612s-1.377-.037-2.618-.037c-1.278,0-6.413.288-7.865.46-1.2.133-1.434.46-2.054.46C215.3,10.881,214.314,9.846,214.023,9.117ZM38.677,10.5,38.5,9.922H46.35V8.409H40.189l-.156-.556H46.35V6.378H40.81l-.175-.556H46.35V4.272H38.561l-.174-.555H46.35V2.2H40.925l-.175-.535h5.6V0L48.6.23c-.038.269-.212.46-.7.537v.9h3.314l.8-.844,1.685,1.265a1.4,1.4,0,0,1-.8.383V3.717h.911l.852-1.093s1.008.786,1.589,1.34c-.04.211-.233.307-.485.307H52.9V6.646a1.99,1.99,0,0,1-1.259.479h-.233V6.378H47.9V7.853h4.36l.913-1.091s1.046.765,1.684,1.34c-.038.211-.232.307-.5.307H47.9V9.922h5.5l.93-1.131a21.3,21.3,0,0,1,1.763,1.4c-.059.208-.231.3-.5.3ZM47.9,5.824h3.508V4.272H47.9Zm0-2.107h3.508V2.2H47.9ZM180.654,9.539a15.289,15.289,0,0,0,5.1-2.93,12.158,12.158,0,0,1-1.937-2.757,10.232,10.232,0,0,1-2.053,1.665l-.235-.208A14.028,14.028,0,0,0,184.374.019l2.113.786a.628.628,0,0,1-.737.326,12.8,12.8,0,0,1-.873,1.436h4.341l.949-1.245s1.124.863,1.763,1.494c-.038.211-.233.307-.483.307h-1.416a9.909,9.909,0,0,1-2.556,3.428,14.759,14.759,0,0,0,4.784,1.494l-.057.231a1.67,1.67,0,0,0-.8,1.4,12.827,12.827,0,0,1-4.883-2.356,16.839,16.839,0,0,1-5.735,2.508Zm3.469-6.013a9.431,9.431,0,0,0,2.326,2.395,9.048,9.048,0,0,0,1.741-2.8h-3.739C184.355,3.257,184.239,3.39,184.124,3.525Zm-27.457,3.7a5.662,5.662,0,0,0-2.093-2.452l.175-.173c3.89.352,3.655,2.781,2.466,2.781A1.139,1.139,0,0,1,156.666,7.222Zm-135.644,0A5.648,5.648,0,0,0,18.932,4.77l.174-.173c3.891.352,3.655,2.781,2.466,2.781A1.141,1.141,0,0,1,21.023,7.222ZM178.368,5.976A7.74,7.74,0,0,0,175.908,3.1l.175-.154a6.412,6.412,0,0,1,2.421.824,23.455,23.455,0,0,0,1.415-2.01h-5.406l-.173-.577h5.7l.911-.9,1.59,1.532c-.156.134-.369.153-.775.192a24.373,24.373,0,0,1-2.869,2.048c1.115.943.775,2.058-.009,2.058A1.092,1.092,0,0,1,178.368,5.976Zm69-.5c-.292-.038-.5-.421-.854-.9a8.409,8.409,0,0,0-1.724-1.8l.252-.305a6.587,6.587,0,0,1,2.286,1.3A1.558,1.558,0,0,1,247.97,4.9a.572.572,0,0,1-.565.576ZM111.263,4.463A8.8,8.8,0,0,0,109.5,2.7l.233-.307a6.89,6.89,0,0,1,2.326,1.245,1.5,1.5,0,0,1,.639,1.111.523.523,0,0,1-.523.575C111.865,5.326,111.632,4.923,111.263,4.463ZM.156,5,0,4.444H9.881L10.928,3.18s1.144.861,1.879,1.513C12.75,4.9,12.536,5,12.264,5ZM113.064,3.046a9.327,9.327,0,0,0-1.8-1.609l.233-.306A6.95,6.95,0,0,1,113.8,2.2a1.513,1.513,0,0,1,.716,1.188.48.48,0,0,1-.521.536C113.687,3.928,113.471,3.506,113.064,3.046ZM248.2,3.006A8.693,8.693,0,0,0,246.5,1.361l.233-.307A7.048,7.048,0,0,1,249,2.164a1.438,1.438,0,0,1,.66,1.207.477.477,0,0,1-.5.536C248.823,3.888,248.609,3.487,248.2,3.006Zm-89.949.116a6.642,6.642,0,0,0-2.17-2.643l.176-.173c4.019.454,3.785,2.969,2.55,2.969A1.172,1.172,0,0,1,158.255,3.123Zm-135.642,0A6.666,6.666,0,0,0,20.443.479l.174-.173c4.022.454,3.786,2.969,2.552,2.969A1.171,1.171,0,0,1,22.614,3.123Z" transform="translate(75.492 6.934)" fill="#1a1311" stroke="rgba(0,0,0,0)" stroke-miterlimit="10" stroke-width="1"/>
  </g>
</svg>
