<svg xmlns="http://www.w3.org/2000/svg" width="136.357" height="121.675" viewBox="0 0 136.357 121.675">
  <g id="Group_271" data-name="Group 271" transform="translate(-28.345 -160.512)">
    <g id="マーク" transform="translate(29 161)">
      <path id="Path_1558" data-name="Path 1558" d="M48.554,51.05a39.323,39.323,0,0,1,3.5-4.484,42.618,42.618,0,0,1,9.725-7.718c4.054-2.293,6.839-3.276,9.418-3.317A6.418,6.418,0,0,1,77.667,40.4c.86,2.7.281,6.264.042,9.417a92.138,92.138,0,0,0-.41,9.623c.122,1.842,1.72,4.095,4.053,3.972a26.883,26.883,0,0,0,12-4.259A58.645,58.645,0,0,0,116.2,25.7c.819-3.44.533-7-.41-8.312a6.659,6.659,0,0,0-2.457-1.966,11,11,0,0,1,5.323-.573c2.416.532,5.282,3.4,4.381,8.721a37.749,37.749,0,0,1-5.364,13.471,92.506,92.506,0,0,1-13.512,16.42A63.924,63.924,0,0,1,89.215,63.621,31.59,31.59,0,0,1,76.4,66.446c-3.849,0-8.518-2.006-9.992-4.955a15.752,15.752,0,0,1-1.228-8.517c.2-2.457.491-5.815.614-7.33s-.939-3.3-3.44-2.621c-3.3.9-11.793,6.1-13.8,8.026" transform="translate(-8.361 -2.465)" fill="#c1a371"/>
      <path id="Union_2" data-name="Union 2" d="M11.53,69.058c-4.668-.41-8.639-2.7-10.155-5.486a12.178,12.178,0,0,1-.9-9.009,13.762,13.762,0,0,1,3.112-6.019A4.769,4.769,0,0,1,9.606,47.6c2.047,1.392.86,4.545-.041,5.61s-3.89,4.626-3.89,8.394,3.275,6.674,5.9,6.674,5.651-.7,9.131-5.322,6.348-12.694,8.271-18.8S32.7,32.287,36.1,23.28,43.879,8.21,47.809,4.689A20.26,20.26,0,0,1,56.572.063c.7-.164.654,0,.327.408a62.5,62.5,0,0,0-6.428,12.777c-2.58,7-3.359,9.213-3.809,10.85A150.858,150.858,0,0,1,59.807,13.78c5.2-3.359,13.185-7.944,20.228-10.114s9.418-2.252,12.079-2.417c-.123.041-6.1,3.277-10.6,6.347S66.973,18.447,61.322,23.32,45.066,38.266,39.62,44.2c0,0-2.989,8.395-5.978,12.817A35.3,35.3,0,0,1,25,66.233c-2.218,1.527-7.438,2.893-11.849,2.893C12.6,69.126,12.053,69.1,11.53,69.058Zm108.018-23.38c6.224-11.711,7.942-20.29,8.6-26.207A73.957,73.957,0,0,0,127.574,2.6a25.727,25.727,0,0,1,7.616,17.034c.328,10.482-6.634,22.684-12.285,29.4A84.837,84.837,0,0,1,98.992,67.871S113.324,57.389,119.548,45.678ZM75.08,33.23c.327-7.862,6.878-13.923,14.741-19.327a48.569,48.569,0,0,1,16.3-7.043C91.7,14.886,85.726,25.777,86.708,29.79s5.241,8.271,14.086,8.6,19-4.668,19-4.668c-5.9,6.019-19.982,9.254-27.106,9.827-.559.045-1.141.068-1.738.068C83.934,43.616,74.777,40.474,75.08,33.23Z" transform="translate(0 0)" fill="#00423b" stroke="rgba(0,0,0,0)" stroke-miterlimit="10" stroke-width="1"/>
    </g>
    <path id="司法書士かがやき法務サービス" d="M153.033,33.937a3.09,3.09,0,0,0-1.226-.379v-.239c.542.055,1.492.126,1.774.126a.648.648,0,0,0,.47-.126c.3-.262.55-1.465.673-3.246H152.5a6.065,6.065,0,0,1-4.318,4.566l-.155-.208a5.921,5.921,0,0,0,3.386-4.358h-2.524l-.122-.4H151.5a15.984,15.984,0,0,0,.154-1.6l1.559.154c-.023.161-.13.3-.464.339-.045.369-.085.739-.161,1.112h2.028l.564-.586,1.135.933a1.013,1.013,0,0,1-.549.191c-.139,2.192-.469,3.581-1.023,4.028a2.444,2.444,0,0,1-1.461.414A.859.859,0,0,0,153.033,33.937Zm-7.279-.078a2.1,2.1,0,0,0-1.2-.4V33.25s1.4.1,1.688.1c.262,0,.332-.068.332-.262V29.031a11.626,11.626,0,0,1-2.5,3.157l-.191-.194a14.32,14.32,0,0,0,2.443-5.2h-2.158l-.116-.4h4.62l.6-.618,1.111,1.059a.872.872,0,0,1-.548.14,9.317,9.317,0,0,1-1.8,1.564l-.163-.1a15.928,15.928,0,0,0,.811-1.644H147.62v6.332c0,.811-.194,1.4-1.581,1.527A1.145,1.145,0,0,0,145.754,33.859Zm-14.309.108c.208-1.4.13-2.523-.18-2.708a1.373,1.373,0,0,0-.7-.207v-.295h.631c.176,0,.216,0,.355-.291.272-.5.272-.5,2.839-6.2l.232.068c-.6,1.744-1.767,5.022-1.961,5.724a5.261,5.261,0,0,0-.229,1.25,11.46,11.46,0,0,1,.409,2.347c-.026.6-.341,1-.882,1C131.708,34.653,131.5,34.413,131.446,33.967Zm10.4.339a7.724,7.724,0,0,0-.7-1.519c-1.549.369-3.623.81-6.462,1.342a.533.533,0,0,1-.355.285l-.654-1.5c.445-.014,1.109-.036,1.9-.076a25.756,25.756,0,0,0,1.59-4.2h-3.21l-.107-.4h3.74V25.492h-2.946l-.09-.4h3.037V22.128l1.636.161c-.032.194-.155.33-.509.385V25.09h1.906l.716-.9s.779.631,1.273,1.076c-.037.157-.177.227-.372.227h-3.524v2.752h2.343l.721-.934s.817.649,1.3,1.111a.332.332,0,0,1-.356.224h-4.065a21.527,21.527,0,0,1-2.614,4.165c1.38-.078,3.11-.208,4.922-.331a26.189,26.189,0,0,0-1.7-2.352l.163-.085c3.913,2.076,3.862,4.467,2.927,4.467A.876.876,0,0,1,141.842,34.306Zm19.83-.385a7.294,7.294,0,0,0,3.031-2.508,8.486,8.486,0,0,0,.817-4.194c-.957.069-1.974.161-2.791.246,0,1.112.006,2.191.006,2.662,0,.547-.145.763-.477.763-.4,0-.654-.64-.654-1.082a22.231,22.231,0,0,0,.229-2.236c-.654.095-1.195.208-1.574.3a4.394,4.394,0,0,1-.963.285c-.4,0-.948-.687-1.088-.971a2.307,2.307,0,0,1-.093-.819l.233-.077c.277.4.524.771.88.771.509,0,1.8-.146,2.605-.23a12.852,12.852,0,0,0-.1-2.028c-.062-.3-.379-.4-.973-.509v-.246a2.209,2.209,0,0,1,.856-.217c.464,0,1.365.424,1.365.848,0,.287-.193.3-.216.756-.032.247-.037.762-.037,1.3l2.791-.276a21.1,21.1,0,0,0-.053-2.555c-.038-.316-.385-.394-.988-.479l-.014-.279a2.8,2.8,0,0,1,.924-.23c.672,0,1.5.577,1.5.918,0,.3-.262.25-.307.864-.017.494-.023,1.125-.04,1.666,1.494-.139,1.626-.246,1.919-.246.635,0,1.437.3,1.437.778,0,.3-.13.386-.425.386-.364,0-.941-.152-2.081-.152-.265,0-.55.014-.865.023-.054,1.757-.124,3.431-.972,4.6a7.4,7.4,0,0,1-3.718,2.46ZM108.189,33.6c-.108-.33-.239-1.086-.492-1.966a18.207,18.207,0,0,0-1.636-3.771c-.4.247-.794.492-1.165.74-.631.409-.826.716-1.232.716a1.933,1.933,0,0,1-1.265-.794,1.393,1.393,0,0,1-.194-.893l.262-.124c.224.315.5.631.811.631a3.237,3.237,0,0,0,1.212-.437c.369-.194.739-.388,1.108-.564-.277-.4-.491-.687-.684-.92-.262-.33-.564-.577-.455-1.093.122-.8.793-.718,1.234-.741,1.056-.085,2.1-.152,2.485-.192.191-.033.243-.123.152-.33A2.253,2.253,0,0,0,106.9,22.9l.091-.27a3.254,3.254,0,0,1,2.307.879,1.494,1.494,0,0,1,.438.995c0,.348-.163.5-.438.5-.246,0-.525-.131-.865-.171a16.878,16.878,0,0,0-2.482-.014c-.386.045-.564.115-.564.383a5.44,5.44,0,0,0,.972,1.552,12.834,12.834,0,0,1,5.175-1.659c1.727,0,2.822,1.012,2.822,2.376,0,1.448-1.273,2.3-2.893,2.3a3.877,3.877,0,0,1-3.007-1.676l.239-.2a4.041,4.041,0,0,0,2.67.971c1.158,0,1.981-.619,1.981-1.642a1.707,1.707,0,0,0-1.866-1.636,10.486,10.486,0,0,0-4.7,1.821,27.978,27.978,0,0,1,2.06,4.142,6.592,6.592,0,0,1,.492,1.9c0,.437-.217.739-.586.739C108.491,34.189,108.313,34.026,108.189,33.6Zm10.1-1.7c0-1.149,1.147-2.236,3.524-2.236a11.431,11.431,0,0,1,2.753.369c.176.055.194.016.107-.124a21.582,21.582,0,0,1-1.248-1.888,15.264,15.264,0,0,1-3.356.378c-1.92,0-2.538-1.257-.986-2.33l.215.194c-.762.756-.577,1.28.857,1.28a10.8,10.8,0,0,0,2.824-.4c-.247-.5-.5-1.073-.734-1.659a10.087,10.087,0,0,1-2.137.269,2.333,2.333,0,0,1-2.438-1.409l.172-.14a3.012,3.012,0,0,0,2.146.74,9.408,9.408,0,0,0,1.933-.283c-.122-.333-.248-.657-.37-.987a.661.661,0,0,0-.662-.509c-.234-.023-.5-.04-.766-.04l-.045-.23a2,2,0,0,1,1.212-.424c.562,0,1.1.122,1.163.531s.14.934.279,1.45a19.582,19.582,0,0,0,2.042-.873c.386,0,.811.062.82.409a.6.6,0,0,1-.324.456,11.35,11.35,0,0,1-2.285.866,12.368,12.368,0,0,0,.7,1.626c.315-.094.617-.2.9-.311,1.041-.4,1.248-.632,1.433-.632.4-.045.8.063.8.411a.568.568,0,0,1-.333.492,9.812,9.812,0,0,1-2.3.918c1.071,1.712,1.866,2.081,1.866,2.5,0,.494-.279,1.1-.648,1.1s-.571-.278-1.195-.6a6.347,6.347,0,0,0-2.684-.617c-1.442,0-2.453.617-2.453,1.482,0,1.2,1.627,1.38,2.876,1.38,1.09,0,1.365-.161,1.968-.161.46,0,.807.192.807.522,0,.5-1,.713-2.69.713C120.2,34.121,118.293,33.463,118.293,31.9ZM88.777,33.217a.955.955,0,0,1,.245-.7,20.558,20.558,0,0,0,2.123-3.37c.315-.631.648-1.374.946-2.1-.46.163-.893.324-1.163.442a3.1,3.1,0,0,1-1.108.378c-.374,0-.92-.573-1.028-1.049a1.716,1.716,0,0,1,.062-.839l.253-.04c.171.392.3.793.68.793a22.8,22.8,0,0,0,2.637-.524,10.651,10.651,0,0,0,.672-2.167.4.4,0,0,0-.217-.386,4.034,4.034,0,0,0-1.05-.23v-.262a2.479,2.479,0,0,1,1.005-.217c.576,0,1.671.5,1.671.865,0,.33-.314.492-.477.879-.123.316-.316.78-.547,1.326a8.5,8.5,0,0,1,1.079-.108c1.04,0,1.671.594,1.671,2.268a8.02,8.02,0,0,1-1.341,4.673,2.2,2.2,0,0,1-1.705.833c-.478,0-.586-.184-.762-.671-.086-.23-.193-.384-.925-1.056l.145-.207a4.65,4.65,0,0,0,1.644.761,1.147,1.147,0,0,0,1.042-.648,8.3,8.3,0,0,0,.986-3.993c0-.919-.232-1.344-.963-1.344a5.682,5.682,0,0,0-1.172.194c-.386.918-.842,1.961-1.248,2.822a41.7,41.7,0,0,1-2.023,3.8c-.23.386-.41.492-.655.492A.552.552,0,0,1,88.777,33.217Zm-13.527-.1a.947.947,0,0,1,.239-.693,20.134,20.134,0,0,0,2.127-3.377c.316-.635.648-1.374.95-2.1-.471.161-.9.333-1.164.44a3.121,3.121,0,0,1-1.111.385c-.369,0-.918-.577-1.032-1.056a1.868,1.868,0,0,1,.069-.842l.247-.036c.175.4.307.794.687.794a23.092,23.092,0,0,0,2.635-.524,10.448,10.448,0,0,0,.672-2.168.376.376,0,0,0-.221-.377,4.156,4.156,0,0,0-1.045-.239v-.256a2.384,2.384,0,0,1,1.005-.221c.577,0,1.673.491,1.673.863,0,.332-.317.494-.479.881-.123.316-.315.786-.545,1.334a8.468,8.468,0,0,1,1.077-.116c1.042,0,1.676.6,1.676,2.268a8,8,0,0,1-1.343,4.673,2.225,2.225,0,0,1-1.7.842c-.477,0-.586-.194-.766-.673-.085-.237-.192-.386-.924-1.057l.14-.208a4.791,4.791,0,0,0,1.649.757,1.145,1.145,0,0,0,1.041-.649,8.264,8.264,0,0,0,.988-3.987c0-.916-.239-1.348-.966-1.348a5.525,5.525,0,0,0-1.18.2c-.385.919-.833,1.961-1.24,2.826a41.811,41.811,0,0,1-2.023,3.792c-.23.385-.405.492-.655.492S75.249,33.5,75.249,33.116Zm112.694-1.948c-.008-1.442.155-5.853.061-6.434-.061-.353-.385-.47-1.072-.587l-.017-.22a3.786,3.786,0,0,1,1.073-.248c.631.032,1.482.631,1.482.987,0,.286-.263.37-.318.794-.081.594-.145,1.974-.207,3.264a18.116,18.116,0,0,0,4.42-2.259c.217-.194.279-.3.177-.55a2.005,2.005,0,0,0-.3-.492l.177-.169a1.868,1.868,0,0,1,.794.3,1.891,1.891,0,0,1,.824,1.141c0,.291-.37.369-.892.631a33.718,33.718,0,0,1-5.214,1.973c-.023.8-.04,1.5-.04,1.852,0,1.289.277,1.406,1.881,1.406a17.66,17.66,0,0,0,3.564-.456c.74,0,1.2.177,1.2.547,0,.347-.208.5-.509.594a17.052,17.052,0,0,1-4.089.356C188.329,33.6,187.976,33.143,187.943,31.168Zm11.475,1.9a18.71,18.71,0,0,0,7.736-7.743c.072-.194-.012-.239-.161-.209-.856.122-2.723.586-3.448.794-.431.125-.523.4-.87.4-.456,0-1.034-.662-1.2-1.05a2.7,2.7,0,0,1-.169-.884l.277-.116c.247.347.542.817,1,.817a31.609,31.609,0,0,0,4.151-.662c.307-.078.487-.385.716-.385.456,0,1.452.809,1.452,1.163,0,.3-.473.442-.658.7a22.788,22.788,0,0,1-2.22,3.046c2.237.9,4.406,2.359,4.406,3.616a.573.573,0,0,1-.564.611c-.426,0-.671-.433-1.32-1.22a10.8,10.8,0,0,0-2.852-2.67,16.047,16.047,0,0,1-6.087,4.106ZM99,30.2a7.346,7.346,0,0,0-1.591-.014l-.068-.3A15.88,15.88,0,0,0,99,29.47c.285-.11.356-.248.339-.6A3.07,3.07,0,0,0,98.8,27.3,2.683,2.683,0,0,0,97.03,26.19l.14-.3a3.736,3.736,0,0,1,2.4,1.1,3.638,3.638,0,0,1,.932,2.577c0,.631-.215,1.127-.684,1.127C99.406,30.7,99.419,30.294,99,30.2Zm-13.53-.1a7.529,7.529,0,0,0-1.588-.015l-.069-.3a16.182,16.182,0,0,0,1.643-.41c.292-.107.363-.245.347-.6a3.093,3.093,0,0,0-.541-1.566A2.663,2.663,0,0,0,83.5,26.1l.14-.3a3.759,3.759,0,0,1,2.4,1.1,3.617,3.617,0,0,1,.933,2.577c0,.631-.217,1.125-.686,1.125C85.875,30.6,85.886,30.194,85.474,30.1Zm86.874-1.587a2.209,2.209,0,0,1-.11-.848l.271-.085c.315.5.555.91,1.171.91,1.289,0,5.908-.3,6.594-.356.918-.069,1.374-.155,1.711-.155.619,0,1.267.294,1.267.725,0,.278-.208.439-.7.439s-.969-.024-1.849-.024c-.9,0-4.535.209-5.569.325-.848.1-1.011.332-1.451.332S172.555,29.037,172.348,28.515Zm-23.633.307a10.818,10.818,0,0,0,3.608-2.1,8.9,8.9,0,0,1-1.372-1.973,7.414,7.414,0,0,1-1.458,1.195l-.162-.152A10.09,10.09,0,0,0,151.352,22l1.491.561a.428.428,0,0,1-.518.234,10.068,10.068,0,0,1-.617,1.033h3.07l.671-.9s.794.617,1.25,1.071c-.024.149-.163.217-.34.217h-1a7.2,7.2,0,0,1-1.816,2.46,10.222,10.222,0,0,0,3.388,1.065l-.04.171a1.191,1.191,0,0,0-.562.995,9.08,9.08,0,0,1-3.457-1.679,12.009,12.009,0,0,1-4.057,1.8Zm2.451-4.3a6.886,6.886,0,0,0,1.651,1.712,6.424,6.424,0,0,0,1.233-2.006h-2.645A2.936,2.936,0,0,1,151.166,24.518ZM131.73,27.157a4.089,4.089,0,0,0-1.479-1.753l.122-.123c2.751.251,2.588,1.988,1.748,1.988A.809.809,0,0,1,131.73,27.157ZM147.1,26.27a5.561,5.561,0,0,0-1.744-2.059l.123-.11a4.5,4.5,0,0,1,1.721.6c.324-.425.725-.988,1-1.442h-3.825l-.122-.411h4.024l.649-.648,1.125,1.1c-.116.1-.26.116-.555.139a16.457,16.457,0,0,1-2.028,1.465c.792.676.552,1.476-.006,1.476A.755.755,0,0,1,147.1,26.27Zm48.861-.356c-.208-.03-.356-.3-.6-.649a6.241,6.241,0,0,0-1.22-1.285l.172-.215a4.41,4.41,0,0,1,1.617.933,1.115,1.115,0,0,1,.456.8.409.409,0,0,1-.4.416ZM98.827,25.04a6.212,6.212,0,0,0-1.251-1.263l.172-.216a4.854,4.854,0,0,1,1.642.887,1.091,1.091,0,0,1,.454.8.372.372,0,0,1-.369.408C99.251,25.659,99.089,25.374,98.827,25.04Zm97.725-.893a6.191,6.191,0,0,0-1.212-1.18l.162-.22a4.919,4.919,0,0,1,1.6.792,1.03,1.03,0,0,1,.469.865.34.34,0,0,1-.352.385C196.983,24.773,196.836,24.489,196.551,24.147ZM100.1,24.031a6.071,6.071,0,0,0-1.273-1.155L99,22.659a4.858,4.858,0,0,1,1.626.763,1.1,1.1,0,0,1,.509.856.342.342,0,0,1-.369.378C100.547,24.657,100.392,24.355,100.1,24.031Zm32.757.193a4.719,4.719,0,0,0-1.535-1.889l.124-.122c2.841.324,2.677,2.122,1.806,2.122A.829.829,0,0,1,132.856,24.224ZM89.835,11.978c.2-1.4.14-2.53-.175-2.708a1.3,1.3,0,0,0-.7-.208V8.769h.627c.184,0,.22,0,.359-.294.272-.492.272-.492,2.839-6.2l.233.071c-.6,1.74-1.766,5.02-1.959,5.72a5.2,5.2,0,0,0-.232,1.251,11.313,11.313,0,0,1,.409,2.343c-.032.6-.339.995-.879.995C90.1,12.657,89.89,12.425,89.835,11.978Zm14.772.672V7.983l1.186.479h5.773l.559-.618,1.252.948a1.1,1.1,0,0,1-.58.279V12.3a1.656,1.656,0,0,1-.917.3H111.7v-.713h-6.008v.4c0,.115-.464.363-.918.363Zm1.086-1.158H111.7V10.341h-6.008Zm0-1.552H111.7V8.877h-6.008ZM84.144,11.856a3.873,3.873,0,0,0-1.574-.473v-.2s1.975.13,2.346.13c.314,0,.4-.107.4-.338V1.28H75.728l-.13-.4h9.577l.564-.687,1.29,1a1.144,1.144,0,0,1-.609.279V11.1c0,.848-.185,1.389-1.852,1.552A1.088,1.088,0,0,0,84.144,11.856Zm16.088.463a7.776,7.776,0,0,0-.7-1.521c-1.549.365-3.627.811-6.467,1.343a.531.531,0,0,1-.352.285l-.656-1.5c.445-.016,1.112-.038,1.906-.078a26.576,26.576,0,0,0,1.586-4.194H92.341l-.107-.4h3.744V3.5H93.031l-.095-.4h3.041V.139L97.609.3c-.023.192-.155.332-.508.386V3.1h1.905l.716-.9s.782.631,1.275,1.081c-.04.155-.18.222-.369.222H97.1V6.254h2.347l.716-.933s.826.648,1.3,1.112a.34.34,0,0,1-.363.222H97.046a21.64,21.64,0,0,1-2.62,4.164c1.389-.082,3.116-.209,4.927-.33a24.663,24.663,0,0,0-1.7-2.352l.172-.087c3.91,2.078,3.859,4.467,2.926,4.467A.9.9,0,0,1,100.232,12.319Zm16.823-.341-.122-.417h4.913V5.307h-5.554l-.107-.394h5.661V.225l1.673.161c-.023.208-.154.338-.478.4V4.913h3.51l.771-.988s.9.672,1.417,1.168c-.035.152-.175.215-.369.215H123.04v6.254h2.785l.765-.972s.894.671,1.442,1.167c-.04.154-.178.222-.386.222Zm-40.49-.964V4.9l1.141.479h3.51l.561-.619,1.233.933a1.079,1.079,0,0,1-.592.279v4.182a1.368,1.368,0,0,1-.9.361h-.168V9.372h-3.71v1.3c0,.107-.442.338-.9.338Zm1.071-2.042h3.71v-3.2h-3.71ZM102.624,7.52l-.13-.416h5.562V6.025h-4.368l-.107-.4h4.476V4.564h-3.928L104,4.172h4.052V3.063h-5.517l-.122-.4h5.639V1.581h-3.844l-.123-.387h3.967V0l1.587.169c-.023.185-.146.324-.492.379v.645h2.343l.564-.6,1.194.9a.948.948,0,0,1-.562.279v.888h.649l.6-.778s.707.561,1.118.955c-.023.152-.163.224-.34.224h-2.031v1.7a1.369,1.369,0,0,1-.893.347h-.161V4.564H109.15V5.623h3.083l.648-.78s.741.551,1.189.957c-.023.156-.163.226-.356.226H109.15V7.1h3.893l.664-.81a15.7,15.7,0,0,1,1.242,1c-.04.156-.163.225-.355.225Zm6.526-3.349h2.483V3.063H109.15Zm0-1.51h2.483V1.581H109.15Zm-19.031,2.5a4.05,4.05,0,0,0-1.479-1.75l.122-.123c2.751.251,2.588,1.989,1.75,1.989A.818.818,0,0,1,90.119,5.167ZM75.342,3.578l-.107-.392h6.988l.741-.9s.811.619,1.333,1.079c-.036.149-.192.217-.383.217ZM91.248,2.237A4.784,4.784,0,0,0,89.713.347l.122-.122c2.841.324,2.679,2.122,1.806,2.122A.866.866,0,0,1,91.248,2.237Z" transform="translate(-46.234 246.953)" fill="#1a1311" stroke="rgba(0,0,0,0)" stroke-miterlimit="10" stroke-width="1"/>
  </g>
</svg>
