<svg xmlns="http://www.w3.org/2000/svg" width="41.038" height="32.031" viewBox="0 0 41.038 32.031">
  <path id="Path_1780" data-name="Path 1780" d="M40.938,4.342a5.385,5.385,0,0,0-1.116-2.362,4.544,4.544,0,0,0-.363-.4A5.407,5.407,0,0,0,35.648,0H5.39a5.353,5.353,0,0,0-3.81,1.58,4.729,4.729,0,0,0-.367.406A5.321,5.321,0,0,0,.1,4.345,5.207,5.207,0,0,0,0,5.39V26.642a5.419,5.419,0,0,0,1.579,3.81c.122.121.242.233.371.341a5.4,5.4,0,0,0,3.44,1.238H35.648a5.362,5.362,0,0,0,3.444-1.247,4.667,4.667,0,0,0,.367-.332,5.359,5.359,0,0,0,1.1-1.591l.035-.084a5.314,5.314,0,0,0,.441-2.134V5.39a5.523,5.523,0,0,0-.1-1.048M2.791,3.44a2.535,2.535,0,0,1,.3-.351,3.235,3.235,0,0,1,2.3-.955H35.648a3.211,3.211,0,0,1,2.3.956,3.248,3.248,0,0,1,.293.342l.231.311L22.324,17.819a2.746,2.746,0,0,1-3.609,0L2.58,3.747ZM2.145,26.829a1.287,1.287,0,0,1-.011-.188V5.83L14.667,16.764,2.26,27.581Zm35.119,2.639a3.234,3.234,0,0,1-1.615.428H5.39a3.232,3.232,0,0,1-1.614-.428l-.507-.294L16.088,18l1.4,1.222a4.61,4.61,0,0,0,6.059,0L24.955,18,37.77,29.175ZM38.9,26.642a1.345,1.345,0,0,1-.009.185l-.111.759L26.371,16.77,38.9,5.835Z" fill="#fff"/>
</svg>
