<svg xmlns="http://www.w3.org/2000/svg" width="226.852" height="23.609" viewBox="0 0 226.852 23.609">
  <g id="Group_303" data-name="Group 303" transform="translate(-1454.771 -39.395)">
    <path id="Path_2511" data-name="Path 2511" d="M9.07.105A5.935,5.935,0,0,1,5.027-1.406,9.835,9.835,0,0,1,2.355-5.484a16.42,16.42,0,0,1-.949-5.73,16.381,16.381,0,0,1,.949-5.748,9.846,9.846,0,0,1,2.672-4.061A5.935,5.935,0,0,1,9.07-22.535a6,6,0,0,1,4.1,1.494A9.649,9.649,0,0,1,15.8-17a16.771,16.771,0,0,1,.932,5.783,16.42,16.42,0,0,1-.949,5.73,9.922,9.922,0,0,1-2.654,4.078A5.916,5.916,0,0,1,9.07.105ZM8.895-1.23a3.169,3.169,0,0,0,2.566-1.336,9.456,9.456,0,0,0,1.617-3.656,22.126,22.126,0,0,0,.563-5.2,20.265,20.265,0,0,0-.562-5.01,9.608,9.608,0,0,0-1.547-3.48A2.845,2.845,0,0,0,9.246-21.2a3.153,3.153,0,0,0-2.479,1.3A9.278,9.278,0,0,0,5.1-16.348a19.893,19.893,0,0,0-.6,5.1,21.131,21.131,0,0,0,.563,5.08,9.992,9.992,0,0,0,1.564,3.6A2.839,2.839,0,0,0,8.895-1.23ZM20.953.105a.884.884,0,0,1-.141-.6q0-.422.141-.422a5.1,5.1,0,0,0,.879-.105A6.93,6.93,0,0,0,22.887-1.3q.492-.176.527-.316a8.344,8.344,0,0,0,.211-2V-16.277a15.916,15.916,0,0,0-.07-1.705q-.07-.615-.422-.615a2.52,2.52,0,0,0-.932.387q-.686.387-1.318.773a1.225,1.225,0,0,1-.422-.4.929.929,0,0,1-.211-.475.286.286,0,0,1,.07-.211Q26.262-22.57,26.4-22.57h.07q.281,0,.422.668a11.534,11.534,0,0,0-.352,3.3V-4.746q0,1.02.07,1.793a8.9,8.9,0,0,0,.211,1.336q.07.141.545.316a6.359,6.359,0,0,0,1.037.281,5.065,5.065,0,0,0,.773.105q.141,0,.141.633a1,1,0,0,1-.035.387q-1.758-.07-2.812-.123T25.031-.07q-.281,0-1.3.053T20.953.105ZM33.539,0q-.141,0-.264-.4a2.363,2.363,0,0,1-.123-.65A57.79,57.79,0,0,0,37.828-6.4,32.421,32.421,0,0,0,41.2-11.689a10.305,10.305,0,0,0,1.266-4.447,4.192,4.192,0,0,0-.949-2.936,3.224,3.224,0,0,0-2.5-1.037,5.291,5.291,0,0,0-4.676,2.918.646.646,0,0,1-.439-.229q-.229-.229-.229-.334a4.634,4.634,0,0,1,.615-1.213,9.156,9.156,0,0,1,1.371-1.617,7.968,7.968,0,0,1,2.057-1.406,6.122,6.122,0,0,1,2.707-.58,4.515,4.515,0,0,1,2.707.809,5.353,5.353,0,0,1,1.74,2.127,6.53,6.53,0,0,1,.615,2.795,8.892,8.892,0,0,1-.668,3.322,17.138,17.138,0,0,1-1.74,3.252,32.349,32.349,0,0,1-2.3,3.006q-1.23,1.424-2.391,2.566T36.422-2.777q-.105.176.07.246h6.785A1.7,1.7,0,0,0,44.7-3.094a6.919,6.919,0,0,0,.9-2.145.546.546,0,0,1,.492-.387.957.957,0,0,1,.633.141q-.844,4.148-.949,4.922Q45.738,0,45.07,0ZM57.516.105a5.935,5.935,0,0,1-4.043-1.512A9.835,9.835,0,0,1,50.8-5.484a16.42,16.42,0,0,1-.949-5.73,16.381,16.381,0,0,1,.949-5.748,9.846,9.846,0,0,1,2.672-4.061,5.935,5.935,0,0,1,4.043-1.512,6,6,0,0,1,4.1,1.494A9.649,9.649,0,0,1,64.248-17a16.771,16.771,0,0,1,.932,5.783,16.42,16.42,0,0,1-.949,5.73,9.922,9.922,0,0,1-2.654,4.078A5.916,5.916,0,0,1,57.516.105ZM57.34-1.23a3.169,3.169,0,0,0,2.566-1.336,9.456,9.456,0,0,0,1.617-3.656,22.126,22.126,0,0,0,.563-5.2,20.265,20.265,0,0,0-.562-5.01,9.608,9.608,0,0,0-1.547-3.48A2.845,2.845,0,0,0,57.691-21.2a3.153,3.153,0,0,0-2.479,1.3,9.278,9.278,0,0,0-1.67,3.551,19.893,19.893,0,0,0-.6,5.1,21.131,21.131,0,0,0,.563,5.08,9.992,9.992,0,0,0,1.564,3.6A2.839,2.839,0,0,0,57.34-1.23ZM68.871-7q-.246,0-.246-.387,0-1.793.422-1.793L77.59-9.6q.211,0,.211.316,0,.281-.07.949a1.525,1.525,0,0,1-.281.879l-.105.07ZM88.172.316a6.926,6.926,0,0,1-4.729-1.582,5.244,5.244,0,0,1-1.811-4.148,4.75,4.75,0,0,1,1.23-3.111A12.13,12.13,0,0,1,86.2-11.18q.176-.105,0-.211a8.648,8.648,0,0,1-2.479-2.268,5.2,5.2,0,0,1-1.107-3.217,5.23,5.23,0,0,1,.809-2.812A6.368,6.368,0,0,1,85.57-21.8a5.469,5.469,0,0,1,2.883-.809,6.294,6.294,0,0,1,2.918.668,5.312,5.312,0,0,1,2.074,1.863,5.062,5.062,0,0,1,.773,2.813q0,2.707-3.937,5.168-.141.105,0,.211a13.579,13.579,0,0,1,2.215,1.6,8.761,8.761,0,0,1,1.723,2.039,4.516,4.516,0,0,1,.668,2.373,5.543,5.543,0,0,1-.932,3.129A6.744,6.744,0,0,1,91.494-.51,6.879,6.879,0,0,1,88.172.316Zm.914-13.043a.54.54,0,0,0,.211-.07,4.9,4.9,0,0,0,2.391-4.289,5,5,0,0,0-.439-2.092,4.207,4.207,0,0,0-1.213-1.582,2.8,2.8,0,0,0-1.793-.615A2.622,2.622,0,0,0,86.08-20.25a4.728,4.728,0,0,0-.861,2.953q0,2.391,3.656,4.5A.378.378,0,0,0,89.086-12.727ZM88.242-.949A3.683,3.683,0,0,0,91.02-2a3.924,3.924,0,0,0,1.02-2.848,3.865,3.865,0,0,0-.686-2.232,8.3,8.3,0,0,0-1.529-1.705,14.662,14.662,0,0,0-1.336-1.02,5.864,5.864,0,0,0-.9-.545,1.13,1.13,0,0,0-.3-.088.468.468,0,0,0-.211.088,3.419,3.419,0,0,0-.316.229,5.833,5.833,0,0,0-1.811,1.951A5.686,5.686,0,0,0,84.41-5.52a4.7,4.7,0,0,0,1.16,3.3A3.534,3.534,0,0,0,88.242-.949ZM105.188.316a6.926,6.926,0,0,1-4.729-1.582,5.244,5.244,0,0,1-1.811-4.148,4.75,4.75,0,0,1,1.23-3.111,12.13,12.13,0,0,1,3.34-2.654q.176-.105,0-.211a8.648,8.648,0,0,1-2.479-2.268,5.2,5.2,0,0,1-1.107-3.217,5.23,5.23,0,0,1,.809-2.812,6.368,6.368,0,0,1,2.145-2.109,5.469,5.469,0,0,1,2.883-.809,6.294,6.294,0,0,1,2.918.668,5.312,5.312,0,0,1,2.074,1.863,5.062,5.062,0,0,1,.773,2.813q0,2.707-3.937,5.168-.141.105,0,.211a13.579,13.579,0,0,1,2.215,1.6,8.761,8.761,0,0,1,1.723,2.039,4.516,4.516,0,0,1,.668,2.373,5.543,5.543,0,0,1-.932,3.129A6.744,6.744,0,0,1,108.51-.51,6.879,6.879,0,0,1,105.188.316Zm.914-13.043a.54.54,0,0,0,.211-.07,4.9,4.9,0,0,0,2.391-4.289,5,5,0,0,0-.439-2.092,4.207,4.207,0,0,0-1.213-1.582,2.8,2.8,0,0,0-1.793-.615A2.622,2.622,0,0,0,103.1-20.25a4.728,4.728,0,0,0-.861,2.953q0,2.391,3.656,4.5A.378.378,0,0,0,106.1-12.727ZM105.258-.949A3.683,3.683,0,0,0,108.035-2a3.924,3.924,0,0,0,1.02-2.848,3.865,3.865,0,0,0-.686-2.232,8.3,8.3,0,0,0-1.529-1.705,14.662,14.662,0,0,0-1.336-1.02,5.864,5.864,0,0,0-.9-.545,1.13,1.13,0,0,0-.3-.088.468.468,0,0,0-.211.088,3.419,3.419,0,0,0-.316.229,5.833,5.833,0,0,0-1.811,1.951,5.686,5.686,0,0,0-.545,2.654,4.7,4.7,0,0,0,1.16,3.3A3.534,3.534,0,0,0,105.258-.949ZM116.613.105a.884.884,0,0,1-.141-.6q0-.422.141-.422a5.1,5.1,0,0,0,.879-.105,6.93,6.93,0,0,0,1.055-.281q.492-.176.527-.316a8.344,8.344,0,0,0,.211-2V-16.277a15.916,15.916,0,0,0-.07-1.705q-.07-.615-.422-.615a2.52,2.52,0,0,0-.932.387q-.686.387-1.318.773a1.225,1.225,0,0,1-.422-.4.929.929,0,0,1-.211-.475.286.286,0,0,1,.07-.211q5.941-4.043,6.082-4.043h.07q.281,0,.422.668a11.534,11.534,0,0,0-.352,3.3V-4.746q0,1.02.07,1.793a8.9,8.9,0,0,0,.211,1.336q.07.141.545.316a6.359,6.359,0,0,0,1.037.281,5.065,5.065,0,0,0,.773.105q.141,0,.141.633a1,1,0,0,1-.035.387q-1.758-.07-2.812-.123T120.691-.07q-.281,0-1.3.053T116.613.105ZM129.375-7q-.246,0-.246-.387,0-1.793.422-1.793l8.543-.422q.211,0,.211.316,0,.281-.07.949a1.525,1.525,0,0,1-.281.879l-.105.07Zm19.3,7.313a6.926,6.926,0,0,1-4.729-1.582,5.244,5.244,0,0,1-1.811-4.148,4.75,4.75,0,0,1,1.23-3.111,12.13,12.13,0,0,1,3.34-2.654q.176-.105,0-.211a8.648,8.648,0,0,1-2.479-2.268,5.2,5.2,0,0,1-1.107-3.217,5.23,5.23,0,0,1,.809-2.812,6.368,6.368,0,0,1,2.145-2.109,5.469,5.469,0,0,1,2.883-.809,6.294,6.294,0,0,1,2.918.668,5.312,5.312,0,0,1,2.074,1.863,5.062,5.062,0,0,1,.773,2.813q0,2.707-3.937,5.168-.141.105,0,.211a13.579,13.579,0,0,1,2.215,1.6,8.761,8.761,0,0,1,1.723,2.039,4.516,4.516,0,0,1,.668,2.373,5.543,5.543,0,0,1-.932,3.129A6.744,6.744,0,0,1,152-.51,6.879,6.879,0,0,1,148.676.316Zm.914-13.043a.54.54,0,0,0,.211-.07,4.9,4.9,0,0,0,2.391-4.289,5,5,0,0,0-.439-2.092,4.207,4.207,0,0,0-1.213-1.582,2.8,2.8,0,0,0-1.793-.615,2.622,2.622,0,0,0-2.162,1.125,4.728,4.728,0,0,0-.861,2.953q0,2.391,3.656,4.5A.378.378,0,0,0,149.59-12.727ZM148.746-.949A3.683,3.683,0,0,0,151.523-2a3.924,3.924,0,0,0,1.02-2.848,3.865,3.865,0,0,0-.686-2.232,8.3,8.3,0,0,0-1.529-1.705,14.662,14.662,0,0,0-1.336-1.02,5.864,5.864,0,0,0-.9-.545,1.13,1.13,0,0,0-.3-.088.468.468,0,0,0-.211.088,3.419,3.419,0,0,0-.316.229,5.833,5.833,0,0,0-1.811,1.951,5.686,5.686,0,0,0-.545,2.654,4.7,4.7,0,0,0,1.16,3.3A3.534,3.534,0,0,0,148.746-.949ZM163.266.176A8.239,8.239,0,0,1,158.7-.879a1.184,1.184,0,0,1-.352-1.02q0-1.652,1.3-1.652a1.221,1.221,0,0,1,.949.51,7.721,7.721,0,0,0,1.125,1.072,4.452,4.452,0,0,0,2.672.738,3.918,3.918,0,0,0,2.795-1.213,5.226,5.226,0,0,0,1.248-3.885,5.088,5.088,0,0,0-.615-2.514,4.968,4.968,0,0,0-1.635-1.775,3.963,3.963,0,0,0-2.215-.668,9.213,9.213,0,0,0-2.285.246,1.376,1.376,0,0,1-.246-.914.783.783,0,0,1,.07-.352,7.74,7.74,0,0,0,3.867-1.687,4.35,4.35,0,0,0,1.441-3.445,2.929,2.929,0,0,0-.932-2.127,2.929,2.929,0,0,0-2.127-.932,3.506,3.506,0,0,0-1.74.4,4.824,4.824,0,0,0-1.125.826q-.4.422-.545.563-.141,0-.281-.334a1.536,1.536,0,0,1-.141-.58,7.612,7.612,0,0,1,2.145-2.18,5.6,5.6,0,0,1,3.094-.773,4,4,0,0,1,2,.563,4.684,4.684,0,0,1,1.635,1.582,4.284,4.284,0,0,1,.65,2.355,4.43,4.43,0,0,1-.756,2.619,9.819,9.819,0,0,1-2.162,2.127,8.394,8.394,0,0,1,2.391,1.266A6.824,6.824,0,0,1,170.754-10a5.4,5.4,0,0,1,.7,2.76,7.031,7.031,0,0,1-1.072,3.885,7.275,7.275,0,0,1-2.936,2.6A9.225,9.225,0,0,1,163.266.176Zm12.973-.07a.884.884,0,0,1-.141-.6q0-.422.141-.422a5.1,5.1,0,0,0,.879-.105,6.93,6.93,0,0,0,1.055-.281q.492-.176.527-.316a8.344,8.344,0,0,0,.211-2V-16.277a15.916,15.916,0,0,0-.07-1.705q-.07-.615-.422-.615a2.52,2.52,0,0,0-.932.387q-.686.387-1.318.773a1.225,1.225,0,0,1-.422-.4.929.929,0,0,1-.211-.475.286.286,0,0,1,.07-.211q5.941-4.043,6.082-4.043h.07q.281,0,.422.668a11.534,11.534,0,0,0-.352,3.3V-4.746q0,1.02.07,1.793a8.9,8.9,0,0,0,.211,1.336q.07.141.545.316a6.359,6.359,0,0,0,1.037.281,5.065,5.065,0,0,0,.773.105q.141,0,.141.633a1,1,0,0,1-.035.387q-1.758-.07-2.812-.123T180.316-.07q-.281,0-1.3.053T176.238.105Z" transform="translate(1497.018 62)" fill="#00524c"/>
    <path id="Union_3" data-name="Union 3" d="M16571.822,21208v-17.439a18.376,18.376,0,0,1,6.7,1.3c-2.176,1.461-4.332,3.666-4.332,6.453a6.588,6.588,0,0,0,6.537,6.49,6.456,6.456,0,0,0,6.381-6.49c0-2.787-2-4.992-4.178-6.453a17.3,17.3,0,0,1,13.018,0c-2.178,1.461-4.178,3.666-4.178,6.453a6.456,6.456,0,0,0,6.381,6.49,6.543,6.543,0,0,0,6.484-6.49c0-2.787-2.1-4.992-4.279-6.453a18.132,18.132,0,0,1,6.711-1.266V21208Zm4.52-9.687c0-2.363,2.348-4.258,4.34-5.389,1.986,1.131,4.332,3.025,4.332,5.389a4.34,4.34,0,1,1-8.672,0Zm17.615-.053c0-2.363,2.344-4.258,4.332-5.387,1.992,1.129,4.334,3.023,4.334,5.387a4.337,4.337,0,1,1-8.666,0Zm-4.518-9.682a18.971,18.971,0,0,0-8.711,2.01,20.282,20.282,0,0,0-8.906-2.039V21185h35.246v3.58a20.186,20.186,0,0,0-8.916,2.01A18.992,18.992,0,0,0,16589.439,21188.582Z" transform="translate(-15117.051 -21145)" fill="#00524c"/>
  </g>
</svg>
