<svg xmlns="http://www.w3.org/2000/svg" width="304.732" height="33.461" viewBox="0 0 304.732 33.461">
  <g id="Group_278" data-name="Group 278" transform="translate(0 -17.859)">
    <path id="Path_2511" data-name="Path 2511" d="M12.094.141A7.913,7.913,0,0,1,6.7-1.875,13.113,13.113,0,0,1,3.141-7.312a21.893,21.893,0,0,1-1.266-7.641,21.841,21.841,0,0,1,1.266-7.664A13.128,13.128,0,0,1,6.7-28.031a7.913,7.913,0,0,1,5.391-2.016,8,8,0,0,1,5.461,1.992,12.866,12.866,0,0,1,3.516,5.391,22.362,22.362,0,0,1,1.242,7.711,21.893,21.893,0,0,1-1.266,7.641,13.229,13.229,0,0,1-3.539,5.438A7.888,7.888,0,0,1,12.094.141Zm-.234-1.781a4.226,4.226,0,0,0,3.422-1.781A12.608,12.608,0,0,0,17.438-8.3a29.5,29.5,0,0,0,.75-6.937,27.02,27.02,0,0,0-.75-6.68,12.811,12.811,0,0,0-2.062-4.641,3.793,3.793,0,0,0-3.047-1.711,4.2,4.2,0,0,0-3.3,1.734A12.37,12.37,0,0,0,6.8-21.8,26.524,26.524,0,0,0,6-15a28.174,28.174,0,0,0,.75,6.773,13.322,13.322,0,0,0,2.086,4.8A3.785,3.785,0,0,0,11.859-1.641ZM27.938.141a1.178,1.178,0,0,1-.187-.8q0-.562.188-.562a6.8,6.8,0,0,0,1.172-.141,9.24,9.24,0,0,0,1.406-.375q.656-.234.7-.422A11.126,11.126,0,0,0,31.5-4.828V-21.7a21.222,21.222,0,0,0-.094-2.273q-.094-.82-.562-.82a3.36,3.36,0,0,0-1.242.516q-.914.516-1.758,1.031a1.633,1.633,0,0,1-.562-.539A1.239,1.239,0,0,1,27-24.422a.382.382,0,0,1,.094-.281q7.922-5.391,8.109-5.391H35.3q.375,0,.563.891a15.379,15.379,0,0,0-.469,4.406V-6.328q0,1.359.094,2.391a11.869,11.869,0,0,0,.281,1.781q.094.188.727.422a8.479,8.479,0,0,0,1.383.375,6.753,6.753,0,0,0,1.031.141q.188,0,.188.844a1.339,1.339,0,0,1-.047.516Q36.7.047,35.3-.023t-1.922-.07q-.375,0-1.734.07T27.938.141ZM44.719,0q-.187,0-.352-.539a3.15,3.15,0,0,1-.164-.867,77.053,77.053,0,0,0,6.234-7.125,43.228,43.228,0,0,0,4.5-7.055,13.74,13.74,0,0,0,1.688-5.93,5.59,5.59,0,0,0-1.266-3.914,4.3,4.3,0,0,0-3.328-1.383q-3.891,0-6.234,3.891a.861.861,0,0,1-.586-.3q-.3-.3-.3-.445a6.179,6.179,0,0,1,.82-1.617,12.208,12.208,0,0,1,1.828-2.156A10.623,10.623,0,0,1,50.3-29.32a8.162,8.162,0,0,1,3.609-.773,6.02,6.02,0,0,1,3.609,1.078,7.137,7.137,0,0,1,2.32,2.836,8.706,8.706,0,0,1,.82,3.727,11.856,11.856,0,0,1-.891,4.43,22.851,22.851,0,0,1-2.32,4.336,43.132,43.132,0,0,1-3.07,4.008q-1.641,1.9-3.187,3.422T48.563-3.7q-.141.234.094.328H57.7a2.262,2.262,0,0,0,1.9-.75,9.225,9.225,0,0,0,1.2-2.859.727.727,0,0,1,.656-.516,1.275,1.275,0,0,1,.844.188Q61.172-1.781,61.031-.75q-.047.75-.937.75ZM76.688.141A7.913,7.913,0,0,1,71.3-1.875a13.113,13.113,0,0,1-3.562-5.437,21.893,21.893,0,0,1-1.266-7.641,21.841,21.841,0,0,1,1.266-7.664A13.128,13.128,0,0,1,71.3-28.031a7.913,7.913,0,0,1,5.391-2.016,8,8,0,0,1,5.461,1.992,12.866,12.866,0,0,1,3.516,5.391,22.362,22.362,0,0,1,1.242,7.711,21.893,21.893,0,0,1-1.266,7.641A13.229,13.229,0,0,1,82.1-1.875,7.888,7.888,0,0,1,76.688.141Zm-.234-1.781a4.226,4.226,0,0,0,3.422-1.781A12.608,12.608,0,0,0,82.031-8.3a29.5,29.5,0,0,0,.75-6.937,27.02,27.02,0,0,0-.75-6.68,12.811,12.811,0,0,0-2.062-4.641,3.793,3.793,0,0,0-3.047-1.711,4.2,4.2,0,0,0-3.3,1.734A12.37,12.37,0,0,0,71.391-21.8a26.524,26.524,0,0,0-.8,6.8,28.174,28.174,0,0,0,.75,6.773,13.322,13.322,0,0,0,2.086,4.8A3.785,3.785,0,0,0,76.453-1.641ZM91.828-9.328q-.328,0-.328-.516,0-2.391.563-2.391l11.391-.562q.281,0,.281.422,0,.375-.094,1.266a2.034,2.034,0,0,1-.375,1.172l-.141.094ZM117.563.422a9.235,9.235,0,0,1-6.3-2.109,6.992,6.992,0,0,1-2.414-5.531,6.334,6.334,0,0,1,1.641-4.148,16.173,16.173,0,0,1,4.453-3.539q.234-.141,0-.281a11.531,11.531,0,0,1-3.3-3.023,6.932,6.932,0,0,1-1.477-4.289,6.973,6.973,0,0,1,1.078-3.75,8.49,8.49,0,0,1,2.859-2.812,7.292,7.292,0,0,1,3.844-1.078,8.392,8.392,0,0,1,3.891.891,7.083,7.083,0,0,1,2.766,2.484,6.749,6.749,0,0,1,1.031,3.75q0,3.609-5.25,6.891-.187.141,0,.281a18.105,18.105,0,0,1,2.953,2.133,11.681,11.681,0,0,1,2.3,2.719,6.022,6.022,0,0,1,.891,3.164,7.39,7.39,0,0,1-1.242,4.172A8.993,8.993,0,0,1,121.992-.68,9.172,9.172,0,0,1,117.563.422Zm1.219-17.391a.72.72,0,0,0,.281-.094,6.536,6.536,0,0,0,3.188-5.719,6.66,6.66,0,0,0-.586-2.789,5.609,5.609,0,0,0-1.617-2.109,3.73,3.73,0,0,0-2.391-.82,3.5,3.5,0,0,0-2.883,1.5,6.3,6.3,0,0,0-1.148,3.938q0,3.188,4.875,6A.5.5,0,0,0,118.781-16.969Zm-1.125,15.7a4.91,4.91,0,0,0,3.7-1.406,5.232,5.232,0,0,0,1.359-3.8,5.153,5.153,0,0,0-.914-2.977,11.068,11.068,0,0,0-2.039-2.273,19.549,19.549,0,0,0-1.781-1.359,7.818,7.818,0,0,0-1.2-.727,1.507,1.507,0,0,0-.4-.117.624.624,0,0,0-.281.117,4.559,4.559,0,0,0-.422.3,7.778,7.778,0,0,0-2.414,2.6,7.581,7.581,0,0,0-.727,3.539,6.265,6.265,0,0,0,1.547,4.406A4.712,4.712,0,0,0,117.656-1.266ZM140.25.422a9.235,9.235,0,0,1-6.3-2.109,6.992,6.992,0,0,1-2.414-5.531,6.334,6.334,0,0,1,1.641-4.148,16.173,16.173,0,0,1,4.453-3.539q.234-.141,0-.281a11.531,11.531,0,0,1-3.3-3.023,6.932,6.932,0,0,1-1.477-4.289,6.973,6.973,0,0,1,1.078-3.75,8.49,8.49,0,0,1,2.859-2.812,7.292,7.292,0,0,1,3.844-1.078,8.392,8.392,0,0,1,3.891.891,7.083,7.083,0,0,1,2.766,2.484,6.749,6.749,0,0,1,1.031,3.75q0,3.609-5.25,6.891-.187.141,0,.281a18.105,18.105,0,0,1,2.953,2.133,11.681,11.681,0,0,1,2.3,2.719,6.022,6.022,0,0,1,.891,3.164,7.39,7.39,0,0,1-1.242,4.172A8.993,8.993,0,0,1,144.68-.68,9.172,9.172,0,0,1,140.25.422Zm1.219-17.391a.72.72,0,0,0,.281-.094,6.536,6.536,0,0,0,3.188-5.719,6.66,6.66,0,0,0-.586-2.789,5.609,5.609,0,0,0-1.617-2.109,3.73,3.73,0,0,0-2.391-.82,3.5,3.5,0,0,0-2.883,1.5,6.3,6.3,0,0,0-1.148,3.938q0,3.188,4.875,6A.5.5,0,0,0,141.469-16.969Zm-1.125,15.7a4.91,4.91,0,0,0,3.7-1.406,5.232,5.232,0,0,0,1.359-3.8,5.153,5.153,0,0,0-.914-2.977,11.068,11.068,0,0,0-2.039-2.273,19.549,19.549,0,0,0-1.781-1.359,7.818,7.818,0,0,0-1.2-.727,1.507,1.507,0,0,0-.4-.117.624.624,0,0,0-.281.117,4.559,4.559,0,0,0-.422.3,7.778,7.778,0,0,0-2.414,2.6,7.581,7.581,0,0,0-.727,3.539,6.265,6.265,0,0,0,1.547,4.406A4.712,4.712,0,0,0,140.344-1.266ZM155.484.141a1.178,1.178,0,0,1-.187-.8q0-.562.188-.562a6.8,6.8,0,0,0,1.172-.141,9.24,9.24,0,0,0,1.406-.375q.656-.234.7-.422a11.126,11.126,0,0,0,.281-2.672V-21.7a21.222,21.222,0,0,0-.094-2.273q-.094-.82-.562-.82a3.36,3.36,0,0,0-1.242.516q-.914.516-1.758,1.031a1.633,1.633,0,0,1-.562-.539,1.239,1.239,0,0,1-.281-.633.382.382,0,0,1,.094-.281q7.922-5.391,8.109-5.391h.094q.375,0,.563.891a15.379,15.379,0,0,0-.469,4.406V-6.328q0,1.359.094,2.391a11.869,11.869,0,0,0,.281,1.781q.094.188.727.422a8.479,8.479,0,0,0,1.383.375,6.753,6.753,0,0,0,1.031.141q.188,0,.188.844a1.339,1.339,0,0,1-.047.516q-2.344-.094-3.75-.164t-1.922-.07q-.375,0-1.734.07T155.484.141ZM172.5-9.328q-.328,0-.328-.516,0-2.391.563-2.391l11.391-.562q.281,0,.281.422,0,.375-.094,1.266a2.034,2.034,0,0,1-.375,1.172l-.141.094ZM198.234.422a9.235,9.235,0,0,1-6.3-2.109,6.992,6.992,0,0,1-2.414-5.531,6.334,6.334,0,0,1,1.641-4.148,16.173,16.173,0,0,1,4.453-3.539q.234-.141,0-.281a11.531,11.531,0,0,1-3.3-3.023,6.932,6.932,0,0,1-1.477-4.289,6.973,6.973,0,0,1,1.078-3.75,8.49,8.49,0,0,1,2.859-2.812,7.292,7.292,0,0,1,3.844-1.078,8.392,8.392,0,0,1,3.891.891,7.083,7.083,0,0,1,2.766,2.484,6.749,6.749,0,0,1,1.031,3.75q0,3.609-5.25,6.891-.187.141,0,.281A18.105,18.105,0,0,1,204-13.711a11.681,11.681,0,0,1,2.3,2.719,6.022,6.022,0,0,1,.891,3.164,7.39,7.39,0,0,1-1.242,4.172A8.993,8.993,0,0,1,202.664-.68,9.172,9.172,0,0,1,198.234.422Zm1.219-17.391a.72.72,0,0,0,.281-.094,6.536,6.536,0,0,0,3.188-5.719,6.66,6.66,0,0,0-.586-2.789,5.609,5.609,0,0,0-1.617-2.109,3.73,3.73,0,0,0-2.391-.82,3.5,3.5,0,0,0-2.883,1.5,6.3,6.3,0,0,0-1.148,3.938q0,3.188,4.875,6A.5.5,0,0,0,199.453-16.969Zm-1.125,15.7a4.91,4.91,0,0,0,3.7-1.406,5.232,5.232,0,0,0,1.359-3.8,5.153,5.153,0,0,0-.914-2.977,11.068,11.068,0,0,0-2.039-2.273,19.549,19.549,0,0,0-1.781-1.359,7.818,7.818,0,0,0-1.2-.727,1.507,1.507,0,0,0-.4-.117.624.624,0,0,0-.281.117,4.559,4.559,0,0,0-.422.3,7.778,7.778,0,0,0-2.414,2.6,7.581,7.581,0,0,0-.727,3.539,6.265,6.265,0,0,0,1.547,4.406A4.712,4.712,0,0,0,198.328-1.266Zm19.359,1.5a10.985,10.985,0,0,1-6.094-1.406,1.578,1.578,0,0,1-.469-1.359q0-2.2,1.734-2.2a1.628,1.628,0,0,1,1.266.68,10.3,10.3,0,0,0,1.5,1.43,5.936,5.936,0,0,0,3.563.984,5.225,5.225,0,0,0,3.727-1.617q1.664-1.617,1.664-5.18a6.784,6.784,0,0,0-.82-3.352,6.624,6.624,0,0,0-2.18-2.367,5.284,5.284,0,0,0-2.953-.891,12.283,12.283,0,0,0-3.047.328,1.834,1.834,0,0,1-.328-1.219,1.044,1.044,0,0,1,.094-.469,10.321,10.321,0,0,0,5.156-2.25,5.8,5.8,0,0,0,1.922-4.594,3.9,3.9,0,0,0-1.242-2.836,3.9,3.9,0,0,0-2.836-1.242,4.675,4.675,0,0,0-2.32.539,6.432,6.432,0,0,0-1.5,1.1q-.539.563-.727.75-.187,0-.375-.445a2.048,2.048,0,0,1-.187-.773,10.149,10.149,0,0,1,2.859-2.906,7.473,7.473,0,0,1,4.125-1.031,5.329,5.329,0,0,1,2.672.75,6.245,6.245,0,0,1,2.18,2.109,5.712,5.712,0,0,1,.867,3.141A5.907,5.907,0,0,1,224.93-20.6a13.092,13.092,0,0,1-2.883,2.836,11.192,11.192,0,0,1,3.188,1.688,9.1,9.1,0,0,1,2.438,2.742,7.2,7.2,0,0,1,.938,3.68,9.375,9.375,0,0,1-1.43,5.18,9.7,9.7,0,0,1-3.914,3.469A12.3,12.3,0,0,1,217.688.234Zm17.3-.094a1.178,1.178,0,0,1-.187-.8q0-.562.188-.562a6.8,6.8,0,0,0,1.172-.141,9.24,9.24,0,0,0,1.406-.375q.656-.234.7-.422a11.126,11.126,0,0,0,.281-2.672V-21.7a21.222,21.222,0,0,0-.094-2.273q-.094-.82-.562-.82a3.36,3.36,0,0,0-1.242.516q-.914.516-1.758,1.031a1.633,1.633,0,0,1-.562-.539,1.239,1.239,0,0,1-.281-.633.382.382,0,0,1,.094-.281q7.922-5.391,8.109-5.391h.094q.375,0,.563.891a15.379,15.379,0,0,0-.469,4.406V-6.328q0,1.359.094,2.391a11.869,11.869,0,0,0,.281,1.781q.094.188.727.422a8.479,8.479,0,0,0,1.383.375,6.753,6.753,0,0,0,1.031.141q.188,0,.188.844a1.339,1.339,0,0,1-.047.516q-2.344-.094-3.75-.164t-1.922-.07q-.375,0-1.734.07T234.984.141Z" transform="translate(58.591 48)" fill="#fff"/>
    <path id="Union_3" data-name="Union 3" d="M0,31.9V7.715a25.5,25.5,0,0,1,9.295,1.8c-3.018,2.026-6.008,5.083-6.008,8.95a9.138,9.138,0,0,0,9.066,9,8.955,8.955,0,0,0,8.85-9c0-3.867-2.777-6.924-5.8-8.95a23.974,23.974,0,0,1,18.055,0c-3.02,2.026-5.793,5.083-5.793,8.95a8.953,8.953,0,0,0,8.848,9,9.076,9.076,0,0,0,8.994-9c0-3.867-2.919-6.924-5.934-8.95a25.108,25.108,0,0,1,9.306-1.755V31.9ZM6.267,18.466c0-3.277,3.256-5.9,6.02-7.474,2.754,1.57,6.008,4.2,6.008,7.474a6.02,6.02,0,1,1-12.028,0ZM30.7,18.392c0-3.277,3.252-5.9,6.008-7.47,2.764,1.566,6.011,4.193,6.011,7.47a6.015,6.015,0,1,1-12.019,0ZM24.433,4.965A26.317,26.317,0,0,0,12.352,7.752,28.156,28.156,0,0,0,0,4.926V0H48.882V4.965A28.016,28.016,0,0,0,36.517,7.752,26.343,26.343,0,0,0,24.433,4.965Z" transform="translate(0 19.417)" fill="#fff"/>
  </g>
</svg>
